<svg width="97" height="97" viewBox="0 0 97 97" fill="none" xmlns="http://www.w3.org/2000/svg">
	<path fill-rule="evenodd" clip-rule="evenodd" d="M27.8952 14.9338C24.6999 14.492 21.1362 15.016 17.7957 17.8216C14.4949 20.5938 13.4489 24.1561 13.5019 27.5952C13.5555 31.0807 14.7468 34.3576 15.8136 36.269C16.2173 36.9923 15.9582 37.9061 15.2348 38.3098C14.5114 38.7135 13.5977 38.4544 13.194 37.731C11.9336 35.4728 10.5649 31.7133 10.5022 27.6414C10.4388 23.523 11.72 19.0066 15.8663 15.5243C19.9728 12.0754 24.4336 11.4267 28.3061 11.9621C32.131 12.491 35.3958 14.1703 37.3156 15.4141C38.0109 15.8645 38.2093 16.7933 37.7589 17.4886C37.3084 18.1838 36.3796 18.3823 35.6844 17.9318C33.9841 16.8302 31.1379 15.3822 27.8952 14.9338Z" fill="#E1F0FF"/>
	<path fill-rule="evenodd" clip-rule="evenodd" d="M78.027 26.0287C78.5634 26.66 78.4866 27.6066 77.8553 28.143L71.9713 33.143C71.34 33.6795 70.3934 33.6026 69.857 32.9713C69.3205 32.34 69.3974 31.3934 70.0287 30.857L75.9126 25.857C76.5439 25.3205 77.4906 25.3974 78.027 26.0287Z" fill="#FFDCB2"/>
	<path fill-rule="evenodd" clip-rule="evenodd" d="M62.8387 25.0506C63.363 24.4092 64.308 24.3144 64.9494 24.8387L70.0975 29.0473L75.0287 24.857C75.6599 24.3205 76.6066 24.3974 77.143 25.0287C77.6795 25.66 77.6026 26.6066 76.9713 27.143L71.7225 31.6033C70.8027 32.3849 69.4558 32.3977 68.5213 31.6338L63.0506 27.1613C62.4092 26.637 62.3143 25.692 62.8387 25.0506Z" fill="#FF8A00"/>
	<path fill-rule="evenodd" clip-rule="evenodd" d="M16 57.5C14.6162 57.5 13.5 58.6176 13.5 59.9953V79.5C13.5 80.8807 12.3807 82 11 82C9.61929 82 8.5 80.8807 8.5 79.5V59.9953C8.5 55.8501 11.8609 52.5 16 52.5H36C37.3807 52.5 38.5 53.6193 38.5 55C38.5 56.3807 37.3807 57.5 36 57.5H16Z" fill="#E1F0FF"/>
	<path fill-rule="evenodd" clip-rule="evenodd" d="M60 15.5C58.6162 15.5 57.5 16.6176 57.5 17.9953V37.5C57.5 38.8807 56.3807 40 55 40C53.6193 40 52.5 38.8807 52.5 37.5V17.9953C52.5 13.8501 55.8609 10.5 60 10.5H80C81.3807 10.5 82.5 11.6193 82.5 13C82.5 14.3807 81.3807 15.5 80 15.5H60Z" fill="#E1F0FF"/>
	<path fill-rule="evenodd" clip-rule="evenodd" d="M26.445 42.89C34.975 42.89 41.89 35.975 41.89 27.445C41.89 18.915 34.975 12 26.445 12C17.915 12 11 18.915 11 27.445C11 35.975 17.915 42.89 26.445 42.89ZM26.445 45.89C36.6319 45.89 44.89 37.6319 44.89 27.445C44.89 17.2581 36.6319 9 26.445 9C16.2581 9 8 17.2581 8 27.445C8 37.6319 16.2581 45.89 26.445 45.89Z" fill="#166DC2"/>
	<path fill-rule="evenodd" clip-rule="evenodd" d="M17.0264 63.7369C17.0264 62.9085 17.6979 62.2369 18.5264 62.2369H35.3685C36.1969 62.2369 36.8685 62.9085 36.8685 63.7369C36.8685 64.5653 36.1969 65.2369 35.3685 65.2369H18.5264C17.6979 65.2369 17.0264 64.5653 17.0264 63.7369Z" fill="#166DC2"/>
	<path fill-rule="evenodd" clip-rule="evenodd" d="M17.0265 76.3684C17.0265 75.54 17.698 74.8684 18.5265 74.8684H35.3686C36.197 74.8684 36.8686 75.54 36.8686 76.3684C36.8686 77.1969 36.197 77.8684 35.3686 77.8684H18.5265C17.698 77.8684 17.0265 77.1969 17.0265 76.3684Z" fill="#166DC2"/>
	<path fill-rule="evenodd" clip-rule="evenodd" d="M17.0265 70.0526C17.0265 69.2242 17.698 68.5526 18.5265 68.5526H35.3686C36.197 68.5526 36.8686 69.2242 36.8686 70.0526C36.8686 70.8811 36.197 71.5526 35.3686 71.5526H18.5265C17.698 71.5526 17.0265 70.8811 17.0265 70.0526Z" fill="#166DC2"/>
	<path fill-rule="evenodd" clip-rule="evenodd" d="M79.8421 12H59C56.2386 12 54 14.2386 54 17V37.8421C54 40.6035 56.2386 42.8421 59 42.8421H79.8421C82.6035 42.8421 84.8421 40.6035 84.8421 37.8421V17C84.8421 14.2386 82.6035 12 79.8421 12ZM59 9C54.5817 9 51 12.5817 51 17V37.8421C51 42.2604 54.5817 45.8421 59 45.8421H79.8421C84.2604 45.8421 87.8421 42.2604 87.8421 37.8421V17C87.8421 12.5817 84.2604 9 79.8421 9H59Z" fill="#166DC2"/>
	<path fill-rule="evenodd" clip-rule="evenodd" d="M36.8421 54.1052H16C13.2386 54.1052 11 56.3438 11 59.1052V79.9473C11 82.7088 13.2386 84.9473 16 84.9473H36.8421C39.6035 84.9473 41.8421 82.7088 41.8421 79.9473V59.1052C41.8421 56.3438 39.6035 54.1052 36.8421 54.1052ZM16 51.1052C11.5817 51.1052 8 54.6869 8 59.1052V79.9473C8 84.3656 11.5817 87.9473 16 87.9473H36.8421C41.2604 87.9473 44.8421 84.3656 44.8421 79.9473V59.1052C44.8421 54.6869 41.2604 51.1052 36.8421 51.1052H16Z" fill="#166DC2"/>
	<path fill-rule="evenodd" clip-rule="evenodd" d="M67.4199 56.5318C65.3716 56.3689 63.1161 56.7997 61.0741 58.5013C59.0986 60.1476 58.469 62.2527 58.5011 64.3257C58.534 66.4468 59.2689 68.4541 59.9212 69.6136C60.3273 70.3357 60.0712 71.2502 59.3492 71.6564C58.6272 72.0625 57.7126 71.8064 57.3064 71.0844C56.4587 69.5773 55.5436 67.0846 55.5015 64.3723C55.4587 61.612 56.329 58.5505 59.1535 56.1967C61.9116 53.8983 64.9893 53.3291 67.6577 53.5412C70.2895 53.7505 72.5744 54.719 73.9249 55.5872C74.6217 56.0352 74.8235 56.9633 74.3755 57.6602C73.9275 58.357 72.9995 58.5588 72.3026 58.1108C71.3198 57.479 69.5047 56.6975 67.4199 56.5318Z" fill="#FFDCB2"/>
	<path fill-rule="evenodd" clip-rule="evenodd" d="M68.2983 54.1535L66.6389 54.0215L64.9794 54.1506L63.3604 54.5377L61.822 55.1733L60.4019 56.0418L59.1352 57.1218L58.053 58.3866L57.1819 59.8051L56.5436 61.3424L56.1535 62.9606L56.0214 64.62L56.1505 66.2796L56.5377 67.8985L57.1733 69.4369L58.0418 70.857L59.1217 72.1238L60.3865 73.206L61.805 74.077L63.3424 74.7154L64.9606 75.1054L66.62 75.2375L68.2795 75.1084L69.8985 74.7212L71.4369 74.0856L72.857 73.2171L74.1237 72.1372L75.2059 70.8724L76.077 69.4539L76.7153 67.9166L77.1054 66.2983L77.2375 64.639L77.1084 62.9794L76.7212 61.3604L76.0856 59.822L75.2171 58.4019L74.1372 57.1352L72.8724 56.053L71.4539 55.182L69.9165 54.5436L68.2983 54.1535ZM66.7201 51.0184C66.6679 51.0143 66.6154 51.0142 66.5632 51.0183L64.5897 51.1718C64.5375 51.1759 64.4857 51.184 64.4347 51.1962L62.5096 51.6566C62.4587 51.6688 62.4087 51.6849 62.3603 51.7049L60.5309 52.4608C60.4825 52.4808 60.4357 52.5046 60.391 52.5319L58.7024 53.5646C58.6577 53.592 58.6152 53.6228 58.5754 53.6567L57.0691 54.9409C57.0292 54.9749 56.9921 55.012 56.958 55.0518L55.6712 56.5558C55.6371 56.5956 55.6062 56.638 55.5788 56.6826L54.5431 58.3694C54.5157 58.4141 54.4918 58.4608 54.4717 58.5092L53.7126 60.3372C53.6925 60.3856 53.6762 60.4355 53.664 60.4864L53.2002 62.4107C53.1879 62.4616 53.1796 62.5134 53.1755 62.5657L53.0184 64.5388C53.0142 64.591 53.0142 64.6435 53.0183 64.6957L53.1718 66.6692C53.1759 66.7214 53.184 66.7732 53.1962 66.8242L53.6566 68.7493C53.6687 68.8003 53.6849 68.8502 53.7049 68.8986L54.4608 70.728C54.4808 70.7764 54.5045 70.8232 54.5319 70.8679L55.5646 72.5565C55.5919 72.6012 55.6227 72.6437 55.6567 72.6835L56.9409 74.1898C56.9749 74.2297 57.0119 74.2668 57.0517 74.3009L58.5557 75.5878C58.5955 75.6218 58.638 75.6527 58.6826 75.6801L60.3694 76.7159C60.414 76.7433 60.4608 76.7671 60.5092 76.7872L62.3372 77.5463C62.3856 77.5664 62.4355 77.5827 62.4864 77.595L64.4107 78.0588C64.4616 78.071 64.5134 78.0793 64.5657 78.0835L66.5388 78.2405C66.591 78.2447 66.6435 78.2447 66.6957 78.2407L68.6692 78.0871C68.7214 78.0831 68.7732 78.0749 68.8242 78.0627L70.7493 77.6024C70.8002 77.5902 70.8502 77.574 70.8986 77.554L72.728 76.7982C72.7764 76.7781 72.8232 76.7544 72.8679 76.727L74.5565 75.6943C74.6012 75.667 74.6437 75.6362 74.6835 75.6022L76.1898 74.318C76.2297 74.284 76.2668 74.247 76.3009 74.2072L77.5877 72.7032C77.6218 72.6634 77.6527 72.6209 77.6801 72.5763L78.7158 70.8895C78.7432 70.8449 78.7671 70.7982 78.7872 70.7498L79.5463 68.9217C79.5664 68.8733 79.5827 68.8235 79.5949 68.7725L80.0587 66.8482C80.071 66.7973 80.0793 66.7455 80.0834 66.6933L80.2405 64.7201C80.2447 64.6679 80.2447 64.6154 80.2406 64.5632L80.0871 62.5898C80.083 62.5375 80.0749 62.4857 80.0627 62.4348L79.6023 60.5096C79.5902 60.4587 79.574 60.4088 79.554 60.3604L78.7981 58.5309C78.7781 58.4825 78.7544 58.4358 78.727 58.3911L77.6943 56.7024C77.667 56.6577 77.6362 56.6153 77.6022 56.5754L76.318 55.0691C76.284 55.0292 76.247 54.9921 76.2072 54.958L74.7032 53.6712C74.6633 53.6371 74.6209 53.6062 74.5763 53.5788L72.8895 52.5431C72.8449 52.5157 72.7981 52.4918 72.7497 52.4717L70.9217 51.7126C70.8733 51.6925 70.8234 51.6763 70.7725 51.664L68.8482 51.2002C68.7973 51.1879 68.7455 51.1796 68.6932 51.1755L66.7201 51.0184Z" fill="#FF8A00"/>
	<path fill-rule="evenodd" clip-rule="evenodd" d="M72.847 74.0504C73.4327 73.4646 74.3825 73.4646 74.9683 74.0504L85.9859 85.0681C86.5717 85.6538 86.5717 86.6036 85.9859 87.1894C85.4002 87.7752 84.4504 87.7752 83.8646 87.1894L72.847 76.1717C72.2612 75.5859 72.2612 74.6362 72.847 74.0504Z" fill="#FF8A00"/>
</svg>