<svg viewBox="0 0 82 82" width="82px" height="82px" fill="none" xmlns="http://www.w3.org/2000/svg">
    <path
        d="M65.347 8.083c.974-.584 2.142-.974 3.311-.974a6.318 6.318 0 016.33 6.33c0 1.17-.292 2.338-.876 3.312A41.024 41.024 0 0182 41c0 22.691-18.309 41-41 41C18.406 82 0 63.691 0 41 0 18.406 18.309 0 41 0c9.154.097 17.53 3.116 24.347 8.083z"
        fill="#fff"></path>
    <path
        d="M70.899 19.478c-.682.292-1.46.39-2.24.39a6.318 6.318 0 01-6.33-6.331c0-.78.195-1.558.39-2.24a36.764 36.764 0 00-21.62-7.012c-20.354 0-36.91 16.459-36.91 36.813C4.189 61.45 20.647 77.91 41 77.91c20.451.097 36.91-16.459 36.91-36.813 0-8.083-2.63-15.484-7.012-21.62z"
        fill="#DF1122"></path>
    <path
        d="M70.897 19.478c-.682.292-1.46.39-2.24.39a6.318 6.318 0 01-6.33-6.331c0-.78.097-1.558.39-2.24a36.764 36.764 0 00-21.62-7.012c-20.354 0-36.813 16.459-36.813 36.813 0 20.353 16.459 36.812 36.813 36.812 20.353 0 36.812-16.459 36.812-36.813 0-8.083-2.63-15.484-7.012-21.62z"
        stroke="#DF1122" stroke-width="0.056" stroke-miterlimit="3.864"></path>
    <path
        d="M65.25 13.44a3.491 3.491 0 013.505-3.506 3.491 3.491 0 013.506 3.506 3.491 3.491 0 01-3.506 3.505 3.491 3.491 0 01-3.506-3.505z"
        fill="#DF1122"></path>
    <path d="M68.659 16.945a3.506 3.506 0 100-7.012 3.506 3.506 0 000 7.012z" stroke="#DF1122"
        stroke-width="0.052" stroke-miterlimit="3.864"></path>
    <path
        d="M73.623 32.235l-7.888 20.841h-4.578l3.02-6.817-5.454-14.024H63.3l2.922 9.057h.194l2.727-9.057h4.48zM58.044 42.753c0 3.311-3.603 4.577-7.11 4.577-3.408 0-7.011-1.266-7.011-4.577h4.48c0 1.071 1.46 1.363 2.532 1.363 1.071 0 2.434-.292 2.434-1.266 0-1.266-1.655-1.46-4.382-2.142-2.727-.682-4.772-1.948-4.772-4.577 0-3.312 3.214-4.48 6.622-4.48 3.409 0 6.525 1.168 6.525 4.382h-4.48c0-.876-1.168-1.266-2.045-1.266-.974 0-2.045.195-2.045 1.169 0 1.266 1.948 1.363 4.09 1.948 2.825.876 5.162 1.947 5.162 4.869zM37.202 39.539c0-1.948-1.071-3.798-3.603-3.798s-3.311 2.045-3.311 3.798c0 1.85.974 3.798 3.506 3.798 2.63 0 3.408-2.045 3.408-3.798zm4.285 7.304H37.3v-1.656h-.195c-.682 1.461-2.143 2.24-4.285 2.24-3.7 0-6.915-3.019-6.915-7.79 0-4.87 2.922-7.792 6.623-7.792 2.045 0 3.798.877 4.577 2.143h.195v-1.656h4.285l-.098 14.51zM53.172 53.174c-11.59-1.558-23.179-1.655-41.195-.39l.195-.779c18.016-1.558 32.235-2.434 39.928-2.142 4.578.097 5.94.487 5.94 2.142.098 1.656-1.947 1.559-4.868 1.17zM18.988 37.98c-.097-.876-.584-2.629-3.018-2.629-2.24 0-2.922 1.85-3.02 2.63h6.038zm4.48 1.461c0 .585-.097 1.461-.097 1.461H12.853c.098 1.656 1.364 2.922 3.117 2.922 1.265 0 2.142-.487 2.532-1.364h4.577c-.39 2.143-2.24 4.87-7.012 4.87-4.577 0-7.694-3.603-7.694-7.889 0-4.382 2.825-7.596 7.402-7.596 4.674 0 7.693 3.214 7.693 7.596z"
        fill="#FDF737"></path>
    <path
        d="M22.689 62.328c.195-.195.487-.39.779-.487.292-.098.584-.195.876-.195.293 0 .585.097.877.195.292.097.584.292.779.487l.292.292-.682.682-.292-.39c-.097-.097-.292-.195-.487-.292-.194-.097-.39-.097-.487-.097-.195 0-.39 0-.487.097-.194.097-.292.195-.487.292-.097.097-.194.292-.292.487-.097.195-.097.39-.097.487 0 .195 0 .39.097.487.098.195.195.292.292.487.293.292.585.39.974.39.195 0 .39 0 .487-.098.195-.097.292-.195.487-.292l.292-.292.682.681-.292.293a2.12 2.12 0 01-.78.486c-.291.098-.583.195-.876.195-.292 0-.584-.097-.876-.195-.292-.097-.487-.292-.78-.487a2.122 2.122 0 01-.486-.779c-.098-.292-.195-.584-.195-.876 0-.292.097-.584.195-.877.097-.194.292-.486.487-.681zM27.95 62.912c-.293.292-.39.585-.39.974 0 .195 0 .39.097.584a690.013 690.013 0 00.877-.876l.584-.584.39-.39c-.293-.097-.487-.195-.78-.097-.292.097-.584.194-.779.39zm2.24 1.656l.681.681-.292.293a2.12 2.12 0 01-.78.487c-.291.097-.584.194-.876.194-.292 0-.584-.097-.876-.194-.292-.098-.487-.292-.78-.487a2.121 2.121 0 01-.486-.78c-.098-.292-.195-.584-.195-.876 0-.292.097-.584.195-.876.097-.292.292-.487.487-.78.194-.194.487-.389.779-.486.292-.098.584-.195.876-.195.292 0 .585.097.877.195.292.097.584.292.779.486l.292.293-2.532 2.532c.292.097.487.194.779.097.292 0 .584-.195.78-.39l.291-.194zM31.165 63.886c0-.292.097-.584.195-.877.097-.292.292-.486.487-.681a2.12 2.12 0 01.779-.487c.292-.098.584-.195.876-.195.292 0 .584.097.877.195.292.097.487.292.779.487.194.194.39.487.487.681.097.293.194.585.194.877v2.337h-.876v-2.337c0-.195 0-.39-.097-.487-.098-.195-.195-.292-.293-.487-.097-.097-.292-.195-.486-.292-.195-.097-.39-.097-.585-.097-.195 0-.39 0-.584.097-.195.097-.292.195-.39.292-.097.097-.194.292-.292.487-.097.195-.097.292-.097.487v2.337h-.974v-2.337zM36.715 62.328a2.12 2.12 0 01.779-.487c.292-.098.584-.195.876-.195.292 0 .585.097.877.195.292.097.584.292.779.487l.292.292-.682.682-.292-.293c-.097-.097-.292-.194-.487-.292-.195-.097-.39-.097-.487-.097-.195 0-.39 0-.487.097-.195.098-.292.195-.487.292-.097.098-.194.293-.292.487-.097.195-.097.39-.097.487 0 .195 0 .39.097.487.098.195.195.292.292.487.292.292.585.39.974.39.195 0 .39 0 .487-.098.195-.097.292-.194.487-.292l.292-.292.682.682-.39.195c-.194.194-.487.389-.779.486-.292.098-.584.195-.876.195-.292 0-.585-.097-.877-.195-.292-.097-.487-.292-.779-.487a2.12 2.12 0 01-.487-.779c-.097-.292-.195-.584-.195-.876 0-.292.098-.584.195-.877.195-.194.39-.486.585-.681zM41.486 63.886c0 .195 0 .39.098.584.097.195.194.292.292.487.097.098.292.195.487.292.195.098.39.098.584.098.195 0 .39 0 .584-.098.195-.097.293-.194.487-.292.098-.097.195-.292.293-.487.097-.195.097-.39.097-.584 0-.195 0-.39-.097-.487-.098-.195-.195-.292-.293-.487-.097-.097-.292-.195-.486-.292-.195-.097-.39-.097-.585-.097-.195 0-.39 0-.584.097-.195.097-.292.195-.487.292-.097.097-.195.292-.292.487 0 .195-.098.292-.098.487zm-.876 0c0-.292.097-.584.195-.877.097-.292.292-.486.487-.681a2.12 2.12 0 01.779-.487c.292-.098.584-.195.876-.195.292 0 .584.097.877.195.292.097.487.292.779.487.194.194.39.487.487.681.097.293.194.585.194.877 0 .292-.097.584-.194.876-.098.293-.293.487-.487.78a2.12 2.12 0 01-.78.486c-.291.098-.584.195-.876.195-.292 0-.584-.097-.876-.195-.292-.097-.487-.292-.78-.487a2.121 2.121 0 01-.486-.779 1.946 1.946 0 01-.195-.876zM49.57 61.646v.877h-2.727c-.098 0-.195 0-.293.097-.097.097-.097.195-.097.292 0 .097 0 .195.097.292.098.098.195.098.293.098h1.85c.195 0 .39 0 .487.097.195.097.292.195.39.292.097.097.194.292.292.487.097.195.097.292.097.487s0 .39-.097.584c-.098.195-.195.293-.293.487-.097.098-.292.195-.389.292-.195.098-.39.098-.487.098h-2.727v-.877h2.727c.097 0 .292 0 .292-.097.098-.097.098-.195.098-.292 0-.098 0-.195-.098-.292-.097-.098-.195-.098-.292-.098h-1.85c-.195 0-.39 0-.585-.097a1.343 1.343 0 01-.39-.292c-.097-.098-.194-.293-.291-.39-.098-.195-.098-.39-.098-.584 0-.195 0-.39.098-.487.097-.195.194-.292.292-.487.097-.098.292-.195.39-.292.194-.098.389-.098.584-.098h2.726v-.097zM54.928 61.646v2.24c0 .292-.098.584-.195.876-.097.293-.292.487-.487.78a2.12 2.12 0 01-.779.486c-.292.098-.584.195-.877.195-.292 0-.584-.097-.876-.195-.292-.097-.487-.292-.78-.487a2.122 2.122 0 01-.486-.779c-.097-.292-.195-.584-.195-.876v-2.24h.877v2.24c0 .195 0 .39.097.584.098.195.195.292.292.487.098.098.292.195.487.292.195.098.39.098.584.098.195 0 .39 0 .585-.098.195-.097.292-.194.487-.292.097-.097.195-.292.292-.487.097-.195.097-.39.097-.584v-2.24h.877zM57.459 65.25c.195 0 .39 0 .487-.098.195-.097.292-.195.39-.292.097-.097.194-.292.291-.487.098-.195.098-.39.098-.584v-1.364h-1.266c-.195 0-.39 0-.584.098-.195.097-.293.194-.487.292-.098.097-.195.292-.292.487-.098.195-.098.292-.098.487 0 .194 0 .39.098.584.097.195.194.292.292.487.097.097.292.195.487.292.194.098.39.098.584.098zm2.337-5.454v4.09c0 .292-.097.584-.195.877-.097.292-.292.487-.486.779-.195.195-.488.39-.682.487-.292.097-.585.195-.877.195-.292 0-.584-.098-.876-.195-.292-.098-.487-.292-.78-.487a2.12 2.12 0 01-.486-.78c-.098-.291-.195-.584-.195-.876 0-.292.097-.584.195-.876.097-.292.292-.487.487-.682a2.12 2.12 0 01.779-.487c.292-.097.584-.195.876-.195h1.364v-1.85h.876z"
        fill="#fff"></path>
</svg>