<svg viewBox="0 0 82 82" width="82px" height="82px" fill="none" xmlns="http://www.w3.org/2000/svg">
    <path
        d="M6.081 41c0 19.323 15.694 34.919 34.919 34.919 19.225 0 34.919-15.596 34.919-34.82 0-19.226-15.596-34.92-34.919-34.92C21.775 6.18 6.081 21.775 6.081 41zM0 41C0 18.342 18.342 0 41 0s41 18.44 41 41c0 22.658-18.342 41-41 41S0 63.658 0 41z"
        fill="#fff"></path>
    <path
        d="M4.02 41c0-20.402 16.576-36.979 36.978-36.979S77.977 20.598 77.977 41c0 20.402-16.577 36.978-36.979 36.978C20.596 77.978 4.02 61.5 4.02 41z"
        fill="#009CE0"></path>
    <path
        d="M61.696 12.555c0-3.728 3.04-6.67 6.67-6.67 3.727 0 6.67 3.04 6.67 6.67 0 3.727-3.041 6.67-6.67 6.67-3.63 0-6.67-3.041-6.67-6.67z"
        fill="#fff"></path>
    <path
        d="M64.834 12.556a3.62 3.62 0 013.63-3.63 3.62 3.62 0 013.628 3.63 3.62 3.62 0 01-3.629 3.629 3.62 3.62 0 01-3.63-3.63z"
        fill="#009CE0"></path>
    <path
        d="M21.775 40.706c0 4.512-1.373 6.964-4.217 6.964a5.278 5.278 0 01-4.512-2.55v-8.435c1.177-1.471 2.648-2.452 4.413-2.452 2.649.098 4.316 2.256 4.316 6.473zm2.354 0c0-5.983-2.648-8.533-6.081-8.533-2.256 0-3.923 1.079-5.1 2.452v-2.06h-2.453v23.05l2.453-1.373v-6.768c1.176 1.373 2.648 2.256 4.708 2.256 3.629 0 6.473-3.04 6.473-9.024zM37.075 45.316c-.98 1.374-2.648 2.55-4.806 2.55-2.06 0-3.433-1.078-3.433-3.629 0-2.157 1.472-3.334 3.924-3.334 2.06 0 3.237.392 4.316.98v3.433zm2.355 4.12v-11.77c0-3.924-2.256-5.493-5.886-5.493-2.157 0-4.217.588-5.689 1.373l.883 1.962c1.373-.785 2.845-1.275 4.61-1.275 2.452 0 3.63 1.177 3.63 3.727v1.962c-.981-.589-2.55-.981-4.218-.981-3.335 0-6.474 1.57-6.474 5.395 0 4.12 2.746 5.394 5.395 5.394 2.452 0 4.12-1.079 5.296-2.452v2.158h2.453zM51.986 32.663c-.588-.294-1.373-.392-2.648-.392-1.765 0-3.433 1.078-4.218 2.452v-2.06h-2.354v16.773h2.453v-9.907c0-3.237 1.275-5.1 3.629-5.1 1.079 0 1.863.294 2.55.686l.588-2.452zM57.185 32.565h-2.452v16.871h2.452v-16.87zM71.31 45.022c0-3.041-1.864-3.924-5.002-5.395-2.845-1.275-3.728-1.864-3.728-3.237 0-1.177.981-2.06 2.747-2.06 1.765 0 2.844.49 4.218 1.472l1.373-1.766c-1.276-1.079-3.041-1.766-5.395-1.766-3.04 0-5.297 1.766-5.297 4.316 0 2.747 1.373 3.728 4.806 5.199 2.943 1.275 4.022 2.06 4.022 3.433 0 1.667-1.079 2.648-3.433 2.648-1.667 0-3.237-.686-4.61-1.863l-1.373 1.765c1.57 1.275 3.629 2.158 5.983 2.158 2.845-.196 5.689-1.57 5.689-4.904zM22.758 62.874c.196-.197.49-.393.784-.49.294-.099.589-.197.883-.197.294 0 .588.098.883.196.294.098.588.294.784.49l.295.295-.687.687-.294-.295c-.098-.098-.294-.196-.49-.294-.099-.098-.295-.098-.491-.098s-.392 0-.49.098c-.197.098-.295.196-.49.294-.099.098-.197.294-.295.49-.098.197-.098.393-.098.491 0 .196 0 .392.098.49.098.197.196.295.294.49.294.295.589.393.98.393.197 0 .393 0 .59-.098.196-.098.294-.196.49-.294l.294-.294.687.686-.393.294c-.196.197-.49.393-.784.491-.295.098-.589.196-.883.196-.294 0-.589-.098-.883-.196a2.135 2.135 0 01-.785-.49 2.135 2.135 0 01-.49-.785c-.098-.294-.196-.589-.196-.883 0-.294.098-.588.196-.883.098-.294.294-.49.49-.784zM30.406 65.228l.687.686-.295.294c-.196.197-.49.393-.784.491-.295.098-.589.196-.883.196-.294 0-.589-.098-.883-.196a2.136 2.136 0 01-.785-.49 2.135 2.135 0 01-.49-.785c-.098-.294-.196-.589-.196-.883 0-.294.098-.588.196-.883.098-.294.294-.588.49-.784.197-.197.49-.393.785-.49.294-.099.589-.197.883-.197.294 0 .588.098.883.196.294.098.588.294.784.49l.295.295-2.55 2.55c.294.098.588.196.784.098.294 0 .588-.196.785-.392l.294-.196zm-2.354-1.668c-.294.294-.392.589-.392.981 0 .196 0 .392.098.589l.392-.393.588-.588.589-.589.392-.392h-.882c-.295 0-.49.196-.785.392zM31.386 64.541c0-.294.098-.588.196-.883.098-.294.294-.49.49-.784.197-.197.491-.393.785-.49.294-.099.589-.197.883-.197.294 0 .588.098.883.196.294.098.49.294.785.49.196.197.392.491.49.785.098.295.196.589.196.883v2.354h-.883v-2.354c0-.196 0-.392-.098-.588-.098-.197-.196-.295-.294-.49-.098-.099-.294-.197-.49-.295h-.589c-.196 0-.392 0-.589.098-.196.098-.294.196-.49.294-.098.098-.196.294-.294.49-.098.197-.098.393-.098.59v2.353h-.883v-2.452zM37.077 62.874c.196-.197.49-.393.784-.49.295-.099.589-.197.883-.197.294 0 .589.098.883.196.294.098.588.294.784.49l.295.295-.687.687-.294-.295c-.098-.098-.294-.196-.49-.294-.197-.098-.393-.098-.59-.098-.195 0-.391 0-.49.098-.196.098-.294.196-.49.294-.098.098-.196.294-.294.49-.098.197-.098.393-.098.491 0 .196 0 .392.098.49.098.197.196.295.294.49.294.295.589.393.98.393.197 0 .393 0 .59-.098.196-.098.294-.196.49-.294l.294-.294.687.686-.295.294c-.196.197-.49.393-.784.491-.294.098-.589.196-.883.196-.294 0-.588-.098-.883-.196a2.135 2.135 0 01-.784-.49 2.135 2.135 0 01-.49-.785c-.099-.294-.197-.589-.197-.883 0-.294.098-.588.196-.883.098-.294.196-.49.49-.784zM41 64.541c0-.294.098-.588.196-.883.098-.294.294-.49.49-.784.197-.197.491-.393.785-.49.295-.099.589-.197.883-.197.294 0 .589.098.883.196.294.098.49.294.785.49.196.197.392.491.49.785.098.295.196.589.196.883 0 .294-.098.589-.196.883-.098.294-.294.49-.49.784-.197.197-.49.393-.785.491-.294.098-.589.196-.883.196-.294 0-.588-.098-.883-.196-.294-.098-.49-.294-.784-.49a2.135 2.135 0 01-.49-.785A2.343 2.343 0 0141 64.54zm.98 0c0 .196 0 .392.099.589.098.196.196.294.294.49.098.098.294.196.49.294.197.098.393.098.59.098.195 0 .391 0 .588-.098.196-.098.294-.196.49-.294.098-.098.196-.294.294-.49.098-.197.098-.393.098-.589 0-.196 0-.392-.098-.588-.098-.197-.196-.295-.294-.49-.098-.099-.294-.197-.49-.295h-.687c-.196 0-.392 0-.588.098-.197.098-.295.196-.49.294-.099.098-.197.294-.295.49v.491zM50.218 62.187v.98h-2.844c-.098 0-.196 0-.294.099-.099.098-.099.196-.099.294 0 .098 0 .294.099.393.098.098.196.098.294.098h1.863c.197 0 .393 0 .589.098.196.098.294.196.49.294.099.098.197.294.295.49.098.197.098.393.098.589 0 .196 0 .392-.098.588-.098.197-.196.295-.294.49-.099.099-.295.197-.491.295-.196.098-.392.098-.589.098h-2.844v-.882h2.844c.099 0 .295 0 .393-.099.098-.098.098-.196.098-.392 0-.098 0-.196-.098-.294-.098-.098-.196-.098-.393-.098h-1.863c-.196 0-.393 0-.589-.098a1.354 1.354 0 01-.392-.295c-.098-.098-.196-.294-.294-.49-.098-.196-.098-.392-.098-.589 0-.196 0-.392.098-.588.098-.196.196-.294.294-.49.098-.099.294-.197.392-.295.197-.098.393-.098.589-.098h2.844v-.098zM55.614 62.187v2.354c0 .294-.098.589-.197.883-.098.294-.294.49-.49.784-.196.197-.49.393-.785.491-.294.098-.588.196-.883.196-.294 0-.588-.098-.882-.196-.294-.098-.49-.294-.785-.49a2.135 2.135 0 01-.49-.785c-.098-.294-.196-.589-.196-.883v-2.354h.882v2.354c0 .196 0 .392.098.589.098.196.197.294.295.49.098.098.294.196.49.294.196.098.392.098.589.098.196 0 .392 0 .588-.098.196-.098.294-.196.49-.294.099-.098.197-.294.295-.49.098-.197.098-.393.098-.589v-2.354h.883zM60.617 60.323v4.217c0 .295-.097.589-.196.883-.098.294-.294.49-.49.785-.196.196-.49.392-.785.49-.294.098-.588.197-.883.197-.294 0-.588-.099-.882-.197-.294-.098-.49-.294-.785-.49a2.136 2.136 0 01-.49-.785c-.099-.294-.197-.588-.197-.883 0-.294.099-.588.197-.882.098-.295.294-.49.49-.785.196-.196.49-.392.785-.49.294-.099.588-.197.883-.197h1.373v-1.863h.98zm-2.353 5.59c.196 0 .392 0 .588-.097.196-.099.294-.197.49-.295.099-.098.197-.294.295-.49.098-.196.098-.393.098-.589v-1.275h-1.373c-.197 0-.393 0-.589.098-.196.098-.294.197-.49.295-.099.098-.197.294-.295.49-.098.196-.098.392-.098.588 0 .197 0 .393.098.59.099.195.197.293.295.49.098.098.294.196.49.294.098-.098.294-.098.49-.098z"
        fill="#fff"></path>
</svg>