<svg xmlns="http://www.w3.org/2000/svg" viewBox="0 0 96 96" style="fill-rule:evenodd;clip-rule:evenodd;stroke-linecap:round;stroke-linejoin:round;stroke-miterlimit:1.5;">
        <g id="Capa1">
            <g transform="matrix(0.978661,0,0,0.96483,1.50338,-11.6941)">
                <path d="M31.885,82.866C31.885,74.242 38.886,67.24 47.51,67.24C56.135,67.24 63.136,74.242 63.136,82.866L31.885,82.866ZM35.341,79.757C35.341,79.757 59.68,79.757 59.68,79.757C58.29,74.344 53.357,70.35 47.51,70.35C41.664,70.35 36.731,74.344 35.341,79.757Z" style="fill:rgb(255,137,0);"/>
            </g>
            <g transform="matrix(-1.42012,1.73914e-16,-1.96509e-16,-1.60462,115.47,158.018)">
                <path d="M50.232,68.252C56.126,70.489 63.136,76.192 63.136,82.866L31.885,82.866C31.885,76.192 38.895,70.489 44.789,68.252C38.895,66.014 31.885,60.312 31.885,53.638L63.136,53.638C63.136,60.312 56.126,66.014 50.232,68.252Z" style="fill:none;stroke:rgb(20,108,194);stroke-width:1.98px;"/>
            </g>
            <g transform="matrix(0.990717,0,0,0.943475,-0.00764248,0.323042)">
                <rect x="22.444" y="14.496" width="52.027" height="7.319" style="fill:none;stroke:rgb(20,108,194);stroke-width:3.1px;"/>
            </g>
            <g transform="matrix(0.990717,0,0,0.943475,-0.00764248,62.4175)">
                <rect x="22.444" y="14.496" width="52.027" height="7.319" style="fill:none;stroke:rgb(20,108,194);stroke-width:3.1px;"/>
            </g>
        </g>
    </svg>