<svg viewBox="0 0 50 34" width="50" height="34" fill="none" xmlns="http://www.w3.org/2000/svg">
	<path
		d="M46.255.62H3.745A3.745 3.745 0 000 4.366v7.175h50V4.365A3.745 3.745 0 0046.255.621zM0 29.634a3.745 3.745 0 003.745 3.745h42.51A3.745 3.745 0 0050 29.634V22.46H0v7.175z"
		fill="#50A7FF"></path>
	<path fill-rule="evenodd" clip-rule="evenodd"
		d="M46 1H4a3 3 0 00-3 3v26a3 3 0 003 3h42a3 3 0 003-3V4a3 3 0 00-3-3zM4 0a4 4 0 00-4 4v26a4 4 0 004 4h42a4 4 0 004-4V4a4 4 0 00-4-4H4z"
		fill="#fff"></path>
	<path d="M50 11.54H0v10.919h50V11.54z" fill="#fff"></path>
	<path
		d="M29.31 16.784h-3.104a1.45 1.45 0 00.145-.128.783.783 0 01.296-.198c.161-.068.245-.068.352-.07.128-.001.273-.004.51-.101.238-.099.341-.2.433-.289a.79.79 0 01.296-.2.774.774 0 01.35-.068c.127-.002.272-.003.51-.102l-.166-.397a.774.774 0 01-.35.068c-.127.002-.272.003-.51.101-.236.099-.34.2-.431.289-.076.074-.136.133-.296.199-.16.067-.245.068-.352.07a1.19 1.19 0 00-.51.101c-.238.098-.341.2-.433.289a.802.802 0 01-.29.196l2.44-2.44-.305-.304-2.195 2.195c.01-.072.012-.135.012-.193.002-.107.003-.19.069-.351.067-.161.125-.221.2-.297a1.2 1.2 0 00.29-.433c.098-.238.1-.383.1-.51.002-.107.003-.19.069-.35.066-.16.125-.22.199-.296.09-.092.191-.196.29-.432l-.399-.165a.79.79 0 01-.2.296c-.089.091-.19.195-.288.431-.098.238-.1.383-.101.51-.002.107-.003.19-.069.35-.066.162-.125.221-.2.297-.09.092-.19.196-.29.434-.097.237-.099.383-.1.51a.794.794 0 01-.067.342V12.69h-.43v3.104a1.53 1.53 0 00-.128-.144.79.79 0 01-.2-.297.793.793 0 01-.069-.352 1.198 1.198 0 00-.101-.51c-.098-.237-.2-.34-.29-.433-.073-.075-.132-.135-.198-.295-.066-.16-.067-.244-.069-.35a1.191 1.191 0 00-.1-.51l-.399.165c.066.16.067.244.068.35.002.128.003.272.101.51.098.236.2.34.29.432.074.075.132.135.199.295.066.16.067.245.069.352.001.128.003.274.101.511.098.238.2.341.29.433.073.074.13.136.195.29l-2.44-2.44-.304.305 2.435 2.435a.836.836 0 01-.267-.184c-.093-.09-.197-.192-.435-.29a1.216 1.216 0 00-.511-.102.788.788 0 01-.353-.07c-.162-.067-.223-.126-.3-.2-.092-.09-.196-.192-.435-.291-.238-.099-.384-.1-.513-.102a.805.805 0 01-.354-.07l-.165.398c.239.099.384.1.513.102a.804.804 0 01.354.071.792.792 0 01.3.2c.092.09.197.191.435.29.238.1.384.101.512.103.107.001.191.002.353.07.16.066.221.125.297.2.04.038.083.078.136.12h-3.113v.43h3.443a.826.826 0 01-.319.06c-.128.001-.273.004-.51.101-.239.099-.343.2-.435.29-.077.075-.137.134-.298.2a.803.803 0 01-.354.071c-.13.002-.275.003-.513.102-.239.1-.343.2-.435.29-.077.075-.138.134-.3.2l.165.4c.238-.1.343-.2.435-.29.077-.076.137-.135.3-.201a.803.803 0 01.354-.07c.129-.003.274-.004.513-.103.237-.1.341-.2.434-.29a.794.794 0 01.298-.2c.16-.067.245-.068.352-.07.055 0 .116-.003.182-.012L21.8 19.895l.305.305 2.435-2.434a.826.826 0 01-.184.267c-.09.092-.19.196-.29.433a1.2 1.2 0 00-.101.512c-.002.107-.003.191-.07.353-.067.163-.126.223-.2.3-.09.091-.192.197-.29.435-.1.238-.102.384-.103.513-.002.107-.003.191-.07.353l.398.165c.1-.238.1-.384.102-.513.002-.107.003-.192.07-.353.067-.163.127-.223.201-.3.09-.092.192-.197.29-.435a1.2 1.2 0 00.102-.512c.002-.107.003-.19.07-.353.066-.161.125-.221.2-.298.038-.039.079-.083.12-.136v3.113h.431v-3.442c.052.135.058.22.06.318 0 .128.003.274.101.511.098.238.2.343.29.434.075.077.133.138.2.3.067.16.069.246.07.353.002.129.003.274.102.513.1.238.2.343.29.435.075.076.135.137.202.3l.398-.166a1.207 1.207 0 00-.29-.435c-.075-.076-.135-.137-.201-.3a.804.804 0 01-.07-.353c-.002-.129-.004-.274-.102-.513a1.202 1.202 0 00-.29-.434c-.075-.077-.134-.137-.2-.299-.067-.16-.068-.245-.07-.352 0-.054-.004-.116-.012-.182l2.202 2.202.305-.305-2.196-2.195a1.6 1.6 0 00.193.013c.107.001.19.002.351.068.16.068.221.126.297.2.092.09.196.192.434.29.236.098.382.1.51.1.106.002.19.003.35.07.16.065.22.124.295.198.092.09.195.191.432.29l.165-.4c-.16-.065-.22-.124-.295-.198-.092-.09-.196-.191-.433-.29a1.194 1.194 0 00-.51-.1c-.106-.002-.19-.002-.35-.069a.783.783 0 01-.297-.2c-.091-.089-.195-.19-.433-.288a1.178 1.178 0 00-.511-.102.808.808 0 01-.344-.067h3.452v-.43z"
		fill="#FF8A00"></path>
	<path d="M25 19.155a2.155 2.155 0 100-4.31 2.155 2.155 0 000 4.31z" fill="#F8DD69"></path>
</svg>