<svg viewBox="0 0 50 34" width="50" height="34" fill="none" xmlns="http://www.w3.org/2000/svg">
    <path
        d="M46.255.5H3.745C1.97.5.5 1.998.5 3.887v26.226c0 1.889 1.47 3.387 3.245 3.387h42.51c1.775 0 3.245-1.498 3.245-3.387V3.887C49.5 1.998 48.03.5 46.255.5z"
        fill="#73AF00" stroke="#fff"></path>
    <path
        d="M25.448 4.757l18.17 11.478a.913.913 0 010 1.53l-18.17 11.478a.835.835 0 01-.896 0L6.382 17.764a.913.913 0 010-1.528l18.17-11.48a.836.836 0 01.896 0z"
        fill="#F8DD69"></path>
    <path
        d="M25 24.158c-3.809 0-6.896-3.205-6.896-7.158 0-3.953 3.087-7.158 6.896-7.158 3.809 0 6.896 3.205 6.896 7.158 0 3.953-3.087 7.158-6.896 7.158z"
        fill="#005CB9"></path>
    <path
        d="M30.918 13.338c.325.566.577 1.18.743 1.833-3.824-.3-9.48.811-13.079 4.436a7.33 7.33 0 01-.448-1.979c3.717-3.246 8.855-4.4 12.784-4.29zM24.714 19.443l-.183.571-.58.005c-.076 0-.107.1-.046.146l.466.358-.175.575c-.022.074.06.135.12.09l.473-.35.472.35c.06.045.142-.016.12-.09l-.175-.575.467-.358c.06-.046.029-.145-.046-.146l-.58-.005-.184-.571a.077.077 0 00-.149 0zM22.459 20.92l-.08.247-.25.002c-.032 0-.045.043-.019.063l.201.154-.075.247c-.01.032.025.059.052.039l.203-.15.203.15c.026.02.062-.007.052-.039l-.076-.247.201-.154c.027-.02.013-.063-.02-.063l-.25-.002-.078-.246a.033.033 0 00-.064 0zM25.69 18.357l-.08.246-.25.002c-.032 0-.045.043-.019.063l.201.154-.075.247c-.01.032.025.059.051.04l.204-.151.203.15c.026.02.061-.007.052-.039l-.076-.247.201-.154c.026-.02.013-.063-.02-.063l-.25-.002-.078-.246a.034.034 0 00-.064 0zM30.066 18.059l-.08.246-.25.002c-.032 0-.045.043-.019.063l.2.154-.074.247c-.01.032.025.059.051.039l.204-.15.203.15c.026.02.061-.007.052-.039l-.076-.247.201-.154c.026-.02.013-.063-.02-.063l-.25-.002-.078-.246a.034.034 0 00-.064 0zM26.405 20.836l-.08.246-.249.002c-.032 0-.046.043-.02.063l.201.154-.075.247c-.01.032.025.059.052.039l.203-.15.203.15c.026.02.062-.007.052-.039l-.075-.247.2-.154c.027-.02.013-.063-.02-.063l-.249-.002-.079-.246a.034.034 0 00-.064 0zM28.42 17.887l-.066.201-.204.002c-.026 0-.037.035-.016.052l.164.125-.061.203c-.008.026.02.047.042.031l.166-.123.166.123c.022.016.05-.005.043-.032l-.062-.202.164-.125c.022-.017.01-.052-.016-.052l-.204-.002-.065-.2a.027.027 0 00-.052 0zM22.283 13.736l-.08.252-.256.002c-.033 0-.047.044-.02.064l.205.158-.077.253c-.01.032.026.06.053.04l.208-.155.208.154c.027.02.063-.007.053-.04l-.077-.252.205-.158c.027-.02.013-.064-.02-.064l-.255-.002-.081-.252a.034.034 0 00-.066 0zM29.784 16.657l-.065.201-.204.002c-.026 0-.037.035-.016.052l.164.126-.061.202c-.008.026.02.048.042.031l.166-.123.166.123c.022.017.05-.005.043-.031l-.062-.202.164-.126c.022-.017.01-.052-.016-.052l-.204-.002-.065-.2a.027.027 0 00-.052 0zM28.798 19.492l-.098.304-.31.003c-.04 0-.056.053-.024.078l.249.19-.093.306c-.012.04.031.073.064.049l.251-.187.252.187c.033.024.076-.009.064-.049l-.093-.306.249-.19c.032-.025.015-.078-.025-.078l-.31-.003-.097-.304a.041.041 0 00-.08 0zM21.2 20.985l-.06.192-.195.001c-.026 0-.036.034-.016.05l.157.12-.059.192c-.007.025.02.045.04.03l.159-.117.158.117c.02.015.048-.005.04-.03l-.058-.193.156-.12c.02-.015.01-.049-.015-.049l-.195-.001-.061-.192a.026.026 0 00-.05 0zM20.52 19.522l-.08.246-.25.002c-.031 0-.045.043-.019.063l.201.154-.075.247c-.01.032.025.059.052.039l.203-.15.203.15c.026.02.061-.007.052-.039l-.076-.247.201-.154c.026-.02.013-.063-.02-.063l-.25-.002-.078-.246a.033.033 0 00-.064 0z"
        fill="#F5F5F5"></path>
</svg>