<svg width="88" height="49" viewBox="0 0 88 49" fill="none" xmlns="http://www.w3.org/2000/svg">
<path fill-rule="evenodd" clip-rule="evenodd" d="M66.4771 32.8636C63.0457 41.933 54.3064 48.4421 44.1077 48.4421C33.891 48.4421 25.1697 41.9631 21.7562 32.8636H24.3654C27.6479 40.5807 35.2433 45.9899 44.0958 45.9899C52.9303 45.9899 60.5258 40.5507 63.8142 32.8636H66.4771Z" fill="#005CB9"/>
<path fill-rule="evenodd" clip-rule="evenodd" d="M63.903 15.5965C63.2656 14.0939 62.4435 12.6695 61.4963 11.3653C61.1031 11.5156 60.6384 11.6057 60.2035 11.6057C58.1662 11.6057 56.516 9.93488 56.516 7.88539C56.516 7.42261 56.5994 6.97785 56.7543 6.56916C53.2157 3.97876 48.861 2.44014 44.1488 2.44014C35.2845 2.44014 27.683 7.85534 24.4185 15.5965H21.8271C25.2465 6.52709 33.9679 0 44.1607 0C49.4448 0 54.3297 1.74897 58.2853 4.68195C58.8572 4.32735 59.5125 4.123 60.2274 4.123C62.2826 4.123 63.9387 5.79985 63.9387 7.86736C63.9387 8.57056 63.7481 9.22567 63.4145 9.79063C64.6953 11.5396 65.7616 13.529 66.5301 15.5905L63.903 15.5965Z" fill="#005CB9"/>
<path d="M60.2276 5.68585C59.054 5.68585 58.0949 6.64749 58.0949 7.83751C58.0949 9.02152 59.054 9.98916 60.2276 9.98916C61.4071 9.98916 62.3603 9.02152 62.3603 7.83751C62.3603 6.64749 61.4012 5.68585 60.2276 5.68585Z" fill="#FF8A00"/>
<path fill-rule="evenodd" clip-rule="evenodd" d="M1.54292 20.3506C2.06716 19.8217 2.65097 19.431 3.3003 19.1786C3.96751 18.9021 4.64068 18.7699 5.3198 18.7699C6.00488 18.7699 6.66614 18.9021 7.31547 19.1786C7.98268 19.431 8.57841 19.8277 9.10264 20.3506L9.83538 21.1018L8.36395 22.6044L7.60142 21.8651C7.28569 21.5406 6.92825 21.3062 6.52912 21.1439C6.13594 20.9816 5.73085 20.9035 5.3198 20.9035C4.90875 20.9035 4.50366 20.9816 4.11049 21.1439C3.71731 21.3002 3.35988 21.5406 3.04414 21.8651C2.72841 22.1656 2.49012 22.5202 2.32928 22.9169C2.17439 23.3196 2.09099 23.7223 2.09099 24.137C2.09099 24.5577 2.17439 24.9604 2.32928 25.3631C2.49012 25.7658 2.72841 26.1264 3.04414 26.4449C3.67561 27.082 4.43218 27.4005 5.3198 27.4005C5.74872 27.4005 6.15977 27.3224 6.55891 27.1601C6.95208 26.9978 7.30356 26.7634 7.60738 26.4449L8.3699 25.6996L9.84134 27.2142L9.1086 27.9535C8.58436 28.4824 7.98864 28.879 7.32143 29.1555C6.67805 29.4079 6.01084 29.5402 5.32576 29.5402C4.64664 29.5402 3.97347 29.4139 3.30626 29.1555C2.65692 28.879 2.07312 28.4824 1.54888 27.9535C1.02464 27.4306 0.631466 26.8356 0.381262 26.1805C0.131059 25.5253 0 24.8582 0 24.167C0 23.4638 0.131059 22.7847 0.381262 22.1296C0.625508 21.4745 1.01273 20.8794 1.54292 20.3506Z" fill="#005CB9"/>
<path fill-rule="evenodd" clip-rule="evenodd" d="M19.0276 25.7474L20.5228 27.262L19.7901 28.0013C19.2837 28.5121 18.7059 28.9088 18.0565 29.1732C17.4072 29.4497 16.7281 29.5819 16.0132 29.5819C15.2983 29.5819 14.6192 29.4497 13.9699 29.1732C13.3205 28.9028 12.7427 28.5121 12.2363 28.0013C11.7121 27.4724 11.3249 26.8773 11.0687 26.2282C10.8125 25.5551 10.6874 24.8759 10.6874 24.1908C10.6874 23.4996 10.8125 22.8265 11.0687 22.1774C11.3189 21.5223 11.7121 20.9333 12.2363 20.4044C12.7546 19.8815 13.3444 19.4848 13.9937 19.2264C14.6609 18.9559 15.3341 18.8177 16.0132 18.8177C16.6923 18.8177 17.3595 18.9499 18.0089 19.2264C18.6761 19.4788 19.2718 19.8755 19.7901 20.4044L20.5228 21.1496L14.6133 27.1178C15.2149 27.4183 15.8464 27.5265 16.5136 27.4303C17.1927 27.3161 17.7885 27.0036 18.2948 26.4927L19.0276 25.7474ZM13.7316 21.8889C13.0942 22.532 12.7784 23.2953 12.7784 24.1908C12.7784 24.6836 12.8916 25.1584 13.112 25.6032C13.3027 25.4109 13.5886 25.1224 13.9699 24.7437C14.369 24.341 14.7801 23.9263 15.209 23.4936C15.6498 23.0428 16.0668 22.6221 16.4659 22.2194C16.877 21.8168 17.1927 21.5102 17.4131 21.2879C16.8115 20.9813 16.174 20.8792 15.4949 20.9753C14.8218 21.0715 14.232 21.378 13.7316 21.8889Z" fill="#005CB9"/>
<path fill-rule="evenodd" clip-rule="evenodd" d="M21.2374 24.1676C21.2374 23.4163 21.3745 22.7191 21.6425 22.0821C21.9225 21.4269 22.3038 20.856 22.7804 20.3812C23.2748 19.8883 23.8407 19.5037 24.4901 19.2332C25.1394 18.9447 25.8305 18.8005 26.5572 18.8005C27.3019 18.8005 27.9929 18.9447 28.6244 19.2332C29.2737 19.5037 29.8456 19.8883 30.3341 20.3812C30.8226 20.862 31.2039 21.4269 31.4719 22.0821C31.7579 22.7191 31.9009 23.4163 31.9009 24.1676V29.5588H29.7861V24.1676C29.7861 23.7168 29.6967 23.3021 29.5239 22.9175C29.3631 22.5208 29.1367 22.1782 28.8329 21.8897C28.547 21.5832 28.2074 21.3548 27.8142 21.1925C27.4151 21.0243 26.9981 20.9341 26.5513 20.9341C26.1104 20.9341 25.6875 21.0243 25.2884 21.1925C24.913 21.3548 24.5675 21.5832 24.2697 21.8897C23.9837 22.1782 23.7514 22.5208 23.5786 22.9175C23.4178 23.3021 23.3463 23.7168 23.3463 24.1676V29.5588H21.2255V24.1676H21.2374Z" fill="#005CB9"/>
<path fill-rule="evenodd" clip-rule="evenodd" d="M34.1821 20.3506C34.7064 19.8217 35.2902 19.431 35.9395 19.1786C36.6067 18.9021 37.2799 18.7699 37.959 18.7699C38.6381 18.7699 39.3053 18.9021 39.9487 19.1786C40.6159 19.431 41.2116 19.8277 41.7299 20.3506L42.4686 21.1018L40.9912 22.6044L40.2347 21.8651C39.9189 21.5406 39.5615 21.3062 39.1683 21.1439C38.7751 20.9816 38.37 20.9035 37.959 20.9035C37.542 20.9035 37.1429 20.9816 36.7437 21.1439C36.3446 21.3002 35.9872 21.5406 35.6714 21.8651C35.3616 22.1656 35.1174 22.5202 34.9625 22.9169C34.8017 23.3196 34.7242 23.7223 34.7242 24.137C34.7242 24.5577 34.8017 24.9604 34.9625 25.3631C35.1174 25.7658 35.3616 26.1264 35.6714 26.4449C36.3088 27.082 37.0654 27.4005 37.953 27.4005C38.382 27.4005 38.793 27.3224 39.1862 27.1601C39.5794 26.9978 39.9308 26.7634 40.2287 26.4449L40.9853 25.6996L42.4627 27.2142L41.724 27.9535C41.2057 28.4824 40.61 28.879 39.9428 29.1555C39.2934 29.4079 38.6322 29.5402 37.953 29.5402C37.2739 29.5402 36.5948 29.4139 35.9335 29.1555C35.2842 28.879 34.6944 28.4824 34.1762 27.9535C33.6519 27.4306 33.2647 26.8356 33.0145 26.1805C32.7643 25.5253 32.6332 24.8582 32.6332 24.167C32.6332 23.4638 32.7643 22.7847 33.0145 22.1296C33.2707 21.4745 33.6579 20.8794 34.1821 20.3506Z" fill="#005CB9"/>
<path fill-rule="evenodd" clip-rule="evenodd" d="M43.3088 24.1908C43.3088 23.4395 43.4459 22.7423 43.7139 22.1052C43.9999 21.4501 44.3811 20.8792 44.8577 20.3983C45.3462 19.8995 45.9181 19.5209 46.5674 19.2504C47.2168 18.9619 47.9078 18.8177 48.6346 18.8177C49.3793 18.8177 50.0703 18.9619 50.7077 19.2504C51.357 19.5209 51.923 19.9055 52.4174 20.3983C52.9119 20.8731 53.2872 21.4441 53.5553 22.1052C53.8412 22.7423 53.9842 23.4395 53.9842 24.1908C53.9842 24.93 53.8412 25.6212 53.5553 26.2763C53.2872 26.9314 52.9119 27.5024 52.4174 28.0013C51.9289 28.5001 51.357 28.8908 50.7077 29.1732C50.0703 29.4497 49.3793 29.5819 48.6346 29.5819C47.9078 29.5819 47.2168 29.4497 46.5674 29.1732C45.9181 28.8908 45.3462 28.5001 44.8577 28.0013C44.3811 27.5084 43.9999 26.9314 43.7139 26.2763C43.4399 25.6212 43.3088 24.93 43.3088 24.1908ZM45.4058 24.1908C45.4058 24.6355 45.4773 25.0623 45.6381 25.4589C45.8109 25.8616 46.0432 26.2102 46.3292 26.5167C46.627 26.8052 46.9785 27.0396 47.3717 27.2139C47.7708 27.3702 48.1938 27.4543 48.6346 27.4543C49.0754 27.4543 49.4984 27.3702 49.8975 27.2139C50.2967 27.0396 50.6303 26.8052 50.9162 26.5167C51.22 26.2102 51.4524 25.8616 51.6073 25.4589C51.78 25.0563 51.8694 24.6355 51.8694 24.1908C51.8694 23.74 51.78 23.3253 51.6073 22.9407C51.4524 22.544 51.226 22.1954 50.9162 21.9069C50.6303 21.6004 50.2967 21.378 49.8975 21.2097C49.5043 21.0354 49.0814 20.9453 48.6346 20.9453C48.1938 20.9453 47.7768 21.0354 47.3717 21.2097C46.9785 21.378 46.627 21.6004 46.3292 21.9069C46.0432 22.1954 45.8168 22.544 45.6381 22.9407C45.4773 23.3253 45.4058 23.74 45.4058 24.1908Z" fill="#005CB9"/>
<path fill-rule="evenodd" clip-rule="evenodd" d="M64.2843 18.7699V20.9035H57.8504C57.5466 20.9035 57.2964 20.9997 57.0879 21.21C56.8854 21.4204 56.7781 21.6788 56.7781 21.9793C56.7781 22.2858 56.8854 22.5503 57.0879 22.7727C57.2964 22.977 57.5466 23.0792 57.8504 23.0792H62.1277C62.5745 23.0792 62.9856 23.1693 63.3609 23.3436C63.7541 23.5059 64.0996 23.7283 64.3855 24.0168C64.6834 24.3053 64.9157 24.6418 65.0766 25.0505C65.2553 25.4292 65.3387 25.8499 65.3387 26.2946C65.3387 26.7454 65.2553 27.1661 65.0766 27.5688C64.9217 27.9475 64.6894 28.2961 64.3855 28.5966C64.0996 28.8911 63.76 29.1194 63.3609 29.2937C62.9796 29.45 62.5686 29.5342 62.1277 29.5342H55.7118V27.4005H62.1277C62.4435 27.4005 62.7056 27.2923 62.9141 27.094C63.1166 26.8776 63.2239 26.6192 63.2239 26.3007C63.2239 25.9941 63.1166 25.7417 62.9141 25.5374C62.7056 25.333 62.4435 25.2248 62.1277 25.2248H57.8504C57.4037 25.2248 56.9866 25.1467 56.5935 24.9844C56.2122 24.8101 55.8786 24.5817 55.5927 24.2872C55.3067 23.9867 55.0744 23.6381 54.9016 23.2535C54.7467 22.8508 54.6633 22.4361 54.6633 21.9853C54.6633 21.5346 54.7408 21.1259 54.9016 20.7412C55.0744 20.3385 55.3008 19.9959 55.5927 19.7135C55.8786 19.425 56.2122 19.2026 56.5935 19.0403C56.9926 18.866 57.4096 18.7759 57.8504 18.7759H64.2843V18.7699Z" fill="#005CB9"/>
<path fill-rule="evenodd" clip-rule="evenodd" d="M76.6878 18.7699V24.143C76.6878 24.8702 76.5448 25.5674 76.2588 26.2225C75.9908 26.8776 75.6095 27.4486 75.121 27.9475C74.6325 28.4403 74.0606 28.837 73.4172 29.1255C72.7858 29.3959 72.0947 29.5342 71.3441 29.5342C70.6174 29.5342 69.9263 29.3959 69.277 29.1255C68.6336 28.837 68.0557 28.4463 67.5673 27.9475C67.0907 27.4546 66.7154 26.8776 66.4235 26.2225C66.1494 25.5674 66.0184 24.8702 66.0184 24.143V18.7699H68.1332V24.143C68.1332 24.5877 68.2106 25.0085 68.3715 25.4111C68.5442 25.8078 68.7766 26.1624 69.0625 26.4629C69.3604 26.7454 69.7059 26.9798 70.0872 27.1601C70.4863 27.3224 70.9033 27.4005 71.3441 27.4005C71.7909 27.4005 72.2139 27.3224 72.6071 27.1601C73.0002 26.9858 73.3458 26.7514 73.6317 26.4629C73.9355 26.1624 74.1619 25.8078 74.3227 25.4111C74.4955 25.0145 74.5849 24.5877 74.5849 24.143V18.7699H76.6878Z" fill="#005CB9"/>
<path fill-rule="evenodd" clip-rule="evenodd" d="M87.9999 14.4606V24.1431C87.9999 24.8763 87.857 25.5795 87.571 26.2286C87.3029 26.8837 86.9276 27.4547 86.4332 27.9535C85.9506 28.4464 85.3966 28.8431 84.7413 29.1315C84.0979 29.402 83.4069 29.5402 82.6742 29.5402C81.9474 29.5402 81.2563 29.402 80.607 29.1315C79.9577 28.8431 79.3858 28.4524 78.8973 27.9535C78.4028 27.4607 78.0156 26.8837 77.7297 26.2286C77.4616 25.5735 77.3246 24.8763 77.3246 24.1431C77.3246 23.3918 77.4616 22.7006 77.7297 22.0575C78.0156 21.4084 78.4028 20.8375 78.8973 20.3566C79.3858 19.8638 79.9577 19.4791 80.607 19.2087C81.2563 18.9262 81.9474 18.7759 82.6742 18.7759H85.8851V14.4606H87.9999ZM82.6742 27.4006C83.121 27.4006 83.5261 27.3225 83.9133 27.1602C84.3124 26.9859 84.652 26.7515 84.932 26.463C85.2358 26.1625 85.4621 25.8079 85.623 25.4112C85.7958 25.0145 85.8851 24.5878 85.8851 24.1371V20.9036H82.6742C82.2333 20.9036 81.8163 20.9877 81.4172 21.162C81.024 21.3243 80.6725 21.5527 80.3687 21.8592C80.0887 22.1477 79.8564 22.4903 79.6836 22.8869C79.5228 23.2716 79.4394 23.6863 79.4394 24.131C79.4394 24.5818 79.5168 25.0085 79.6836 25.4052C79.8564 25.8019 80.0828 26.1565 80.3687 26.457C80.6725 26.7455 81.0181 26.9739 81.4172 27.1542C81.8163 27.3225 82.2333 27.4006 82.6742 27.4006Z" fill="#005CB9"/>
</svg>
