<svg viewBox="0 0 50 34" width="50" height="34" fill="none" xmlns="http://www.w3.org/2000/svg">
	<path
		d="M46.255.62H15.517c.476 0 .862.387.862.863v14.655a.862.862 0 01-.862.862H50V4.365A3.745 3.745 0 0046.255.621z"
		fill="#F7F9FA"></path>
	<path
		d="M1.724 17H.862A.862.862 0 010 16.138v13.497a3.745 3.745 0 003.745 3.744h42.51A3.745 3.745 0 0050 29.635V17H1.724z"
		fill="#F04B6A"></path>
	<path
		d="M.862 17h14.655a.862.862 0 00.862-.862V1.483a.862.862 0 00-.862-.862H3.745A3.745 3.745 0 000 4.365v11.773c0 .476.386.862.862.862z"
		fill="#005CB9"></path>
	<path
		d="M8.522 5.133l.821 2.465 2.598.02a.35.35 0 01.205.631l-2.09 1.543.784 2.477a.35.35 0 01-.537.39L8.19 11.15l-2.114 1.51a.35.35 0 01-.537-.39l.783-2.477-2.09-1.543a.35.35 0 01.206-.631l2.598-.02.821-2.465a.35.35 0 01.665 0z"
		fill="#fff"></path>
	<path fill-rule="evenodd" clip-rule="evenodd"
		d="M46 1H4a3 3 0 00-3 3v26a3 3 0 003 3h42a3 3 0 003-3V4a3 3 0 00-3-3zM4 0a4 4 0 00-4 4v26a4 4 0 004 4h42a4 4 0 004-4V4a4 4 0 00-4-4H4z"
		fill="#fff"></path>
</svg>