<svg viewBox="0 0 50 34" width="50" height="34" fill="none" xmlns="http://www.w3.org/2000/svg">
    <path d="M0 29.634a3.745 3.745 0 003.745 3.745h42.51A3.745 3.745 0 0050 29.635v-4.446H0v4.445z"
        fill="#F04B6A"></path>
    <path d="M46.255.62H3.745A3.745 3.745 0 000 4.366V17h50V4.365A3.745 3.745 0 0046.255.621z"
        fill="#F8DD69"></path>
    <path d="M50 17H0v8.19h50V17z" fill="#005CB9"></path>
    <path fill-rule="evenodd" clip-rule="evenodd"
        d="M46 1H4a3 3 0 00-3 3v26a3 3 0 003 3h42a3 3 0 003-3V4a3 3 0 00-3-3zM4 0a4 4 0 00-4 4v26a4 4 0 004 4h42a4 4 0 004-4V4a4 4 0 00-4-4H4z"
        fill="#fff"></path>
</svg>