<svg width="96" height="96" viewBox="0 0 96 96" fill="none" xmlns="http://www.w3.org/2000/svg">
	<path d="M58.8229 70.1626C58.4504 70.1626 58.0802 70.0199 57.7971 69.7368C57.2697 69.2094 57.2334 68.3748 57.6907 67.8038C57.7197 67.3296 57.2504 65.549 54.7005 61.8959C52.3852 58.5791 49.0224 54.6647 45.2338 50.8785C41.4452 47.0899 37.5332 43.7295 34.2164 41.4118C30.5632 38.8619 28.7851 38.3925 28.3085 38.4216C27.7399 38.8788 26.9029 38.8425 26.3755 38.3151C25.8093 37.749 25.8093 36.8297 26.3755 36.2611C27.8391 34.7975 30.5899 35.4942 35.0341 38.4554C38.6727 40.8796 43.025 44.5617 47.2878 48.8245C51.5505 53.0873 55.2327 57.4396 57.6568 61.0782C60.618 65.5224 61.3148 68.2731 59.8511 69.7368C59.5656 70.0223 59.1931 70.1626 58.8229 70.1626Z" fill="#166DC2"/>
	<path d="M73.9288 71.7787C73.128 71.7787 72.4773 71.1279 72.4773 70.3271C72.4773 63.4491 68.4225 60.1758 65.021 58.6395C58.2398 55.5791 49.4457 57.0307 45.7925 60.2508C45.1901 60.7806 44.2732 60.7225 43.7434 60.1226C43.2136 59.5201 43.2716 58.6032 43.8716 58.0734C48.8191 53.7114 59.0502 52.7582 66.2137 55.9928C72.124 58.6613 75.3804 63.7515 75.3804 70.3271C75.3804 71.1279 74.7296 71.7787 73.9288 71.7787Z" fill="#FF8A00"/>
	<path d="M37.0016 54.3041C36.7572 54.3041 36.508 54.2412 36.2806 54.1106C35.5863 53.7114 35.3468 52.8235 35.746 52.1292C39.1862 46.1414 38.7386 33.5345 32.5912 25.0162C29.4727 20.6954 23.739 15.956 14.1248 17.9132C13.3385 18.0729 12.5716 17.5673 12.4119 16.781C12.2523 15.9947 12.7603 15.2278 13.5442 15.0681C22.2294 13.2996 29.8308 16.2294 34.9452 23.3155C41.1942 31.9741 42.7135 45.8318 38.262 53.5759C37.9935 54.0428 37.5048 54.3041 37.0016 54.3041Z" fill="#FF8A00"/>
	<path d="M58.8233 70.1626C58.4507 70.1626 58.0806 70.0223 57.7975 69.7368C57.2314 69.1707 57.229 68.2514 57.7975 67.6852L57.7999 67.6828C58.366 67.1167 59.2854 67.1167 59.8539 67.6828C60.42 68.2489 60.42 69.1683 59.8539 69.7368C59.5684 70.0199 59.1958 70.1626 58.8233 70.1626Z" fill="#166DC2"/>
	<path d="M27.3991 38.7361C27.0265 38.7361 26.6564 38.5958 26.3733 38.3103C25.8072 37.7442 25.8048 36.8249 26.3733 36.2588L26.3758 36.2564C26.9419 35.6903 27.8612 35.6903 28.4297 36.2564C28.9958 36.8225 28.9958 37.7418 28.4297 38.3103C28.1418 38.5958 27.7693 38.7361 27.3991 38.7361Z" fill="#166DC2"/>
	<path d="M20.0001 83L32.5001 49L27.0001 39.5L9.00012 84L10.0001 86.5L20.0001 83Z" fill="#E1F0FF"/>
	<path d="M59.8478 67.6853C59.3204 67.1579 58.4906 67.1216 57.922 67.574C57.9051 67.574 57.8882 67.5764 57.8712 67.5788C57.3463 67.5812 55.5632 67.0732 52.0069 64.5886C48.69 62.2733 44.7756 58.9105 40.9895 55.1219C37.2033 51.3333 33.8405 47.4213 31.5228 44.1045C29.0382 40.5433 28.5301 38.7651 28.5326 38.2377C28.535 38.2208 28.535 38.2063 28.5374 38.1893C28.9898 37.6208 28.9535 36.7886 28.4261 36.2636C27.86 35.6975 26.9407 35.6975 26.3721 36.2636C25.9681 36.6676 25.7359 37.1732 25.6633 37.7829L8.317 83.7372C7.87427 84.9082 8.15006 86.188 9.03552 87.0734C9.64276 87.6807 10.4315 88 11.2468 88C11.6217 88 12.0016 87.9323 12.3717 87.792L58.314 70.4554C58.9309 70.3852 59.4389 70.1481 59.8478 69.7392C60.4139 69.1707 60.4139 68.2514 59.8478 67.6853ZM11.3459 85.0751C11.3097 85.0896 11.1984 85.1307 11.0895 85.0195C10.9782 84.9082 11.0193 84.7993 11.0339 84.763L27.0253 42.3868C27.4439 43.1634 27.9543 44.0053 28.564 44.9222C30.9881 48.5608 34.6703 52.9131 38.9331 57.1759C43.1959 61.4387 47.5481 65.1208 51.1867 67.545C52.1012 68.1546 52.9432 68.6675 53.7173 69.086L11.3459 85.0751Z" fill="#166DC2"/>
	<path d="M56.2361 45.5658C55.8926 45.5658 55.5466 45.4448 55.2684 45.1956C54.6708 44.661 54.62 43.7441 55.1547 43.1465C56.8845 41.2111 59.3183 41.6901 61.094 42.0385C62.8528 42.3844 63.7456 42.4788 64.3117 41.8449C64.8778 41.2111 64.6842 40.3377 64.1447 38.6273C63.6004 36.8999 62.8528 34.5338 64.5826 32.6008C66.3124 30.6678 68.7462 31.1444 70.522 31.4952C72.2808 31.8412 73.1735 31.9355 73.7372 31.3017C74.2719 30.7041 75.1888 30.6533 75.7863 31.188C76.3839 31.7226 76.4347 32.6395 75.9001 33.2371C74.1703 35.1701 71.7365 34.6935 69.9607 34.3427C68.2019 33.9968 67.3092 33.9024 66.7455 34.5363C66.1794 35.1701 66.3729 36.0435 66.9124 37.7539C67.4567 39.4813 68.2043 41.8473 66.4745 43.7803C64.7447 45.7134 62.3109 45.2368 60.5352 44.8884C58.7763 44.5424 57.8836 44.4481 57.3199 45.0819C57.032 45.4013 56.6353 45.5658 56.2361 45.5658Z" fill="#FF8A00"/>
	<path d="M49.8731 35.7265C49.0941 35.7265 48.4482 35.1071 48.424 34.3209C48.3393 31.7274 50.432 30.3944 51.9585 29.4194C53.4706 28.4541 54.1795 27.9073 54.1528 27.0582C54.1262 26.209 53.3811 25.7106 51.811 24.8445C50.2239 23.9712 48.0514 22.776 47.9667 20.1826C47.882 17.5891 49.9747 16.2561 51.5013 15.2811C53.0134 14.3158 53.7222 13.769 53.6956 12.9223C53.669 12.1215 54.298 11.4514 55.0988 11.4247C55.8971 11.4006 56.5697 12.0272 56.5963 12.8279C56.681 15.4214 54.5883 16.7544 53.0617 17.7294C51.5497 18.6947 50.8408 19.2415 50.8674 20.0882C50.8941 20.9374 51.6392 21.4382 53.2093 22.3019C54.7964 23.1752 56.9689 24.3704 57.0536 26.9638C57.1382 29.5573 55.0456 30.8903 53.519 31.8653C52.0069 32.8306 51.2981 33.3774 51.3247 34.2265C51.3513 35.0273 50.7223 35.6975 49.9215 35.7241C49.9046 35.7241 49.8876 35.7265 49.8731 35.7265Z" fill="#FF8A00"/>
	<path d="M38.7964 14.8626C38.5448 14.8626 38.2883 14.7973 38.0561 14.6594C37.3666 14.2505 37.1416 13.3578 37.5504 12.6707L39.3117 9.70951C39.7205 9.02001 40.6133 8.79502 41.3003 9.20388C41.9898 9.61274 42.2148 10.5055 41.806 11.1925L40.0447 14.1537C39.7738 14.6086 39.2923 14.8626 38.7964 14.8626Z" fill="#166DC2"/>
	<path d="M69.6462 85.6896C69.155 85.6896 68.676 85.4404 68.4026 84.9904C67.9865 84.3057 68.2043 83.413 68.8913 82.9969L72.5928 80.7518C73.2775 80.3357 74.1702 80.5534 74.5863 81.2405C75.0024 81.9252 74.7847 82.8179 74.0976 83.234L70.3961 85.4791C70.1615 85.6218 69.9026 85.6896 69.6462 85.6896Z" fill="#166DC2"/>
	<path d="M84.1975 68.757C83.9459 68.757 83.6894 68.6917 83.4572 68.5538C82.7677 68.1449 82.5427 67.2522 82.9516 66.5651L84.7128 63.6039C85.1217 62.9144 86.012 62.6894 86.7015 63.0983C87.391 63.5071 87.6159 64.3999 87.2071 65.0869L85.4458 68.0481C85.1749 68.503 84.691 68.757 84.1975 68.757Z" fill="#FF8A00"/>
	<path d="M9.45048 53.8469C9.07791 53.8469 8.70776 53.7042 8.42471 53.4211C7.85859 52.855 7.85859 51.9357 8.42471 51.3672L10.8609 48.9309C11.427 48.3648 12.3464 48.3648 12.9149 48.9309C13.481 49.497 13.481 50.4164 12.9149 50.9849L10.4787 53.4211C10.1932 53.7042 9.82306 53.8469 9.45048 53.8469Z" fill="#FF8A00"/>
	<path d="M77.4878 18.131C77.1153 18.131 76.7451 17.9883 76.4621 17.7052L74.0258 15.2714C73.4597 14.7053 73.4597 13.786 74.0258 13.2174C74.592 12.6513 75.5113 12.6513 76.0798 13.2174L78.516 15.6537C79.0822 16.2198 79.0822 17.1391 78.516 17.7076C78.2306 17.9907 77.8604 18.131 77.4878 18.131Z" fill="#166DC2"/>
	<path d="M47.4452 85.6968C46.8621 85.6968 46.313 85.3436 46.0904 84.7678L44.8469 81.555C44.5566 80.8075 44.9291 79.9656 45.6767 79.6777C46.4243 79.3873 47.2662 79.7599 47.5541 80.5075L48.7976 83.7203C49.0879 84.4678 48.7153 85.3098 47.9678 85.5977C47.796 85.6654 47.6194 85.6968 47.4452 85.6968Z" fill="#FF8A00"/>
	<path d="M18.789 32.8839C18.4527 32.8839 18.1164 32.7678 17.8431 32.5331L15.2326 30.2856C14.6254 29.763 14.5552 28.8461 15.0802 28.2389C15.6028 27.6317 16.5197 27.5615 17.1269 28.0865L19.7374 30.334C20.3446 30.8566 20.4148 31.7735 19.8898 32.3807C19.6043 32.7146 19.1979 32.8839 18.789 32.8839Z" fill="#166DC2"/>
	<path d="M80.3008 49.2696C79.6669 49.2696 79.0839 48.8511 78.9048 48.2099L77.971 44.8931C77.7533 44.1213 78.2032 43.3206 78.975 43.1028C79.7468 42.8851 80.5475 43.3351 80.7653 44.1068L81.6991 47.4237C81.9168 48.1954 81.4669 48.9962 80.6951 49.2139C80.5645 49.2527 80.4314 49.2696 80.3008 49.2696Z" fill="#166DC2"/>
</svg>