<svg width="24" height="24" viewBox="0 0 24 24" fill="none" xmlns="http://www.w3.org/2000/svg">
<g clip-path="url(#clip0_2076_2752)">
<circle cx="12" cy="12" r="10" fill="#166DC2"/>
<path d="M14.6637 17.432C14.2042 17.432 13.7929 17.3883 13.4298 17.301C13.0713 17.2137 12.7543 17.0712 12.4785 16.8736L12.8301 15.0469C13.0736 15.2399 13.3609 15.4099 13.6918 15.557C14.0272 15.6994 14.3558 15.7707 14.6775 15.7707C14.8567 15.7707 15.0268 15.7454 15.1876 15.6948C15.3531 15.6397 15.4978 15.557 15.6219 15.4467C15.746 15.3364 15.8425 15.1962 15.9114 15.0262C15.985 14.8516 16.0217 14.6425 16.0217 14.3989C16.0217 14.2059 15.9964 14.0289 15.9459 13.8681C15.8999 13.7073 15.8103 13.5395 15.677 13.3649C15.5438 13.1903 15.3531 12.9858 15.1049 12.7514C14.8338 12.4986 14.6063 12.2482 14.4225 12C14.2386 11.7518 14.1008 11.4807 14.0088 11.1866C13.9215 10.8925 13.8779 10.5524 13.8779 10.1664C13.8779 9.72058 13.9445 9.30928 14.0778 8.93244C14.2156 8.5556 14.4179 8.22932 14.6844 7.95358C14.9509 7.67325 15.2795 7.45726 15.6702 7.3056C16.0654 7.14935 16.5203 7.07123 17.035 7.07123C17.3981 7.07123 17.7726 7.12638 18.1587 7.23667C18.5447 7.34696 18.8825 7.50781 19.172 7.71921L18.3655 9.31847C18.1127 9.13005 17.8645 8.98299 17.621 8.87729C17.382 8.767 17.1545 8.71185 16.9385 8.71185C16.7731 8.71185 16.6168 8.73943 16.4698 8.79457C16.3227 8.84513 16.194 8.92555 16.0838 9.03584C15.9735 9.14154 15.8861 9.27481 15.8218 9.43566C15.7575 9.59191 15.7253 9.77343 15.7253 9.98024C15.7253 10.1733 15.7575 10.3525 15.8218 10.5179C15.8861 10.6834 15.9941 10.8557 16.1458 11.0349C16.2975 11.2096 16.502 11.4141 16.7593 11.6484C17.0259 11.8828 17.2418 12.1264 17.4073 12.3791C17.5773 12.6273 17.7014 12.9007 17.7795 13.1994C17.8577 13.4936 17.8967 13.8267 17.8967 14.199C17.8967 14.6356 17.8278 15.0492 17.6899 15.4398C17.5566 15.8304 17.3544 16.1751 17.0833 16.4738C16.8168 16.7725 16.4813 17.0069 16.0769 17.1769C15.6725 17.347 15.2014 17.432 14.6637 17.432Z" fill="white"/>
<path d="M5.50195 17.2941L7.63201 7.21599H9.6242C10.5847 7.21599 11.3154 7.48483 11.8163 8.02251C12.3218 8.5556 12.5746 9.31617 12.5746 10.3042C12.5746 10.9246 12.5148 11.5634 12.3953 12.2206C12.2804 12.8732 12.0989 13.5028 11.8508 14.1094C11.6026 14.7114 11.2855 15.2537 10.8995 15.7362C10.5134 16.2142 10.0493 16.5933 9.50701 16.8736C8.96932 17.1539 8.34892 17.2941 7.6458 17.2941H5.50195ZM7.59065 15.7155H7.90085C8.30526 15.7155 8.66142 15.5983 8.96932 15.364C9.27723 15.1296 9.54148 14.8194 9.76206 14.4334C9.98265 14.0427 10.1619 13.6153 10.2997 13.1512C10.4422 12.687 10.5456 12.2229 10.6099 11.7587C10.6789 11.29 10.7134 10.8626 10.7134 10.4766C10.7134 9.88832 10.6077 9.45864 10.3963 9.1875C10.1849 8.91636 9.87006 8.78079 9.45186 8.78079H9.05894L7.59065 15.7155Z" fill="white"/>
</g>
<defs>
<clipPath id="clip0_2076_2752">
<rect width="20" height="20" fill="white" transform="translate(2 2)"/>
</clipPath>
</defs>
</svg>
