<svg width="24" height="24" viewBox="0 0 24 24" fill="none" xmlns="http://www.w3.org/2000/svg">
<circle cx="12" cy="12" r="10" fill="#A21CAF"/>
<path d="M10.7617 15.7188H6.77246L8.28125 8.58008H12.2754L12.0117 9.82031H9.51172L9.18457 11.3877H11.5137L11.2451 12.6279H8.91602L8.52539 14.4688H11.0254L10.7617 15.7188ZM16.8027 13.6094C16.8027 14.2897 16.5618 14.8285 16.0801 15.2256C15.5983 15.6195 14.9456 15.8164 14.1221 15.8164C13.4027 15.8164 12.8232 15.6699 12.3838 15.377V14.0391C13.012 14.3906 13.5947 14.5664 14.1318 14.5664C14.4964 14.5664 14.7812 14.498 14.9863 14.3613C15.1914 14.2214 15.2939 14.0309 15.2939 13.79C15.2939 13.6501 15.2712 13.528 15.2256 13.4238C15.1833 13.3164 15.1214 13.2171 15.04 13.126C14.9587 13.0348 14.7568 12.8688 14.4346 12.6279C13.9854 12.3057 13.6696 11.9867 13.4873 11.6709C13.305 11.3551 13.2139 11.015 13.2139 10.6504C13.2139 10.2305 13.3148 9.85612 13.5166 9.52734C13.7184 9.19531 14.0049 8.93815 14.376 8.75586C14.7503 8.57031 15.18 8.47754 15.665 8.47754C16.3714 8.47754 17.0176 8.63867 17.6035 8.96094L17.0713 10.0986C16.5635 9.85775 16.0947 9.7373 15.665 9.7373C15.3949 9.7373 15.1735 9.81055 15.001 9.95703C14.8285 10.1035 14.7422 10.2972 14.7422 10.5381C14.7422 10.7367 14.7959 10.9108 14.9033 11.0605C15.0107 11.207 15.2516 11.4023 15.626 11.6465C16.0199 11.9069 16.3145 12.195 16.5098 12.5107C16.7051 12.8232 16.8027 13.1895 16.8027 13.6094Z" fill="white"/>
</svg>
