<svg width="24" height="24" viewBox="0 0 24 24" fill="none" xmlns="http://www.w3.org/2000/svg">
<g clip-path="url(#clip0_2076_2758)">
<circle cx="12" cy="12" r="10" fill="#166DC2"/>
<path d="M14.6493 15.6842L16.5202 12.7288L15.9085 9.94819H17.2706L17.5224 11.6443L18.4784 9.94819H19.8919L18.0878 12.7699L18.7303 15.6842H17.3734L17.0804 13.8544L16.0267 15.6842H14.6493Z" fill="white"/>
<path d="M12.5343 15.787C12.1848 15.787 11.8833 15.715 11.6297 15.5711C11.3762 15.4238 11.1809 15.2131 11.0438 14.9389C10.9067 14.6614 10.8382 14.3307 10.8382 13.947C10.8382 13.4398 10.8965 12.943 11.013 12.4564C11.1295 11.9698 11.3008 11.5312 11.5269 11.1406C11.7531 10.7466 12.0341 10.433 12.3699 10.2C12.7091 9.96704 13.0997 9.85053 13.5417 9.85053C13.9632 9.85053 14.3042 9.96875 14.5646 10.2052C14.825 10.4416 14.9552 10.7706 14.9552 11.192C14.9552 11.5244 14.8918 11.8191 14.765 12.0761C14.6382 12.3296 14.4549 12.5421 14.2151 12.7134C13.9752 12.8847 13.6874 13.0149 13.3516 13.104C13.0192 13.1897 12.644 13.2325 12.226 13.2325H12.1437C12.1232 13.3285 12.1077 13.4261 12.0975 13.5255C12.0872 13.6214 12.082 13.7157 12.082 13.8082C12.082 14.1474 12.1454 14.3907 12.2722 14.538C12.399 14.6854 12.5875 14.759 12.8376 14.759C13.0603 14.759 13.2642 14.7316 13.4492 14.6768C13.6343 14.6186 13.8518 14.5192 14.102 14.3787V15.3604C13.8518 15.5214 13.5966 15.6328 13.3362 15.6945C13.0792 15.7562 12.8119 15.787 12.5343 15.787ZM12.3236 12.3176H12.3545C12.7142 12.3176 12.9969 12.2748 13.2025 12.1891C13.4115 12.1001 13.5606 11.9784 13.6497 11.8242C13.7388 11.67 13.7833 11.497 13.7833 11.3051C13.7833 11.168 13.7473 11.0584 13.6754 10.9761C13.6069 10.8939 13.5041 10.8528 13.367 10.8528C13.2265 10.8528 13.0912 10.911 12.961 11.0275C12.8307 11.1441 12.7108 11.312 12.6012 11.5312C12.4949 11.7471 12.4024 12.0093 12.3236 12.3176Z" fill="white"/>
<path d="M8.10651 15.6842L9.80778 7.68668H11.0722L9.36576 15.6842H8.10651Z" fill="white"/>
<path d="M4.08472 15.6842L5.67292 8.16982H8.74652L8.51523 9.31599H6.74713L6.28455 11.485H7.92415L7.6723 12.6312H6.04298L5.40051 15.6842H4.08472Z" fill="white"/>
</g>
<defs>
<clipPath id="clip0_2076_2758">
<rect width="20" height="20" fill="white" transform="translate(2 2)"/>
</clipPath>
</defs>
</svg>
