<svg width="325" height="258" viewBox="0 0 325 258" fill="none" xmlns="http://www.w3.org/2000/svg">
<path d="M97 57.555C97 52.9341 93.177 49.2692 88.3982 49.2692C87.9204 49.2692 87.4425 49.2692 86.9646 49.4286C85.531 44.967 81.2301 41.7802 76.1328 41.7802C75.4956 41.7802 74.8584 41.7802 74.2212 41.9396C72.1504 38.9121 68.646 37 64.6637 37C58.4513 37 53.354 41.9396 53.354 47.9945C53.354 48.6319 53.354 49.1099 53.5133 49.7473C52.8761 49.5879 52.2389 49.4286 51.6018 49.4286C46.823 49.4286 43 53.0934 43 57.7143C43 62.3352 46.823 66 51.6018 66C51.9203 66 52.2389 66 52.3982 65.8407H87.4425C87.7611 65.8407 88.0796 66 88.2389 66C88.5575 66 88.8761 66 89.0354 65.8407H89.354C93.8142 65.2033 97 61.6978 97 57.555Z" fill="#B8DCFF"/>
<path d="M295 62.5659C295 54.1209 288.062 47.4231 279.389 47.4231C278.522 47.4231 277.655 47.4231 276.788 47.7143C274.186 39.5605 266.381 33.7363 257.13 33.7363C255.973 33.7363 254.817 33.7363 253.661 34.0275C249.903 28.4945 243.543 25 236.316 25C225.041 25 215.791 34.0275 215.791 45.0934C215.791 46.2582 215.791 47.1319 216.08 48.2967C214.923 48.0055 213.767 47.7143 212.611 47.7143C203.938 47.7143 197 54.4121 197 62.8571C197 71.3022 203.938 78 212.611 78C213.189 78 213.767 78 214.056 77.7088H277.655C278.233 77.7088 278.811 78 279.1 78C279.678 78 280.257 78 280.546 77.7088H281.124C289.218 76.544 295 70.1374 295 62.5659Z" fill="#B8DCFF"/>
<path fill-rule="evenodd" clip-rule="evenodd" d="M237.811 52.4021C252.397 67.0754 251.063 90.376 256.471 110.389C261.921 130.562 273.252 149.735 269.689 170.388C265.898 192.364 253.924 213.155 236.359 226.963C218.971 240.631 196.154 243.947 174.16 245.484C153.039 246.96 131.987 244.436 112.818 235.596C93.3933 226.638 76.3498 213.064 64.812 195.056C53.09 176.76 46.7346 155.304 47.4109 133.508C48.0863 111.742 57.1839 91.5957 68.6001 72.9815C80.4712 53.6256 93.0229 32.0795 114.348 24.3663C135.417 16.7454 157.669 27.9496 179.435 32.8922C199.868 37.5319 223.065 37.5673 237.811 52.4021Z" fill="white"/>
<path d="M208.357 119.54C207.938 142.785 203.796 159.847 196.001 170.912C188.171 181.884 176.326 187.316 160.49 186.987C145.192 186.668 133.662 180.759 126.147 169.059C118.538 157.394 114.99 140.349 115.376 117.864C115.817 94.3967 119.889 77.1479 127.719 66.1762C135.549 55.2045 147.3 49.8073 163.043 50.1718C178.435 50.4551 189.906 56.4935 197.55 68.2517C205.195 80.0098 208.777 97.1487 208.357 119.54Z" fill="white" stroke="#80C0FF" stroke-width="4" stroke-miterlimit="10"/>
<path d="M89.3269 169.698L82.5146 169.985C81.3121 170.047 80.481 171.021 80.5433 172.224L81.2811 186.954C81.3433 188.157 80.4124 189.128 79.3098 189.193L64.5793 189.931C63.3768 189.993 62.4055 189.062 62.3401 187.96L61.6024 173.229C61.5401 172.027 60.5657 171.196 59.3632 171.258L24.4924 172.964C23.4961 172.833 22.5217 172.002 22.4594 170.799L21.8959 160.076C21.9084 159.676 22.021 159.28 22.2334 158.886L58.5196 99.3962C58.8383 98.8059 59.5505 98.4281 60.2533 98.3501L74.8838 97.6093C76.0863 97.547 77.0576 98.478 77.123 99.5806L79.6502 152.886C79.7124 154.089 80.6868 154.92 81.8894 154.857L88.7017 154.571C89.9043 154.509 90.8755 155.44 90.9409 156.543L91.5013 167.366C91.4605 168.665 90.5295 169.636 89.3269 169.698ZM60.8432 155.997L60.1306 140.467C60.0123 137.862 59.9286 134.158 59.8857 129.154C59.8397 124.25 59.9308 121.351 59.9559 120.552L59.4562 120.536C58.0469 123.994 56.3378 127.442 54.3319 130.78L38.8038 156.905L60.8432 155.997Z" fill="#166DC2"/>
<path d="M124.5 196.334C136.374 196.334 146 194.752 146 192.8C146 190.848 136.374 189.266 124.5 189.266C112.626 189.266 103 190.848 103 192.8C103 194.752 112.626 196.334 124.5 196.334Z" fill="#E1F0FF"/>
<path d="M278.936 123.462C278.338 129.53 275.992 134.508 271.897 138.398C267.84 142.252 262.454 144.658 255.741 145.616C255.631 145.632 255.546 145.72 255.535 145.831C255.523 145.951 255.604 146.061 255.721 146.089C263.359 147.841 268.989 150.802 272.612 154.971C276.271 159.132 277.785 164.424 277.152 170.846C276.232 180.192 272.125 187.144 264.834 191.702C257.547 196.217 247.614 197.854 235.036 196.615C225.529 195.678 217.135 193.415 209.854 189.824C208.419 189.116 207.619 187.573 207.775 185.982L208.601 177.607C208.893 174.639 212.237 172.993 214.913 174.307C216.907 175.286 219.004 176.186 221.204 177.006C225.604 178.647 230.018 179.686 234.447 180.122C241.224 180.79 246.342 180.131 249.802 178.147C253.262 176.162 255.243 172.623 255.745 167.53C256.194 162.968 254.653 159.551 251.12 157.28C247.587 155.009 241.746 153.472 233.596 152.67L230.203 152.335C228.004 152.119 226.398 150.161 226.614 147.962L227.381 140.179C227.598 137.98 229.556 136.373 231.754 136.59L235.281 136.937C242.81 137.679 248.398 137.246 252.045 135.637C255.74 133.989 257.823 130.773 258.294 125.99C259.019 118.638 254.775 114.508 245.562 113.6C242.373 113.286 239.066 113.497 235.639 114.232C233.218 114.762 230.564 115.67 227.679 116.956C225.684 117.846 223.305 117.123 222.271 115.199L217.86 106.99C216.838 105.089 217.503 102.703 219.448 101.769C228.104 97.614 237.841 96.0693 248.66 97.1351C258.714 98.1256 266.441 100.944 271.842 105.59C277.287 110.241 279.652 116.198 278.936 123.462Z" fill="#166DC2"/>
<ellipse cx="125" cy="121.5" rx="3" ry="3.5" fill="#80C0FF"/>
<ellipse cx="265.701" cy="110.339" rx="9" ry="4" transform="rotate(33.8962 265.701 110.339)" fill="#80C0FF"/>
<path fill-rule="evenodd" clip-rule="evenodd" d="M112.949 138.394L129.926 139.12L144.381 138.708C144.375 138.544 144.377 138.382 144.379 138.22C144.38 138.058 144.382 137.896 144.376 137.732C144.123 129.091 136.878 122.236 128.207 122.48C119.651 122.73 112.845 129.836 112.949 138.394ZM148.279 138.586C149.26 138.572 150.123 139.153 150.511 140L153.281 140.119C154.583 140.195 155.602 141.303 155.556 142.615L154.877 158.049C154.452 168.127 145.846 175.999 135.769 175.574L129.831 175.313L123.243 175.498C113.458 175.777 105.192 167.974 104.913 158.189L104.449 142.25C104.431 140.946 105.464 139.85 106.775 139.802L109.361 139.728C109.318 139.392 109.306 139.064 109.294 138.736L109.294 138.736C108.963 128.028 117.436 119.06 128.136 118.759C138.843 118.427 147.812 126.901 148.113 137.6C148.125 137.928 148.137 138.256 148.119 138.576L148.279 138.586Z" fill="#07233F" fill-opacity="0.1"/>
<path d="M149.246 160.164L152.266 145.013C152.511 143.723 151.673 142.473 150.398 142.2L109.639 134.125C108.349 133.88 107.099 134.718 106.826 135.993L103.727 151.635C101.82 161.236 108.14 170.685 117.741 172.592L127.692 174.576C137.587 176.53 147.291 170.06 149.246 160.164Z" fill="#E17C02"/>
<path d="M145.448 159.36L148.469 144.208C148.714 142.919 147.876 141.668 146.601 141.395L146.447 141.351C146.536 141.043 146.597 140.72 146.658 140.398C148.749 129.9 141.893 119.642 131.381 117.579C120.883 115.489 110.625 122.345 108.562 132.857C108.501 133.179 108.44 133.502 108.406 133.839L105.869 133.335C104.58 133.09 103.329 133.928 103.056 135.203L99.9576 150.845C98.0501 160.446 104.37 169.895 113.971 171.802L123.922 173.786C133.775 175.753 143.479 169.283 145.448 159.36ZM112.15 133.588C113.844 125.08 122.141 119.544 130.621 121.223C139.128 122.917 144.665 131.214 142.986 139.694C142.924 140.016 142.835 140.324 142.774 140.647L111.981 134.527C112.027 134.233 112.089 133.91 112.15 133.588Z" fill="#FF8A00"/>
<ellipse cx="129" cy="122" rx="6" ry="7" fill="#166DC2"/>
<path d="M203 219.06C203 229.239 199.548 236.774 192.644 241.664C185.795 246.555 175.219 249 160.918 249C147.055 249 136.589 246.475 129.521 241.425C122.507 236.375 119 228.92 119 219.06C119 208.774 122.425 201.199 129.274 196.336C136.123 191.445 146.671 189 160.918 189C174.781 189 185.247 191.551 192.315 196.654C199.438 201.757 203 209.226 203 219.06ZM144.233 219.06C144.233 226.209 145.493 231.339 148.014 234.449C150.589 237.532 154.89 239.073 160.918 239.073C166.836 239.073 171.11 237.505 173.74 234.369C176.37 231.233 177.685 226.13 177.685 219.06C177.685 211.91 176.342 206.781 173.658 203.671C171.027 200.535 166.781 198.967 160.918 198.967C154.945 198.967 150.671 200.535 148.096 203.671C145.521 206.781 144.233 211.91 144.233 219.06Z" fill="#07233F" fill-opacity="0.05"/>
<path d="M176 79L145 119" stroke="#80C0FF" stroke-width="4" stroke-miterlimit="10" stroke-linecap="round"/>
<path d="M176 92L159 114" stroke="#80C0FF" stroke-width="4" stroke-miterlimit="10" stroke-linecap="round"/>
<path fill-rule="evenodd" clip-rule="evenodd" d="M123.976 155.785C123.867 156.421 123.262 156.849 122.626 156.74C121.989 156.631 121.562 156.026 121.671 155.39L122.462 150.779C122.571 150.143 123.176 149.715 123.812 149.824C124.448 149.933 124.876 150.538 124.767 151.175L123.976 155.785ZM122.033 160.198C121.396 160.089 120.969 159.484 121.078 158.848C121.187 158.211 121.792 157.784 122.428 157.893C123.064 158.002 123.492 158.607 123.383 159.243C123.274 159.879 122.669 160.307 122.033 160.198ZM134.343 161.483L128.015 145.306C127.521 144.044 126.393 143.148 124.998 142.909C123.604 142.669 122.242 143.138 121.355 144.163L109.997 157.306C109.156 158.281 108.913 159.585 109.346 160.793C109.81 162.092 110.981 163.048 112.399 163.291L130.085 166.325C131.502 166.569 132.925 166.057 133.795 164.987C134.607 163.992 134.811 162.682 134.343 161.483Z" fill="#FFDCB2"/>
</svg>
