<svg width="300" height="300" viewBox="0 0 325 258" fill="none" xmlns="http://www.w3.org/2000/svg">
<path d="M83 204.555C83 199.934 79.177 196.269 74.3982 196.269C73.9204 196.269 73.4425 196.269 72.9646 196.429C71.531 191.967 67.2301 188.78 62.1328 188.78C61.4956 188.78 60.8584 188.78 60.2212 188.94C58.1504 185.912 54.646 184 50.6637 184C44.4513 184 39.354 188.94 39.354 194.995C39.354 195.632 39.354 196.11 39.5133 196.747C38.8761 196.588 38.2389 196.429 37.6018 196.429C32.823 196.429 29 200.093 29 204.714C29 209.335 32.823 213 37.6018 213C37.9203 213 38.2389 213 38.3982 212.841H73.4425C73.7611 212.841 74.0796 213 74.2389 213C74.5575 213 74.8761 213 75.0354 212.841H75.354C79.8142 212.203 83 208.698 83 204.555Z" fill="#B8DCFF"/>
<path d="M301 52.0604C301 45.5275 295.69 40.3461 289.053 40.3461C288.389 40.3461 287.726 40.3462 287.062 40.5714C285.071 34.2637 279.097 29.7582 272.018 29.7582C271.133 29.7582 270.248 29.7582 269.363 29.9835C266.487 25.7033 261.619 23 256.088 23C247.46 23 240.381 29.9835 240.381 38.544C240.381 39.4451 240.381 40.1209 240.602 41.022C239.717 40.7967 238.832 40.5714 237.947 40.5714C231.31 40.5714 226 45.7528 226 52.2857C226 58.8187 231.31 64 237.947 64C238.389 64 238.832 64 239.053 63.7747H287.726C288.168 63.7747 288.611 64 288.832 64C289.274 64 289.717 64 289.938 63.7747H290.381C296.575 62.8736 301 57.9176 301 52.0604Z" fill="#B8DCFF"/>
<path d="M282 98.9231C282 96.6923 283.841 94.9231 286.142 94.9231C286.372 94.9231 286.602 94.9231 286.832 95C287.522 92.8462 289.593 91.3077 292.047 91.3077C292.354 91.3077 292.661 91.3077 292.968 91.3846C293.965 89.9231 295.652 89 297.569 89C300.56 89 303.015 91.3846 303.015 94.3077C303.015 94.6154 303.015 94.8462 302.938 95.1538C303.245 95.0769 303.552 95 303.858 95C306.159 95 308 96.7692 308 99C308 101.231 306.159 103 303.858 103C303.705 103 303.552 103 303.475 102.923H286.602C286.448 102.923 286.295 103 286.218 103C286.065 103 285.912 103 285.835 102.923H285.681C283.534 102.615 282 100.923 282 98.9231Z" fill="#B8DCFF"/>
<path fill-rule="evenodd" clip-rule="evenodd" d="M237.811 55.4021C252.397 70.0754 251.063 93.376 256.471 113.389C261.921 133.562 273.252 152.735 269.689 173.388C265.898 195.364 253.924 216.155 236.359 229.963C218.971 243.631 196.154 246.947 174.16 248.484C153.039 249.96 131.987 247.436 112.818 238.596C93.3933 229.638 76.3498 216.064 64.812 198.056C53.09 179.76 46.7346 158.304 47.4109 136.508C48.0863 114.742 57.1839 94.5957 68.6001 75.9815C80.4712 56.6256 93.0229 35.0795 114.348 27.3663C135.417 19.7454 157.669 30.9496 179.435 35.8922C199.868 40.5319 223.065 40.5673 237.811 55.4021Z" fill="white"/>
<path d="M70.0985 186.633C67.4324 188.174 67.4341 192.023 70.1016 193.561L159.201 244.948C160.438 245.661 161.961 245.661 163.198 244.948L236.697 202.562C239.364 201.023 239.366 197.174 236.699 195.633L147.601 144.156C146.363 143.441 144.837 143.441 143.598 144.157L70.0985 186.633Z" fill="#ECF6FF"/>
<path d="M236.298 193.9L162.498 236.5L79.498 188.5L153.198 145.9L236.298 193.9Z" fill="#1C8AF5"/>
<path opacity="0.5" d="M236.298 193.9L162.498 236.5L79.498 188.5L153.198 145.9L236.298 193.9Z" fill="#0C3C6B"/>
<path d="M153.198 88.1001V145.9L79.498 188.5V130.7L153.198 88.1001Z" fill="#1C8AF5"/>
<path opacity="0.23" d="M153.198 88.1001V145.9L79.498 188.5V130.7L153.198 88.1001Z" fill="#0C3C6B"/>
<path d="M162.498 178.8V236.5L79.498 188.5V130.7L162.498 178.8Z" fill="#1C8AF5"/>
<path opacity="0.38" d="M162.498 178.8V236.5L80.4968 189.078C79.8787 188.72 79.498 188.06 79.498 187.346V130.7L162.498 178.8Z" fill="#0C3C6B"/>
<path d="M236.297 136.2V193.9L153.197 145.9V88.1001L236.297 136.2Z" fill="#1C8AF5"/>
<path opacity="0.4" d="M236.297 136.2V193.9L153.197 145.9V88.1001L236.297 136.2Z" fill="#0C3C6B"/>
<path d="M234.298 195.055C235.536 194.34 236.298 193.02 236.298 191.591V136.2L162.498 178.8V236.5L234.298 195.055Z" fill="#115596"/>
<path d="M153.197 88.1L174.515 63.7392C175.145 63.0194 176.197 62.8464 177.024 63.3264L256.408 109.386C257.494 110.016 257.738 111.479 256.915 112.427L236.297 136.2L153.197 88.1Z" fill="#1C8AF5"/>
<path d="M80.828 129.932C80.044 130.385 79.0533 130.255 78.4129 129.614L65.2405 116.442C64.3109 115.512 64.5157 113.954 65.6539 113.296L135.769 72.7684C136.553 72.3152 137.544 72.4454 138.184 73.0857L151.357 86.2579C152.286 87.1875 152.081 88.7458 150.943 89.4037L80.828 129.932Z" fill="#1C8AF5"/>
<path d="M79.498 130.7L63.3982 130.769C61.3567 130.777 60.6385 133.479 62.4063 134.501L138.636 178.532C138.94 178.708 139.285 178.8 139.636 178.8H162.498L79.498 130.7Z" fill="#1C8AF5"/>
<path d="M162.498 178.8L185.062 178.8C185.413 178.8 185.758 178.708 186.062 178.532L255.577 138.402C256.455 137.895 256.109 136.554 255.095 136.536L236.298 136.2L162.498 178.8Z" fill="#1C8AF5"/>
<ellipse cx="98.5996" cy="169.5" rx="1.5" ry="3.5" fill="white"/>
<ellipse cx="130.6" cy="184.5" rx="1.5" ry="3.5" fill="white"/>
<path d="M95.5 184C99 194.5 111 204 128.5 200.5" stroke="white" stroke-width="2" stroke-miterlimit="10" stroke-linecap="round"/>
<path d="M78.9036 77.7607C74.9732 76.5558 68.9965 78.4738 70.337 81.139C71.775 83.8264 77.668 81.3763 77.668 81.3763C77.668 81.3763 76.1346 85.8472 77.6807 86.713C79.2268 87.5788 82.4483 83.8009 81.4141 80.6928C81.4141 80.6928 83.7041 82.3439 86.4222 81.2206C89.1403 80.0973 87.1036 77.7861 83.6246 77.2997C83.6246 77.2997 87.7447 70.0344 82.6338 70.4063C80.2579 70.4794 78.7351 73.1064 78.9036 77.7607Z" fill="#1C8AF5"/>
<path opacity="0.65" d="M78.9036 77.7607C74.9732 76.5558 68.9965 78.4738 70.337 81.139C71.775 83.8264 77.668 81.3763 77.668 81.3763C77.668 81.3763 76.1346 85.8472 77.6807 86.713C79.2268 87.5788 82.4483 83.8009 81.4141 80.6928C81.4141 80.6928 83.7041 82.3439 86.4222 81.2206C89.1403 80.0973 87.1036 77.7861 83.6246 77.2997C83.6246 77.2997 87.7447 70.0344 82.6338 70.4063C80.2579 70.4794 78.7351 73.1064 78.9036 77.7607Z" fill="#166DC2"/>
<path d="M82.2293 80.2635C82.0788 80.024 81.8308 79.7622 81.6804 79.5227C81.3572 79.1413 81.1092 78.8795 80.786 78.498C80.538 78.2363 80.2148 77.8548 79.8693 77.5708C79.6966 77.4288 79.5239 77.2868 79.2537 77.1225C79.0057 76.8608 78.7132 76.794 78.3232 76.705C77.9333 76.616 77.5518 76.9392 77.7552 77.3959C77.9587 77.8527 78.3264 78.0392 78.6719 78.3232C78.8446 78.4652 79.0173 78.6072 79.0926 78.7269C79.438 79.0109 79.6638 79.3701 79.9117 79.6319C80.1374 79.9911 80.4829 80.2751 80.7309 80.5369C81.1293 81.0381 81.6253 81.5616 82.1657 81.8901C82.2632 81.9124 82.2632 81.9124 82.3607 81.9346C82.9372 81.6559 82.455 80.6227 82.2293 80.2635Z" fill="#FF8A00"/>
<path d="M226.745 108.761C230.675 107.556 236.652 109.474 235.311 112.139C233.873 114.826 227.98 112.376 227.98 112.376C227.98 112.376 229.514 116.847 227.968 117.713C226.422 118.579 223.2 114.801 224.234 111.693C224.234 111.693 221.944 113.344 219.226 112.221C216.508 111.097 218.545 108.786 222.024 108.3C222.024 108.3 217.904 101.034 223.015 101.406C225.391 101.479 226.913 104.106 226.745 108.761Z" fill="white"/>
<path opacity="0.65" d="M226.745 108.761C230.675 107.556 236.652 109.474 235.311 112.139C233.873 114.826 227.98 112.376 227.98 112.376C227.98 112.376 229.514 116.847 227.968 117.713C226.422 118.579 223.2 114.801 224.234 111.693C224.234 111.693 221.944 113.344 219.226 112.221C216.508 111.097 218.545 108.786 222.024 108.3C222.024 108.3 217.904 101.034 223.015 101.406C225.391 101.479 226.913 104.106 226.745 108.761Z" fill="white"/>
<path d="M223.419 111.263C223.57 111.024 223.818 110.762 223.968 110.523C224.291 110.141 224.539 109.88 224.862 109.498C225.11 109.236 225.434 108.855 225.779 108.571C225.952 108.429 226.125 108.287 226.395 108.123C226.643 107.861 226.935 107.794 227.325 107.705C227.715 107.616 228.097 107.939 227.893 108.396C227.69 108.853 227.322 109.039 226.977 109.323C226.804 109.465 226.631 109.607 226.556 109.727C226.21 110.011 225.985 110.37 225.737 110.632C225.511 110.991 225.166 111.275 224.918 111.537C224.519 112.038 224.023 112.562 223.483 112.89C223.385 112.912 223.385 112.912 223.288 112.935C222.711 112.656 223.193 111.623 223.419 111.263Z" fill="#FF8A00"/>
<path d="M164.612 19.9289C167.303 19.1039 171.395 20.4172 170.477 22.2419C169.492 24.0819 165.458 22.4044 165.458 22.4044C165.458 22.4044 166.508 25.4655 165.449 26.0582C164.39 26.651 162.185 24.0645 162.893 21.9365C162.893 21.9365 161.325 23.0668 159.464 22.2978C157.603 21.5287 158.998 19.9463 161.379 19.6133C161.379 19.6133 158.559 14.639 162.058 14.8936C163.685 14.9437 164.727 16.7423 164.612 19.9289Z" fill="white"/>
<path opacity="0.65" d="M164.612 19.9289C167.303 19.1039 171.395 20.4172 170.477 22.2419C169.492 24.0819 165.458 22.4044 165.458 22.4044C165.458 22.4044 166.508 25.4655 165.449 26.0582C164.39 26.651 162.185 24.0645 162.893 21.9365C162.893 21.9365 161.325 23.0668 159.464 22.2978C157.603 21.5287 158.998 19.9463 161.379 19.6133C161.379 19.6133 158.559 14.639 162.058 14.8936C163.685 14.9437 164.727 16.7423 164.612 19.9289Z" fill="white"/>
<path d="M162.335 21.6428C162.438 21.4789 162.608 21.2997 162.711 21.1357C162.932 20.8745 163.102 20.6953 163.323 20.4341C163.493 20.2549 163.714 19.9937 163.951 19.7992C164.069 19.702 164.187 19.6048 164.372 19.4923C164.542 19.3131 164.742 19.2674 165.009 19.2065C165.276 19.1455 165.537 19.3668 165.398 19.6795C165.259 19.9922 165.007 20.1199 164.77 20.3144C164.652 20.4116 164.534 20.5088 164.482 20.5908C164.246 20.7852 164.091 21.0312 163.921 21.2104C163.767 21.4564 163.53 21.6508 163.361 21.83C163.088 22.1732 162.748 22.5316 162.378 22.7565C162.312 22.7718 162.312 22.7718 162.245 22.787C161.85 22.5962 162.18 21.8888 162.335 21.6428Z" fill="#FF8A00"/>
<path d="M103.402 48.0347L124.367 61.5252" stroke="#FF8A00" stroke-width="4" stroke-miterlimit="10" stroke-linecap="round" stroke-linejoin="round"/>
<path d="M132.6 22.8789L147.291 50.6006" stroke="#FF8A00" stroke-width="4" stroke-miterlimit="10" stroke-linecap="round" stroke-linejoin="round"/>
<path d="M180.474 16.6941L170.932 47.2556" stroke="#FF8A00" stroke-width="4" stroke-miterlimit="10" stroke-linecap="round" stroke-linejoin="round"/>
<path d="M217.076 45.5316L196.646 60.9915" stroke="#FF8A00" stroke-width="4" stroke-miterlimit="10" stroke-linecap="round" stroke-linejoin="round"/>
</svg>
