<svg width="361" height="226" viewBox="0 0 361 226" fill="none" xmlns="http://www.w3.org/2000/svg">
    <mask id="mask0_148_6087" style="mask-type:alpha" maskUnits="userSpaceOnUse" x="23" y="0"
        width="308" height="226">
        <rect x="23.3662" width="307" height="226" fill="#C4C4C4" />
    </mask>
    <g mask="url(#mask0_148_6087)">
        <path fill-rule="evenodd" clip-rule="evenodd"
            d="M259.458 48.0901C274.044 59.3314 272.71 77.182 278.117 92.5143C283.567 107.969 294.899 122.657 291.336 138.479C287.544 155.315 275.571 171.243 258.006 181.821C240.618 192.293 217.8 194.833 195.807 196.01C174.686 197.141 153.633 195.207 134.465 188.435C115.04 181.572 97.9963 171.174 86.4585 157.378C74.7365 143.361 68.381 126.923 69.0574 110.225C69.7328 93.5503 78.8304 78.1164 90.2466 63.856C102.118 49.0274 114.669 32.5209 135.994 26.6118C157.064 20.7735 179.316 29.357 201.082 33.1436C221.514 36.698 244.711 36.7251 259.458 48.0901Z"
            fill="white" />
    </g>
    <path
        d="M39.6509 60.5414C40.3783 62.0148 40.8407 63.6519 41.2115 65.4373C41.2115 65.4373 42.8044 73.7928 28.9823 85.3571C12.8471 98.8088 36.5265 123.64 66.1963 116.383"
        stroke="#166DC2" stroke-width="1.5" stroke-miterlimit="10" stroke-linecap="round"
        stroke-linejoin="round" />
    <path
        d="M41.3993 54.3328C42.9085 56.3302 44.1273 58.5987 44.9643 61.2863C44.9643 61.2863 50.6669 73.3285 33.3994 87.0222C20.6002 97.1302 36.6354 116.705 65.5341 111.756"
        stroke="#166DC2" stroke-width="1.5" stroke-miterlimit="10" stroke-linecap="round"
        stroke-linejoin="round" />
    <path
        d="M76.8281 107.065L68.4919 108.096C66.6247 108.335 65.3114 110.062 65.5497 111.929L66.0011 115.771C66.2081 117.291 67.6391 118.421 69.1184 118.148L78.0823 117.095L76.8281 107.065Z"
        stroke="#166DC2" stroke-width="1.5" stroke-miterlimit="10" stroke-linecap="round"
        stroke-linejoin="round" />
    <path
        d="M91.413 96.586L79.1123 97.8701C77.286 98.1746 75.9728 99.902 76.1701 101.703L78.782 122.523C78.989 124.043 80.42 125.173 81.8993 124.9L94.547 123.585L91.413 96.586Z"
        stroke="#166DC2" stroke-width="1.5" stroke-miterlimit="10" stroke-linecap="round"
        stroke-linejoin="round" />
    <path d="M83.4121 104.827L84.8718 118.301" stroke="#FFA133" stroke-width="1.5"
        stroke-miterlimit="10" stroke-linecap="round" stroke-linejoin="round" />
    <path d="M86.9731 104.366L88.3919 117.774" stroke="#FFA133" stroke-width="1.5"
        stroke-miterlimit="10" stroke-linecap="round" stroke-linejoin="round" />
    <path
        d="M100.758 126.522L97.916 126.814C96.3547 126.954 94.9237 125.824 94.7167 124.304L91.3035 95.3717C91.1627 93.8105 92.2928 92.3795 93.8131 92.1724L96.6548 91.8812L100.758 126.522Z"
        stroke="#166DC2" stroke-width="1.5" stroke-miterlimit="10" stroke-linecap="round"
        stroke-linejoin="round" />
    <path
        d="M121.985 112.013C128.973 110.757 134.838 111.735 139.778 114.911C144.62 118.105 147.642 123.048 148.88 129.938C150.331 138.008 148.985 144.651 144.744 149.884C140.503 155.117 133.805 158.556 124.554 160.219C116.483 161.67 109.757 161.558 104.358 159.785L102.005 146.695C104.812 147.613 108.076 148.245 111.662 148.414C115.266 148.68 118.585 148.49 121.734 147.924C131.084 146.243 135.02 141.573 133.64 133.896C132.331 126.613 126.854 123.838 117.208 125.572C115.437 125.89 113.602 126.423 111.49 127.108C109.511 127.972 107.891 128.568 106.584 129.209L99.8981 127.058L96.0373 89.7525L135.209 82.7112L137.545 95.703L111.758 100.338L112.928 114.759L114.629 114.047C116.625 113.281 119.032 112.544 121.985 112.013Z"
        fill="#166DC2" />
    <ellipse cx="137.067" cy="121.339" rx="9" ry="4" transform="rotate(33.8962 137.067 121.339)"
        fill="#80C0FF" />
    <path
        d="M348.497 177.161C337.004 174.45 327.392 168.371 326.624 156.256C326.624 156.256 325.907 147.126 342.12 136.355C360.98 123.867 338.562 94.3691 305.915 98.6032"
        stroke="#166DC2" stroke-width="1.52" stroke-miterlimit="10" stroke-linecap="round"
        stroke-linejoin="round" />
    <path
        d="M342.869 180.546C332.904 177.306 324.148 171.189 322.108 160.153C322.108 160.153 317.397 146.578 337.556 133.949C352.527 124.604 337.611 101.625 306.085 103.564"
        stroke="#166DC2" stroke-width="1.52" stroke-miterlimit="10" stroke-linecap="round"
        stroke-linejoin="round" />
    <path
        d="M293.258 107.285L302.369 107.245C304.427 107.137 305.956 105.501 306.015 103.468L305.979 99.2936C305.986 97.593 304.574 96.2688 302.86 96.3446L293.06 96.4481L293.258 107.285Z"
        stroke="#166DC2" stroke-width="1.52" stroke-miterlimit="10" stroke-linecap="round"
        stroke-linejoin="round" />
    <path
        d="M276.382 116.847L289.724 116.95C291.783 116.842 293.312 115.206 293.37 113.173L293.031 90.5729C293.038 88.8723 291.626 87.5481 289.912 87.6239L276.141 87.5399L276.382 116.847Z"
        stroke="#166DC2" stroke-width="1.52" stroke-miterlimit="10" stroke-linecap="round"
        stroke-linejoin="round" />
    <path d="M286.033 108.892L286.079 94.2643" stroke="#FFA133" stroke-width="1.52"
        stroke-miterlimit="10" stroke-linecap="round" stroke-linejoin="round" />
    <path d="M282.108 108.967L282.141 94.422" stroke="#FFA133" stroke-width="1.52"
        stroke-miterlimit="10" stroke-linecap="round" stroke-linejoin="round" />
    <path
        d="M270.038 83.5345L273.356 83.5363C274.973 83.5307 276.302 84.8421 276.308 86.4596L276.515 117.633C276.552 119.596 274.953 121.136 272.99 121.173L270.35 121.191L270.038 83.5345Z"
        stroke="#166DC2" stroke-width="1.52" stroke-miterlimit="10" stroke-linecap="round"
        stroke-linejoin="round" />
    <path
        d="M273.284 104.308C272.962 118.131 270.519 128.322 265.868 134.866C261.217 141.41 254.129 144.622 244.718 144.345C235.564 144.111 228.744 140.562 224.271 133.613C219.798 126.663 217.643 116.484 217.978 103.105C218.243 89.0955 220.773 78.9192 225.424 72.3749C230.074 65.8306 237.062 62.6899 246.488 62.8816C255.641 63.1153 262.462 66.664 267.006 73.7143C271.378 80.7354 273.519 91.0002 273.284 104.308ZM234.537 103.451C234.301 113.135 235.049 120.157 236.624 124.403C238.199 128.649 241.013 130.808 244.981 130.865C248.863 130.908 251.764 128.927 253.556 124.636C255.419 120.445 256.418 113.544 256.639 103.947C256.875 94.2635 256.127 87.2413 254.466 82.9806C252.805 78.7199 250.092 76.4896 246.21 76.4469C242.242 76.3896 239.427 78.385 237.649 82.5903C235.7 86.7663 234.772 93.7682 234.537 103.451Z"
        fill="#166DC2" />
    <ellipse cx="256.701" cy="72.3394" rx="9" ry="4" transform="rotate(33.8962 256.701 72.3394)"
        fill="#80C0FF" />
    <path d="M117.367 63.4002L138.167 73.5002" stroke="#80C0FF" stroke-width="4"
        stroke-miterlimit="10" stroke-linecap="round" stroke-linejoin="round" />
    <path d="M141.467 37L158.067 60.9" stroke="#80C0FF" stroke-width="4" stroke-miterlimit="10"
        stroke-linecap="round" stroke-linejoin="round" />
    <path d="M184.867 26L179.467 55.2" stroke="#80C0FF" stroke-width="4" stroke-miterlimit="10"
        stroke-linecap="round" stroke-linejoin="round" />
    <path d="M221.767 48.5L204.667 65" stroke="#80C0FF" stroke-width="4" stroke-miterlimit="10"
        stroke-linecap="round" stroke-linejoin="round" />
    <path d="M227.46 172.766L212.115 162" stroke="#80C0FF" stroke-width="3.21376"
        stroke-miterlimit="10" stroke-linecap="round" stroke-linejoin="round" />
    <path d="M203.357 194.057L197.492 172.766" stroke="#80C0FF" stroke-width="3.21376"
        stroke-miterlimit="10" stroke-linecap="round" stroke-linejoin="round" />
    <path d="M175.076 194.7L178.611 174.775" stroke="#80C0FF" stroke-width="3.21376"
        stroke-miterlimit="10" stroke-linecap="round" stroke-linejoin="round" />
    <path d="M149.366 185.862L162.141 171.32" stroke="#80C0FF" stroke-width="3.21376"
        stroke-miterlimit="10" stroke-linecap="round" stroke-linejoin="round" />
    <path
        d="M212.88 110.444C214.086 126.266 212.456 138.181 207.89 146.184C203.325 154.187 195.596 158.662 184.818 159.417C174.339 160.192 166.146 156.916 160.247 149.489C154.347 142.063 150.727 130.684 149.586 115.368C148.294 99.3404 150.024 87.4316 154.589 79.4288C159.155 71.4261 166.777 67.0438 177.562 66.1894C188.041 65.4139 196.234 68.6896 202.226 76.2231C208.019 83.7427 211.632 95.2207 212.88 110.444ZM168.535 113.878C169.369 124.963 171.023 132.897 173.305 137.566C175.586 142.235 179.046 144.38 183.584 143.994C188.022 143.601 191.109 141.008 192.666 135.904C194.317 130.906 194.672 122.912 193.831 111.927C192.997 100.843 191.343 92.9089 188.962 88.2325C186.58 83.5562 183.227 81.3184 178.789 81.7118C174.252 82.0982 171.264 84.6973 169.714 89.7019C167.963 94.6926 167.701 102.794 168.535 113.878Z"
        fill="#E1F0FF" />
    <ellipse cx="189" cy="216.5" rx="58" ry="4.5" fill="#E6ECF5" />
</svg>
    