<svg viewBox="0 0 82 82" width="35" height="35" fill="none" xmlns="http://www.w3.org/2000/svg">
    <path
        d="M0 41C0 18.42 18.321 0 41 0s41 18.321 41 41-18.321 41-41 41S0 63.679 0 41zm6.14 0c0 19.312 15.647 34.86 34.86 34.86 19.312 0 34.86-15.647 34.86-34.86C75.86 21.688 60.213 6.14 41 6.14 21.688 6.14 6.14 21.787 6.14 41z"
        fill="#fff"></path>
    <path
        d="M3.96 41c0-20.401 16.538-36.94 36.94-36.94C61.3 4.06 77.937 20.6 77.937 41c0 20.4-16.539 36.94-37.039 36.94C20.597 78.037 3.96 61.5 3.96 41z"
        fill="#19AD49"></path>
    <path
        d="M61.696 12.478c0-3.664 2.971-6.734 6.734-6.734 3.664 0 6.735 2.971 6.735 6.734 0 3.665-2.971 6.735-6.735 6.735-3.664 0-6.734-2.971-6.734-6.735z"
        fill="#fff"></path>
    <path
        d="M64.868 12.478a3.55 3.55 0 013.565-3.565c1.98 0 3.664 1.584 3.664 3.565 0 1.98-1.584 3.565-3.664 3.565-1.98.1-3.565-1.486-3.565-3.565z"
        fill="#9EE52D"></path>
    <path
        d="M20.997 60.014c.297-.297.495-.396.793-.594.297-.1.594-.198.99-.198.297 0 .594.099.891.198.297.099.594.297.792.594l.397.297-.694.693-.396-.396-.495-.198-.594-.099-.495.1-.495.296-.298.495-.099.595.1.594.297.495c.297.297.693.495 1.089.495l.594-.099.495-.297.396-.297.694.693-.396.396c-.199.198-.496.396-.793.594-.297.1-.594.199-.891.199-.297 0-.594-.1-.99-.199a1.54 1.54 0 01-.793-.594c-.198-.297-.396-.495-.594-.792-.099-.297-.198-.594-.198-.99 0-.297.1-.595.198-.99 0-.496.198-.694.495-.991zM29.215 62.588l.694.694-.397.297c-.198.198-.495.396-.792.594-.297.099-.594.198-.99.198-.297 0-.693-.099-.99-.198a1.54 1.54 0 01-.793-.594 2.157 2.157 0 01-.495-.793c-.099-.297-.198-.594-.198-.99 0-.297.099-.594.198-.891.1-.297.297-.594.495-.792.297-.199.495-.397.793-.595.297-.099.594-.198.99-.198.297 0 .594.1.99.198.297.1.594.297.792.595l.397.297-2.773 2.773c.297.099.594.198.89.099.298 0 .595-.198.793-.396l.396-.298zm-2.476-1.881c-.297.297-.495.693-.495 1.09 0 .197.1.494.198.692l.396-.396.595-.594.594-.594.495-.396c-.297-.1-.594-.198-.891-.1-.396 0-.694.1-.892.298zM30.404 60.806c.1-.297.297-.594.495-.792.198-.199.495-.397.793-.496.297-.099.594-.198.99-.198s.693.1.99.198c.297.1.594.297.792.495.199.199.397.496.496.793.099.297.198.594.198.99v2.575h-.99v-2.476l-.1-.594-.198-.594-.495-.297-.594-.1-.594.1-.495.297-.298.495-.099.594v2.575h-.99v-2.476c-.099-.396 0-.792.099-1.09zM36.346 60.014c.298-.297.496-.396.793-.594.297-.1.594-.198.99-.198.297 0 .594.099.891.198.297.099.595.297.892.594l.396.297-.693.693-.397-.396-.495-.198-.594-.099-.594.1-.495.296-.297.495-.1.595.1.594.297.495c.297.297.693.495 1.09.495l.593-.099.495-.297.397-.297.693.693-.396.396c-.198.198-.495.396-.892.594-.297.1-.594.199-.89.199-.298 0-.595-.1-.991-.199a1.54 1.54 0 01-.793-.594c-.197-.297-.396-.495-.594-.792-.099-.297-.198-.594-.198-.99 0-.297.1-.595.198-.99.198-.496.396-.694.594-.991zM40.704 61.796c0-.396.099-.693.198-.99.099-.297.297-.594.495-.792.198-.199.495-.397.792-.496.297-.099.595-.198.99-.198.397 0 .694.1.991.198.297.1.594.297.792.495.198.199.396.496.495.793.1.297.199.594.199.99 0 .297-.1.693-.198.99a2.157 2.157 0 01-.496.793 2.157 2.157 0 01-.792.495c-.297.099-.594.198-.99.198s-.694-.099-.99-.198a2.156 2.156 0 01-.793-.495 2.156 2.156 0 01-.495-.793c-.198-.297-.198-.594-.198-.99zm.99 0l.1.594.296.495.496.298c.198.099.396.099.594.099l.594-.1.495-.297.297-.495.1-.594-.1-.594-.297-.495-.495-.297-.594-.1c-.198 0-.396 0-.594.1l-.496.297-.297.495-.099.594zM50.606 59.32v.99h-3.07l-.397.1-.099.396.1.396.396.099h1.98l.594.099.496.297.297.495.099.594-.1.595-.296.495-.496.297-.594.099h-3.07v-.99h3.07l.396-.1.198-.396-.198-.396-.396-.099h-1.98c-.199 0-.397 0-.595-.099l-.495-.297-.297-.495-.099-.594.1-.594.296-.496.495-.297c.198-.099.396-.099.595-.099h3.07zM56.45 59.32v2.476c0 .297-.098.693-.197.99a1.54 1.54 0 01-.595.793 2.157 2.157 0 01-.792.495c-.297.099-.594.198-.99.198-.297 0-.694-.099-.99-.198a2.157 2.157 0 01-.793-.495 2.157 2.157 0 01-.495-.793c-.1-.297-.198-.594-.198-.99V59.32h.99v2.476l.1.594.296.495.495.298c.199.099.397.099.595.099l.594-.1.495-.297.297-.495.1-.594V59.32h1.089zM61.697 57.242v4.555c0 .297-.1.694-.198.99a2.156 2.156 0 01-.496.793 2.156 2.156 0 01-.792.495c-.297.1-.594.198-.99.198-.297 0-.693-.099-.99-.198a2.157 2.157 0 01-.793-.495c-.198-.198-.396-.495-.594-.792-.099-.297-.198-.595-.198-.99 0-.397.099-.694.198-.991a1.54 1.54 0 01.594-.792c.198-.198.495-.397.792-.495.298-.1.595-.199.99-.199h1.486v-1.98h.99v-.1zm-2.476 6.04l.594-.098.495-.297.297-.495.1-.595v-1.485H59.22l-.594.099-.496.297-.297.495-.099.594.1.595.296.495.496.297.594.099zM67.54 36.445c-.594 0-1.09.099-1.585.297-.495.198-.99.495-1.386.891-.396.396-.693.792-.891 1.287-.198.496-.297 1.09-.297 1.684 0 .594.099 1.09.297 1.585.198.495.495.99.891 1.386.396.396.792.693 1.386.891.496.198 1.09.297 1.585.297.594 0 1.09-.099 1.585-.297.495-.198.99-.495 1.386-.89.396-.397.693-.892.891-1.387.198-.496.297-1.09.297-1.585-.099-1.188-.495-2.08-1.188-2.872-.693-.792-1.683-1.287-2.971-1.287zm.1-2.971c.99 0 1.88.198 2.673.594.891.396 1.584.891 2.278 1.584.693.694 1.188 1.387 1.584 2.278.396.892.594 1.783.594 2.773 0 .99-.198 1.882-.594 2.773-.396.891-.891 1.585-1.485 2.278-.594.693-1.387 1.188-2.278 1.485-.891.297-1.882.495-2.872.495s-1.882-.198-2.773-.495c-.891-.396-1.584-.891-2.278-1.485-.594-.594-1.188-1.387-1.485-2.278a6.647 6.647 0 01-.594-2.773c0-.99.198-1.882.594-2.773a7.054 7.054 0 011.485-2.179c.694-.594 1.387-1.188 2.278-1.485.891-.495 1.882-.693 2.872-.792zM28.619 41.594c0 1.783-1.486 3.268-3.268 3.268-1.09 0-1.981-.495-2.575-1.287-.198-.198-.297-.396-.396-.693l-.1-.297v-.198c-.099-.297-.099-.595-.099-.892V34.96c0-.396-.099-.693-.396-.99-.297-.297-.594-.495-.99-.495s-.792.198-1.09.495c-.296.297-.395.594-.395.99v6.437c0 1.189.297 2.08.594 2.773l.099.1.198.395.099.198.198.199c.396.594.99 1.089 1.584 1.584l.1.1a6.83 6.83 0 001.485.692c.396.1.891.199 1.485.297h.991l.594-.099c.396-.099.792-.198 1.189-.396.594-.297 1.188-.594 1.683-1.089.495-.495.891-.891 1.188-1.486l.198-.297.1-.297c.396-.891.594-1.782.594-2.674V34.96c0-.396-.1-.693-.396-.99-.297-.297-.595-.396-1.09-.495-.396 0-.693.198-.99.495-.297.297-.495.594-.495.99v6.14M48.525 46.051v-7.725c0-3.07-1.684-4.753-4.655-4.753-1.188 0-2.476.594-3.07 1.485l-.396.595-.396-.595c-.495-.792-1.684-1.386-2.971-1.386-2.971 0-4.655 1.782-4.655 4.753v7.824c0 .891.595 1.684 1.486 1.684s1.485-.694 1.485-1.684v-8.121c0-.891.792-1.584 1.684-1.584.891 0 1.782.693 1.782 1.584v8.022c0 .891.694 1.684 1.585 1.684s1.584-.694 1.584-1.684V37.93c0-.891.793-1.584 1.684-1.584.891 0 1.684.693 1.684 1.584v8.121c0 .891.693 1.684 1.584 1.684.99 0 1.585-.793 1.585-1.684zM60.312 43.872c0-1.584-1.089-2.97-2.575-3.565 1.387-.594 2.18-1.783 2.18-3.268 0-1.98-1.684-3.565-3.962-3.565h-4.952c-.792 0-1.485.693-1.485 1.485V46.25c0 .792.693 1.485 1.485 1.485H56.45c.297 0 .594-.099.891-.198 1.783-.495 2.971-1.881 2.971-3.664zm-4.951-7.625c.89 0 1.683.693 1.683 1.584 0 .891-.693 1.585-1.683 1.585h-2.773v-3.17h2.773zm-2.773 5.545h3.169c.891 0 1.584.694 1.584 1.585s-.693 1.585-1.584 1.585h-3.17v-3.17zM18.22 42.585v-6.933c0-.297 0-.693-.099-.99a1.573 1.573 0 00-.792-.99c-.297-.198-.594-.198-.99-.198h-4.754c-.396 0-.792.099-.99.396-.694.594-.595 1.782.198 2.278.396.297.891.198 1.287.198h3.268v6.239c0 1.386-1.188 2.575-2.575 2.575-1.386 0-2.476-1.09-2.575-2.476v-.198c0-.793-.693-1.387-1.485-1.387-.792 0-1.486.694-1.486 1.486v.198c.199 2.97 2.476 4.951 5.546 4.951 5.645 0 5.546-5.744 5.447-5.15z"
        fill="#fff"></path>
</svg>