<svg width="292" height="226" viewBox="0 0 292 226" fill="none" xmlns="http://www.w3.org/2000/svg">
    <g clip-path="url(#clip0_18_25325)">
        <path
            d="M267.089 67.8762C259.266 46.267 237.432 33.557 217.773 21.5196C198.899 9.9528 178.478 0.73971 156.42 0.044808C134.33 -0.494723 112.592 5.65462 94.0583 17.6863C81.2473 26.0171 70.3517 36.9738 62.0928 49.8312C58.6509 55.0993 55.6017 60.6136 52.9695 66.3295C46.4269 80.9095 42.904 96.6633 42.6133 112.641C42.4566 117.926 42.5686 123.216 42.9493 128.49C44.496 150.794 47.8584 173.905 61.7116 191.546C76.0637 209.421 96.4589 221.428 119.052 225.305C139.989 228.936 159.402 217.437 179.868 211.855L181.93 211.34C201.723 206.453 224.251 207.215 238.62 192.936C241.7 189.855 244.286 186.316 246.287 182.445C253.863 168.189 254.693 150.121 258.391 133.78C263.458 111.79 274.8 89.2388 267.089 67.8762Z"
            fill="white" />
        <path
            d="M268.502 183.23C268.475 181.627 268.132 180.046 267.491 178.577C266.85 177.109 265.925 175.782 264.768 174.673C263.611 173.564 262.246 172.695 260.751 172.117C259.257 171.539 257.663 171.263 256.061 171.304C255.358 171.27 254.655 171.345 253.976 171.528C252.862 168.269 250.742 165.448 247.923 163.47C245.103 161.492 241.728 160.46 238.285 160.522C237.36 160.485 236.434 160.56 235.527 160.746C233.971 158.524 231.895 156.716 229.481 155.478C227.067 154.239 224.387 153.609 221.674 153.64C217.409 153.58 213.293 155.211 210.227 158.177C207.161 161.142 205.393 165.201 205.31 169.466C205.274 170.317 205.349 171.168 205.535 171.999C204.64 171.723 203.713 171.565 202.777 171.528C201.166 171.459 199.558 171.716 198.049 172.284C196.54 172.852 195.161 173.72 193.996 174.836C192.832 175.951 191.905 177.29 191.272 178.774C190.639 180.257 190.312 181.852 190.312 183.465C190.312 185.078 190.639 186.673 191.272 188.157C191.905 189.64 192.832 190.979 193.996 192.094C195.161 193.21 196.54 194.078 198.049 194.646C199.558 195.215 201.166 195.472 202.777 195.402C203.226 195.402 203.697 195.402 203.921 195.155H254.626C255.012 195.214 255.394 195.296 255.769 195.402C256.175 195.465 256.59 195.377 256.935 195.155H257.383C260.371 194.862 263.148 193.488 265.195 191.293C267.242 189.097 268.418 186.23 268.502 183.23Z"
            fill="#B8DCFF" />
        <path
            d="M180.922 71.3958H181.28C181.541 71.5587 181.851 71.6223 182.155 71.5751C182.443 71.4997 182.734 71.4398 183.029 71.3958H221.697C221.854 71.5751 222.212 71.5751 222.571 71.5751C223.802 71.6363 225.034 71.4465 226.19 71.0173C227.346 70.5882 228.403 69.9284 229.296 69.0784C230.19 68.2283 230.901 67.2056 231.387 66.0722C231.873 64.9388 232.123 63.7185 232.123 62.4853C232.123 61.2522 231.873 60.0318 231.387 58.8985C230.901 57.7651 230.19 56.7423 229.296 55.8922C228.403 55.0422 227.346 54.3825 226.19 53.9533C225.034 53.5241 223.802 53.3344 222.571 53.3956C221.858 53.4292 221.152 53.5419 220.464 53.7318C220.594 53.1055 220.646 52.4656 220.621 51.8264C220.562 48.5762 219.217 45.4819 216.881 43.2214C214.545 40.9609 211.408 39.7185 208.157 39.7665C206.094 39.7406 204.056 40.2192 202.219 41.1607C200.383 42.1023 198.805 43.4782 197.622 45.1688C196.927 45.0395 196.221 44.9868 195.515 45.0119C192.892 44.9657 190.323 45.7524 188.176 47.2588C186.029 48.7653 184.415 50.9139 183.567 53.3956C183.05 53.2479 182.512 53.1872 181.975 53.2162C180.753 53.1835 179.537 53.3937 178.396 53.8347C177.256 54.2757 176.214 54.9388 175.332 55.7854C174.45 56.632 173.745 57.6453 173.258 58.7666C172.771 59.8878 172.51 61.0947 172.493 62.3172C172.557 64.5955 173.448 66.7727 174.999 68.443C176.549 70.1133 178.654 71.1628 180.922 71.3958Z"
            fill="#B8DCFF" />
        <g opacity="0.39">
            <path opacity="0.39"
                d="M234 109.055H275.291C276.313 109.18 277.35 109.089 278.335 108.788C279.319 108.487 280.23 107.982 281.007 107.306C282.727 105.731 283.805 103.576 284.033 101.254C284.795 91.0323 271.099 89.2166 271.099 99.1245"
                stroke="#176CC1" stroke-width="4" stroke-miterlimit="10" stroke-linecap="round" />
            <path opacity="0.39" d="M243 98H222" stroke="#176CC1" stroke-width="4"
                stroke-miterlimit="10" stroke-linecap="round" />
            <path opacity="0.39" d="M256.119 120.667H245" stroke="#176CC1" stroke-width="4"
                stroke-miterlimit="10" stroke-linecap="round" />
        </g>
        <g opacity="0.39">
            <path opacity="0.39"
                d="M51.5126 152.004H92.8255C93.8476 152.129 94.8847 152.038 95.8694 151.736C96.8541 151.435 97.7645 150.931 98.5417 150.255C100.262 148.68 101.34 146.524 101.568 144.203C102.33 133.981 88.6337 132.165 88.6337 142.073"
                stroke="#176CC1" stroke-width="4" stroke-miterlimit="10" stroke-linecap="round" />
            <path opacity="0.39" d="M64.4913 140.549H33.6915" stroke="#176CC1" stroke-width="4"
                stroke-miterlimit="10" stroke-linecap="round" />
            <path opacity="0.39" d="M54.6507 163.615H43.5323" stroke="#176CC1" stroke-width="4"
                stroke-miterlimit="10" stroke-linecap="round" />
        </g>
        <path d="M159.29 142.387L146.49 163.615" stroke="#80C0FF" stroke-width="4.48324"
            stroke-miterlimit="10" />
        <path d="M131.359 134.363L130.91 159.132" stroke="#80C0FF" stroke-width="4.48324"
            stroke-miterlimit="10" />
        <path
            d="M144.562 140.572L126.226 135.304C126.226 135.304 121.742 121.451 118.918 110.512C116.094 99.5725 113.628 79.6894 118.627 62.3617C122.464 51.0101 130.529 41.5739 141.143 36.0146C151.758 30.4553 164.107 29.2005 175.624 32.5111C187.14 35.8217 196.937 43.4429 202.98 53.7906C209.022 64.1383 210.844 76.4166 208.067 88.073C203.068 105.401 190.448 120.958 182.221 128.714C173.995 136.47 162.876 145.84 162.876 145.84L144.562 140.572Z"
            fill="#176CC1" />
        <path
            d="M144.539 140.572L154.537 143.441C154.537 143.441 162.136 133.04 167.83 124.567C173.523 116.094 185.516 95.7846 190.515 78.4568C194.029 66.2891 194.628 53.9853 192.5 41.5001C181 32.5001 171.5 29.5001 156.5 31C148.077 40.4552 142.15 51.3532 138.666 63.5277C133.667 80.8554 133.04 104.437 133.376 114.659C133.712 124.881 134.631 137.703 134.631 137.703L144.539 140.572Z"
            fill="#125596" />
        <path
            d="M125.307 186.928L136.515 190.156C137.79 190.504 139.145 190.415 140.364 189.903C141.583 189.391 142.595 188.486 143.24 187.332L151.78 171.999L121.608 163.324L120.958 181.01C120.906 182.343 121.309 183.654 122.098 184.729C122.888 185.804 124.019 186.579 125.307 186.928Z"
            fill="#FF8A00" />
        <path
            d="M155.254 162.808L124.08 153.846C121.272 153.038 118.342 154.66 117.534 157.468C116.727 160.276 118.349 163.207 121.157 164.014L152.33 172.976C155.138 173.784 158.069 172.162 158.876 169.354C159.683 166.546 158.062 163.615 155.254 162.808Z"
            fill="#FFDCB2" />
        <path
            d="M149.718 24.7253C150.563 28.4705 151.095 32.2794 151.309 36.1127C151.416 37.8186 150.885 39.5033 149.821 40.8408C148.757 42.1782 147.235 43.0734 145.548 43.3531C143.824 43.5485 142.094 43.0515 140.736 41.9713C139.378 40.891 138.505 39.3159 138.308 37.5922C138.247 36.5659 138.403 35.5384 138.766 34.5766C139.129 33.6148 139.691 32.7404 140.415 32.0106C143.095 29.2639 146.005 26.7515 149.113 24.5011C149.183 24.4365 149.275 24.4007 149.371 24.4007C149.466 24.4007 149.558 24.4365 149.628 24.5011C149.669 24.5709 149.699 24.6465 149.718 24.7253Z"
            fill="#80C0FF" />
        <path
            d="M88.6711 85.2799C88.6534 83.812 88.3455 82.3621 87.7651 81.0138C87.1847 79.6654 86.3432 78.4451 85.2892 77.4233C84.2352 76.4015 82.9895 75.5983 81.6238 75.0599C80.2581 74.5216 78.7993 74.2588 77.3315 74.2867C76.6936 74.2525 76.0545 74.3235 75.4397 74.4969C74.4456 71.5097 72.5272 68.9161 69.962 67.091C67.3967 65.266 64.3174 64.3041 61.1694 64.3445C60.3395 64.3125 59.5088 64.3831 58.6962 64.5547C57.2945 62.5125 55.412 60.8465 53.2146 59.7035C51.0171 58.5606 48.5721 57.9758 46.0953 58.0008C42.2022 58.0002 38.4649 59.5296 35.689 62.2592C32.9132 64.9888 31.3211 68.7 31.2562 72.5925C31.2222 73.3734 31.2929 74.1553 31.4665 74.9173C30.6617 74.6793 29.8315 74.5381 28.9933 74.4969C26.0777 74.4969 23.2816 75.6551 21.2199 77.7167C19.1583 79.7784 18 82.5746 18 85.4902C18 88.4058 19.1583 91.2019 21.2199 93.2636C23.2816 95.3252 26.0777 96.4834 28.9933 96.4834C29.3575 96.5388 29.7295 96.4644 30.0444 96.2732H76.2187C76.5729 96.3226 76.9239 96.3928 77.2698 96.4834C77.634 96.5388 78.006 96.4644 78.3209 96.2732H78.7413C81.4405 95.9383 83.9293 94.6433 85.7525 92.6249C87.5757 90.6064 88.6116 87.9992 88.6711 85.2799Z"
            fill="#B8DCFF" />
        <path
            d="M144.722 72.1543C145.866 70.0706 146.045 67.9708 145.123 67.4645C144.2 66.9582 142.525 68.2371 141.382 70.3208C140.238 72.4046 140.059 74.5044 140.981 75.0107C141.904 75.517 143.579 74.2381 144.722 72.1543Z"
            fill="white" />
        <path
            d="M183.884 86.9613C185.027 84.8776 185.206 82.7778 184.284 82.2715C183.361 81.7652 181.686 83.044 180.543 85.1278C179.399 87.2116 179.22 89.3111 180.142 89.8174C181.065 90.3237 182.74 89.0451 183.884 86.9613Z"
            fill="white" />
        <path
            d="M140.437 95.0001C140.437 95.0001 145.66 84.1058 158.549 89.6426C170.385 94.7311 164.646 106.589 164.646 106.589"
            stroke="white" stroke-width="2.24162" stroke-miterlimit="10" stroke-linecap="round" />
    </g>
    <defs>
        <clipPath id="clip0_18_25325">
            <rect width="291.254" height="226" fill="white" />
        </clipPath>
    </defs>
</svg>
    