<svg width="446" height="214" viewBox="0 0 446 214" fill="none" xmlns="http://www.w3.org/2000/svg">
    <mask id="mask0_18_25163" style="mask-type:alpha" maskUnits="userSpaceOnUse" x="79" y="0"
        width="297" height="160">
        <rect x="79" width="297" height="160" fill="#C4C4C4" />
    </mask>
    <g mask="url(#mask0_18_25163)">
        <path fill-rule="evenodd" clip-rule="evenodd"
            d="M331.612 51.8096C349.437 69.7409 347.807 98.2149 354.415 122.672C361.075 147.324 374.922 170.753 370.568 195.992C365.935 222.847 351.303 248.254 329.838 265.128C308.589 281.831 280.706 285.883 253.829 287.761C228.018 289.565 202.292 286.48 178.867 275.678C155.129 264.731 134.302 248.144 120.202 226.137C105.877 203.779 98.1109 177.559 98.9374 150.923C99.7628 124.324 110.88 99.7053 124.831 76.9583C139.338 53.3048 154.677 26.9749 180.736 17.549C206.484 8.23616 233.676 21.928 260.275 27.968C285.244 33.6379 313.592 33.6811 331.612 51.8096Z"
            fill="white" />
    </g>
    <rect x="15" y="158" width="96" height="2" rx="1" fill="#1C8AF5" />
    <rect x="118" y="158" width="18" height="2" rx="1" fill="#1C8AF5" />
    <rect x="264" y="158" width="65" height="2" rx="1" fill="#1C8AF5" />
    <rect x="350" y="158" width="53" height="2" rx="1" fill="#1C8AF5" />
    <rect x="419" y="158" width="10" height="2" rx="1" fill="#1C8AF5" />
    <rect x="293" y="106" width="50" height="24" rx="4" fill="#B8DCFF" />
    <rect x="347" y="106" width="50" height="24" rx="4" fill="#E1F0FF" />
    <rect x="319" y="78" width="50" height="24" rx="4" fill="#E1F0FF" />
    <rect x="21" y="106" width="50" height="24" rx="4" fill="#E1F0FF" />
    <rect x="75" y="106" width="50" height="24" rx="4" fill="#E1F0FF" />
    <rect x="47" y="78" width="50" height="24" rx="4" fill="#B8DCFF" />
    <rect x="199" y="82" width="50" height="24" rx="4" fill="#E1F0FF" />
    <ellipse cx="227.95" cy="191.5" rx="117.05" ry="22.5" fill="#E1F0FF" />
    <path fill-rule="evenodd" clip-rule="evenodd"
        d="M113.258 188.341C112.227 189.486 111.801 190.538 111.801 191.5C111.801 193.055 112.938 194.845 115.739 196.758C118.482 198.631 122.56 200.437 127.821 202.119C138.329 205.478 153.349 208.274 171.312 210.191L171.14 212.182C153.126 210.259 137.983 207.448 127.323 204.041C122 202.34 117.742 200.473 114.795 198.461C111.906 196.489 110 194.18 110 191.5C110 189.825 110.753 188.294 111.985 186.927C113.215 185.561 114.986 184.283 117.199 183.083C121.629 180.681 128.02 178.489 135.949 176.565C151.822 172.712 174.05 169.886 199.549 168.666C200.756 168.666 200.756 170.664 199.627 170.664C174.186 171.881 152.07 174.699 136.334 178.519C128.458 180.43 122.229 182.581 117.989 184.88C115.868 186.031 114.292 187.194 113.258 188.341ZM329.432 181.325C316.516 176.972 296.132 173.517 271.556 171.616C270.268 171.5 270.268 169.5 271.681 169.621C296.305 171.525 316.847 174.994 329.955 179.411C331.494 180 330.721 181.759 329.432 181.325ZM266.612 211.742C298.325 209.606 323.666 204.923 336.093 199.039C337.572 198.339 338.247 200.194 336.799 200.879C324.06 206.911 298.442 211.602 266.721 213.738C265.386 213.738 265.591 211.742 266.612 211.742Z"
        fill="#1C8AF5" />
    <ellipse cx="227.95" cy="186.5" rx="86.4368" ry="13.5" fill="#166DC2" />
    <mask id="mask1_18_25163" style="mask-type:alpha" maskUnits="userSpaceOnUse" x="136" y="82"
        width="173" height="118">
        <path fill-rule="evenodd" clip-rule="evenodd"
            d="M252 82H185V174.328C156.009 176.508 136 181.139 136 186.5C136 193.956 174.699 200 222.437 200C270.174 200 308.874 193.956 308.874 186.5C308.874 180.666 285.179 175.696 252 173.81V82Z"
            fill="#C4C4C4" />
    </mask>
    <g mask="url(#mask1_18_25163)">
        <path
            d="M194.97 152.732C195.077 153.02 195.221 153.307 195.365 153.63C197.771 159.017 201.686 165.087 201.686 165.087L212.856 160.239C212.856 160.239 210.665 142.101 200.824 139.91C198.454 139.371 196.622 145.441 195.688 149.428C195.221 151.331 194.97 152.732 194.97 152.732Z"
            fill="#F29271" />
        <path
            d="M301.605 248.592C279.265 254.626 253.477 261.989 231.999 251.106C201.866 235.878 195.975 194.467 201.973 163.363C202.62 158.443 204.128 152.481 210.45 153.666C217.525 155.39 214.759 163.722 215.478 169.002C219.931 225.678 238.536 234.046 290.111 215.442C311.877 208.043 323.226 241.014 301.605 248.592Z"
            fill="#F29271" />
        <path
            d="M212.317 235.339C212.676 235.914 213.035 236.453 213.431 237.027C222.014 249.526 234.406 257.212 247.874 261.055C266.658 266.371 287.597 264.216 303.328 257.14C303.688 256.997 304.011 256.817 304.334 256.673V243.456V204.703C304.334 204.703 294.385 206.858 282.856 212.281C271.686 217.525 232.646 233.148 216.986 175.683C216.519 173.959 216.052 172.163 215.621 170.295C215.621 170.295 205.816 174.677 200.896 170.187C200.896 170.187 200.537 171.983 200.178 175.108C198.992 185.955 197.879 212.712 212.317 235.339Z"
            fill="#0D4275" />
        <path d="M206.95 86.0154L209.391 86.1002L206.836 159.612L204.395 159.527L206.95 86.0154Z"
            fill="#0D4275" />
        <path
            d="M248.197 105.718L207.145 115.128L208.115 87.5804L248.413 99.8278C251.394 100.726 251.25 105 248.197 105.718Z"
            fill="#1C8AF5" />
        <path
            d="M215.406 160.562C215.909 150.972 215.155 150.326 210.414 144.579C209.803 143.825 208.187 140.413 206.93 141.167C205.457 142.029 207.253 146.267 207.253 146.267L210.378 153.774C210.342 153.738 215.55 164.297 215.406 160.562Z"
            fill="#F29271" />
        <path
            d="M199.028 143.753C201.04 144.795 202.943 146.16 204.523 147.812C205.206 148.566 206.211 148.243 206.714 147.596C207.038 147.165 207.145 146.555 206.75 146.016C205.242 143.717 203.338 141.67 201.147 139.982C199.639 138.869 198.13 139.946 197.771 141.311C197.556 142.209 197.843 143.25 199.028 143.753Z"
            fill="#F29271" />
        <path
            d="M195.76 144.974C195.939 145.513 196.335 145.98 197.053 146.231C199.316 147.093 201.937 148.135 203.661 149.895C204.38 150.721 205.457 150.469 206.032 149.823C206.463 149.32 206.607 148.638 206.14 147.955C204.2 145.297 201.506 143.825 198.741 142.281C196.766 141.203 195.221 143.394 195.76 144.974Z"
            fill="#F29271" />
        <path
            d="M194.97 148.566C195.185 148.889 195.544 149.177 196.047 149.32C198.489 150.182 201.219 151.332 203.266 152.84C204.272 153.63 205.457 153.02 205.852 152.086C206.104 151.511 206.068 150.793 205.457 150.254C203.123 148.135 200.465 146.698 197.627 145.298C195.473 144.292 193.928 147.058 194.97 148.566Z"
            fill="#F29271" />
        <path
            d="M195.939 153.019C198.454 153.271 201.04 153.881 203.374 154.923C205.134 155.749 206.535 153.091 204.883 152.122C202.333 150.505 199.531 149.464 196.586 148.745C193.641 148.063 192.958 152.804 195.939 153.019Z"
            fill="#F29271" />
        <path
            d="M206.032 148.099C206.14 148.099 206.247 148.063 206.319 147.955C206.463 147.812 206.427 147.56 206.283 147.452C206.247 147.416 202.153 144.004 198.346 141.993C198.166 141.885 197.951 141.957 197.843 142.137C197.735 142.316 197.807 142.532 197.987 142.64C201.722 144.615 205.745 147.991 205.78 148.027C205.852 148.063 205.924 148.099 206.032 148.099Z"
            fill="#E67D62" />
        <path
            d="M204.99 150.254C205.098 150.254 205.206 150.218 205.278 150.11C205.385 149.967 205.385 149.751 205.242 149.608C205.206 149.572 201.399 146.842 196.586 145.046C196.406 144.974 196.191 145.082 196.119 145.262C196.047 145.441 196.155 145.657 196.335 145.729C200.968 147.417 204.739 150.146 204.775 150.146C204.847 150.254 204.919 150.254 204.99 150.254Z"
            fill="#E67D62" />
        <path
            d="M204.99 152.948C205.134 152.948 205.242 152.876 205.314 152.732C205.385 152.553 205.314 152.337 205.134 152.265C205.098 152.229 200.357 150.038 195.724 148.817C195.544 148.781 195.329 148.889 195.293 149.069C195.257 149.248 195.365 149.464 195.544 149.5C200.106 150.721 204.775 152.876 204.847 152.912C204.883 152.948 204.954 152.948 204.99 152.948Z"
            fill="#E67D62" />
        <path
            d="M208.546 155.677C208.726 155.677 208.869 155.534 208.905 155.354C209.48 150.182 208.187 147.309 208.151 147.201C208.079 147.022 207.864 146.95 207.684 147.022C207.504 147.093 207.433 147.309 207.504 147.488C207.504 147.524 208.761 150.326 208.223 155.282C208.187 155.462 208.33 155.641 208.546 155.677C208.51 155.677 208.546 155.677 208.546 155.677Z"
            fill="#E67D62" />
        <path
            d="M203.446 155.57C203.985 155.57 204.308 155.462 204.344 155.426C204.523 155.354 204.631 155.139 204.559 154.959C204.487 154.779 204.272 154.672 204.092 154.743C204.056 154.743 203.159 155.067 201.83 154.456L201.435 154.277C199.998 153.594 198.202 152.732 195.544 152.624C195.365 152.624 195.185 152.768 195.185 152.984C195.185 153.199 195.329 153.343 195.544 153.343C198.023 153.45 199.747 154.277 201.147 154.959L201.542 155.139C202.297 155.462 202.943 155.57 203.446 155.57Z"
            fill="#E67D62" />
    </g>
    <mask id="mask2_18_25163" style="mask-type:alpha" maskUnits="userSpaceOnUse" x="141" y="149"
        width="174" height="51">
        <path fill-rule="evenodd" clip-rule="evenodd"
            d="M290.977 149H165.824V177.114C150.774 179.543 141.513 182.853 141.513 186.5C141.513 193.956 180.212 200 227.95 200C275.688 200 314.387 193.956 314.387 186.5C314.387 182.926 305.495 179.676 290.977 177.261V149Z"
            fill="#C4C4C4" />
    </mask>
    <g mask="url(#mask2_18_25163)">
        <path fill-rule="evenodd" clip-rule="evenodd"
            d="M169.425 159C169.425 156.791 171.216 155 173.425 155H173.529C175.738 155 177.529 156.791 177.529 159V183L276.571 183V159C276.571 156.791 278.362 155 280.571 155H280.674C282.883 155 284.674 156.791 284.674 159V215C284.674 217.209 282.883 219 280.674 219H280.571C278.362 219 276.571 217.209 276.571 215V192L177.529 192V215C177.529 217.209 175.738 219 173.529 219H173.425C171.216 219 169.425 217.209 169.425 215V159Z"
            fill="#FFA133" />
    </g>
    <path d="M160.563 73.9023L183.972 89.2474" stroke="#FFA133" stroke-width="2.42105"
        stroke-miterlimit="10" stroke-linecap="round" stroke-linejoin="round" />
    <path d="M193.583 45.9364L209.814 77.1996" stroke="#FFA133" stroke-width="2.42105"
        stroke-miterlimit="10" stroke-linecap="round" stroke-linejoin="round" />
    <path d="M247.391 39.4467L236.389 73.6682" stroke="#FFA133" stroke-width="2.42105"
        stroke-miterlimit="10" stroke-linecap="round" stroke-linejoin="round" />
    <path d="M288.211 72.1709L265.127 89.3342" stroke="#FFA133" stroke-width="2.42105"
        stroke-miterlimit="10" stroke-linecap="round" stroke-linejoin="round" />
    <ellipse cx="283" cy="164.5" rx="1" ry="4.5" fill="#FFF380" />
</svg>
    