<svg viewBox="0 0 82 82" width="35" height="35" fill="none" xmlns="http://www.w3.org/2000/svg">
    <g clip-path="url(#logo-bandera=Metro_svg__clip0)" fill-rule="evenodd" clip-rule="evenodd">
        <path
            d="M74.153 16.867c5.196 7.092 7.975 15.898 7.843 24.686-.108 7.11-2.058 14.183-5.678 20.308-3.414 5.776-8.27 10.675-13.996 14.166-6.668 4.065-14.51 6.162-22.319 5.958A41.448 41.448 0 0125.7 79.047C18.57 76.191 12.301 71.28 7.796 65.06A41.24 41.24 0 011.81 53.096C-.008 47.226-.451 40.948.456 34.873c1.221-8.17 4.972-15.915 10.632-21.931A41.408 41.408 0 0129.062 1.76C39.49-1.424 51.152-.26 60.7 5.02a38.532 38.532 0 013.234 1.973 7.272 7.272 0 013.62-1.783c1.776-.318 3.616.101 5.12 1.085 1.59 1.038 2.723 2.72 3.053 4.594.142.805.139 1.627.033 2.437a6.786 6.786 0 01-1.607 3.54z"
            fill="#fff"></path>
        <path
            d="M30.13 5.253c9.481-2.917 20.114-1.82 28.804 2.964 1.14.633 2.266 1.302 3.326 2.064-.462 1.633-.334 3.443.448 4.958a6.705 6.705 0 003.423 3.207c1.503.644 3.23.686 4.781.183 4.918 6.518 7.6 14.703 7.433 22.87a37.235 37.235 0 01-5.17 18.506A37.432 37.432 0 0160.42 72.911c-6.064 3.71-13.212 5.634-20.321 5.426a37.316 37.316 0 01-13.043-2.678c-6.495-2.587-12.211-7.073-16.304-12.74a37.391 37.391 0 01-5.455-10.902c-1.66-5.347-2.07-11.07-1.23-16.603a37.173 37.173 0 019.68-19.97A37.495 37.495 0 0130.13 5.255z"
            fill="#FFEC00"></path>
        <path
            d="M68.198 8.804c.857-.162 1.758.073 2.48.547.751.489 1.252 1.306 1.453 2.17.052.44.043.89.009 1.332-.242 1.32-1.32 2.437-2.634 2.721-.287.036-.577.019-.865.024-1.215.088-2.374-.715-2.933-1.764-.692-1.261-.467-2.937.52-3.98a3.544 3.544 0 011.97-1.05zM22.877 65.084c-.178.826.152 1.72.8 2.256.993.9 2.763.678 3.47-.472-.2-.224-.41-.438-.633-.639-.277.338-.611.686-1.072.731-.858.166-1.747-.615-1.685-1.488.01-.761.726-1.425 1.487-1.38.52-.012.962.332 1.233.75.24-.202.462-.42.665-.66-.427-.66-1.22-1.05-2.002-1.015-1.08-.003-2.081.856-2.263 1.917zm6.391-1.902v.944a1.29 1.29 0 00-.61.309c-.445.355-.59.962-.477 1.505.295-.109.517-.341.771-.52.103-.08.21-.16.316-.24v1.174c-.162.126-.321.254-.477.388.148.083.31.146.477.184v.948c-.634-.092-1.233-.434-1.596-.969-.489-.658-.57-1.573-.251-2.321a2.383 2.383 0 011.847-1.402zm2.635 2.089c0 .868.006 1.736-.003 2.606.314.043.633.043.948-.003 0-.867-.016-1.734.004-2.6.017-.617.601-1.124 1.206-1.113.642-.02 1.26.554 1.216 1.21 0 .835 0 1.668-.005 2.503.32.05.642.032.966.018-.003-.94.038-1.882-.018-2.82-.103-1.165-1.33-2-2.455-1.816-.989.107-1.893.99-1.86 2.015zm-2.635 1.084c.544-.424 1.117-.814 1.66-1.239.252-.213.58-.363.764-.641-.341-.808-1.225-1.323-2.092-1.31a2.103 2.103 0 00-.332.017v.944c.375-.08.785-.009 1.122.18-.348.324-.74.593-1.122.874v1.174zm0 1.52v-.95c.298.069.614.054.897-.075.317-.13.541-.4.75-.66.23.21.45.43.653.667-.31.421-.74.762-1.24.924-.34.117-.705.145-1.06.093zm11.459-1.007c-.2-.22-.407-.432-.63-.626-.258.276-.524.585-.907.68-.85.278-1.86-.445-1.837-1.348-.065-.825.734-1.577 1.554-1.48.505.014.887.376 1.188.744.202-.214.477-.384.6-.657-.376-.681-1.217-1.05-1.981-1.014-.993.01-1.918.734-2.196 1.682-.206.74-.076 1.594.44 2.18a2.35 2.35 0 002.156.847 2.288 2.288 0 001.613-.99v-.018zm0-1.5v.469a2.104 2.104 0 01-.006-.265c-.001-.069 0-.137.006-.205zm0 1.518l.007-.01-.007-.008v.018zm2.351-3.647v.926c-.123 0-.248.016-.37.052-.631.165-1.129.793-1.075 1.457.006.752.705 1.392 1.445 1.38v.924c-.584 0-1.17-.204-1.595-.614a2.279 2.279 0 01-.756-1.527v-.47c.072-.97.839-1.835 1.784-2.056.188-.05.377-.073.567-.072zm3.051.431c.397-.322.927-.289 1.406-.28.64.005 1.283-.007 1.924.007.014.308.014.62 0 .932-.832.025-1.665-.012-2.496.015-.296-.006-.511.318-.375.588.21.309.625.231.944.244.612.026 1.295-.123 1.833.252.73.45.765 1.65.073 2.151-.311.25-.72.33-1.11.326-.793-.005-1.584.01-2.375-.012-.01-.31-.01-.62-.001-.928.885-.035 1.773.03 2.655-.03.403-.014.514-.656.114-.77-.837-.177-1.789.178-2.556-.313-.742-.466-.766-1.695-.035-2.182zm-3.05 4.308v-.924l.088-.004c.784-.027 1.45-.795 1.35-1.577-.044-.727-.73-1.303-1.439-1.308v-.926c.87.004 1.723.516 2.117 1.302.446.896.277 2.091-.477 2.774-.427.442-1.033.663-1.64.663zm12.034-3.913v2.942a2.25 2.25 0 01-.459-1.037 2.458 2.458 0 01.46-1.905zm-5.021-.665c-.008.824-.022 1.65.003 2.474.037.917.74 1.754 1.631 1.956.745.193 1.592-.037 2.117-.605.38-.383.583-.916.596-1.452.016-.79 0-1.58.007-2.37a9.631 9.631 0 00-1.04.002c-.002.79.01 1.58.001 2.37.002.585-.536 1.1-1.12 1.084-.594.04-1.172-.483-1.158-1.084-.008-.792.011-1.584-.007-2.376a12.916 12.916 0 00-1.03 0zm6.806-.016v.947a3.064 3.064 0 00-.762.13c-.736.423-.728 1.604-.094 2.12.232.223.543.327.855.323v.997c-.698.012-1.358-.35-1.784-.894v-2.942c.224-.285.52-.505.88-.612.299-.055.6-.068.904-.07zm0 4.517v-.996c.38-.005.762-.172.998-.484.5-.57.255-1.374.317-2.059-.433-.013-.878-.054-1.316-.03v-.948c.438 0 .877.026 1.314-.003 0-.596-.01-1.194.006-1.79.309-.011.62-.011.931.002.019 1.36.006 2.72.008 4.082-.016 1.125-.973 2.164-2.108 2.218-.05.005-.1.007-.15.008zM49.38 34.554l.62-3.437s-4.186-.27-4.879 3.437h-1.486l-.517 2.416h1.66l-1.253 7.074c-.494 3.968 3.802 3.802 3.802 3.802 4.562 0 4.193-3.272 4.193-3.272s-4.286 2.166-3.64-1.705l1.065-5.9h1.345s1.463 0 1.728-.874l.414-1.54H49.38zM69.845 36.532c-1.175-.194-2.566 1.096-3.14 3.949-.496 2.469-.59 4.717 1.063 4.93 1.499.195 2.63-1.482 3.14-3.948.573-2.772.578-4.66-1.063-4.931zm5.497 5.602c-.943 3.769-3.749 5.644-7.787 5.644-3.235 0-6.843-2.013-5.327-8.006.938-3.712 3.65-5.643 7.786-5.643 3.738 0 6.799 2.126 5.328 8.005zM37.742 36.458c-2.415-.209-3.075 3.44-3.075 3.44s3.663.362 4.233-1.608c0 0 .64-1.676-1.158-1.832zm-3.248 5.859s-.691 4.561 7.42 1.98c0 0 .253 3.457-4.655 3.457 0 0-8.13.892-7.12-7.12 0 0 .852-6.658 7.673-6.658 0 0 4.977-.23 4.977 3.732 0 0 .369 4.839-8.296 4.609zM57.94 37.326c2.097-3.688 4.897-2.984 4.897-2.984l-.922 4.1c-4.056-.874-4.7 3.457-4.7 3.457l-1.106 5.505h-2.074c-2.507 0-1.706-2.555-1.706-2.555l1.964-10.297h2.45s1.82-.06 1.389 1.6l-.191 1.174zM7.857 47.466s1.988.188 2.673-1.788l4.489-10.459-1.056 9.998s-.518 2.249 1.556 2.249h2.073c1.296 0 1.832-1.212 1.832-1.212l5.596-10.508-1.665 9.786c-.414 2.07 1.665 1.934 1.665 1.934h2.753l2.79-16.184h-4.575c-1.843 0-2.304.998-2.304.998l-4.83 8.786.768-7.91c.234-2.066-2.08-1.874-2.08-1.874h-4.187L6.269 47.466h1.588z"
            fill="#E30016"></path>
    </g>
    <defs>
        <clipPath id="logo-bandera=Metro_svg__clip0">
            <path fill="#fff" d="M0 0h82v82H0z"></path>
        </clipPath>
    </defs>
</svg>