<svg width="244" height="258" viewBox="0 0 244 258" fill="none" xmlns="http://www.w3.org/2000/svg">
    <path
        d="M129.9 45.6C147.131 45.6 161.1 35.3921 161.1 22.8C161.1 10.2079 147.131 0 129.9 0C112.669 0 98.7 10.2079 98.7 22.8C98.7 35.3921 112.669 45.6 129.9 45.6Z"
        fill="#FFDCB3" />
    <path
        d="M168.5 172.7C159.9 194.3 150 208.8 138.8 216.4C127.6 223.9 114.6 224.8 99.8999 218.9C85.6999 213.2 76.9999 203.6 74.0999 190C71.0999 176.4 73.7999 159.2 82.0999 138.3C90.7999 116.5 100.7 101.8 111.9 94.3C123.1 86.8 136 85.9 150.6 91.8C164.9 97.5 173.5 107.2 176.5 120.9C179.5 134.6 176.8 151.9 168.5 172.7ZM108.1 148.6C102.1 163.8 98.9999 175.1 98.9999 182.7C98.9999 190.3 102.1 195.3 108.3 197.8C114.4 200.2 120.1 198.7 125.5 193.1C130.9 187.5 136.5 177.3 142.5 162.3C148.5 147.1 151.5 135.7 151.4 128C151.3 120.3 148.2 115.2 142.2 112.8C136.1 110.4 130.3 111.9 125.1 117.5C119.8 123.1 114.1 133.5 108.1 148.6Z"
        fill="#E1F0FF" />
    <path
        d="M168.5 165.7C159.9 187.3 150 201.8 138.8 209.4C127.6 216.9 114.6 217.8 99.8999 211.9C85.6999 206.2 76.9999 196.6 74.0999 183C71.0999 169.4 73.7999 152.2 82.0999 131.3C90.7999 109.5 100.7 94.8 111.9 87.3C123.1 79.8 136 78.9 150.6 84.8C164.9 90.5 173.5 100.2 176.5 113.9C179.5 127.6 176.8 144.9 168.5 165.7ZM108.1 141.6C102.1 156.8 98.9999 168.1 98.9999 175.7C98.9999 183.3 102.1 188.3 108.3 190.8C114.4 193.2 120.1 191.7 125.5 186.1C130.9 180.5 136.5 170.3 142.5 155.3C148.5 140.1 151.5 128.7 151.4 121C151.3 113.3 148.2 108.2 142.2 105.8C136.1 103.4 130.3 104.9 125.1 110.5C119.8 116.1 114.1 126.5 108.1 141.6Z"
        stroke="#80C0FF" stroke-width="2" stroke-miterlimit="10" />
    <path
        d="M67.6999 200.8L60.8999 201.3C59.6999 201.4 58.8999 202.4 58.9999 203.6L60.1999 218.3C60.2999 219.5 59.3999 220.5 58.2999 220.6L43.5999 221.8C42.3999 221.9 41.3999 221 41.2999 219.9L40.0999 205.2C39.9999 204 38.9999 203.2 37.7999 203.3L2.99994 206.1C1.99994 206 0.999939 205.2 0.899939 204L-6.10352e-05 193.3C-6.10352e-05 192.9 0.099939 192.5 0.299939 192.1L34.6999 131.5C34.9999 130.9 35.6999 130.5 36.3999 130.4L50.9999 129.2C52.1999 129.1 53.1999 130 53.2999 131.1L57.4999 184.3C57.5999 185.5 58.5999 186.3 59.7999 186.2L66.5999 185.7C67.7999 185.6 68.7999 186.5 68.8999 187.6L69.7999 198.4C69.7999 199.7 68.8999 200.7 67.6999 200.8ZM38.7999 188L37.5999 172.5C37.3999 169.9 37.1999 166.2 36.9999 161.2C36.7999 156.3 36.7999 153.4 36.7999 152.6H36.2999C34.9999 156.1 33.3999 159.6 31.4999 163L16.7999 189.6L38.7999 188Z"
        fill="#166DC2" />
    <path
        d="M241.1 195.4L234.3 195.2C233.1 195.2 232.2 196.1 232.1 197.2L231.6 212C231.6 213.2 230.6 214.1 229.4 214L214.7 213.5C213.5 213.5 212.6 212.5 212.7 211.3L213.2 196.5C213.2 195.3 212.3 194.4 211.2 194.3L176.3 193.1C175.1 193.1 174.2 192.1 174.3 190.9L174.7 180.2C174.7 179.8 174.9 179.4 175.1 179L216.3 122.7C216.7 122.1 217.4 121.8 218.1 121.8L232.7 122.3C233.9 122.3 234.8 123.3 234.7 124.5L232.8 177.8C232.8 179 233.7 179.9 234.8 180L241.6 180.2C242.8 180.2 243.7 181.2 243.6 182.4L243.2 193.2C243.2 194.6 242.2 195.5 241.1 195.4ZM213.8 179.4L214.4 163.9C214.5 161.3 214.7 157.6 215.1 152.6C215.5 147.7 215.8 144.8 215.9 144H215.4C213.7 147.4 211.8 150.6 209.5 153.8L191.8 178.6L213.8 179.4Z"
        fill="#166DC2" />
    <path
        d="M129.9 60.9C157.459 60.9 179.8 50.0205 179.8 36.6C179.8 23.1795 157.459 12.3 129.9 12.3C102.341 12.3 79.9999 23.1795 79.9999 36.6C79.9999 50.0205 102.341 60.9 129.9 60.9Z"
        fill="#0D4275" />
    <path
        d="M129.9 60.9C157.459 60.9 179.8 51.1846 179.8 39.2C179.8 27.2154 157.459 17.5 129.9 17.5C102.341 17.5 79.9999 27.2154 79.9999 39.2C79.9999 51.1846 102.341 60.9 129.9 60.9Z"
        fill="#166DC2" />
    <path
        d="M101.1 40.2C101.1 52.2 157.4 60.9 129.8 60.9C102.2 60.9 79.9999 51.2 79.9999 39.2C79.9999 27.2 102.3 17.5 129.9 17.5C157.5 17.5 101.1 28.2 101.1 40.2Z"
        fill="#1C8AF5" />
    <path
        d="M129.9 56.1C147.131 56.1 161.1 50.0111 161.1 42.5C161.1 34.989 147.131 28.9 129.9 28.9C112.669 28.9 98.7 34.989 98.7 42.5C98.7 50.0111 112.669 56.1 129.9 56.1Z"
        fill="#80C0FF" />
    <path
        d="M129.9 31.9C146 31.9 159.2 37.2 160.9 44C161 43.5 161.1 43 161.1 42.5C161.1 35 147.1 28.9 129.9 28.9C112.7 28.9 98.5999 35 98.5999 42.5C98.5999 43 98.6999 43.5 98.7999 44C100.6 37.2 113.8 31.9 129.9 31.9Z"
        fill="#0D4275" />
    <path
        d="M129.4 22.3C131.664 22.3 133.5 21.4046 133.5 20.3C133.5 19.1954 131.664 18.3 129.4 18.3C127.136 18.3 125.3 19.1954 125.3 20.3C125.3 21.4046 127.136 22.3 129.4 22.3Z"
        fill="white" />
    <path
        d="M118.08 9.59335C123.517 7.42202 127.443 4.45601 126.848 2.96858C126.254 1.48115 121.365 2.03556 115.929 4.20689C110.492 6.37822 106.566 9.34423 107.16 10.8317C107.754 12.3191 112.643 11.7647 118.08 9.59335Z"
        fill="#FFF7F0" />
    <path
        d="M177.3 41.4C178.073 41.4 178.7 40.5046 178.7 39.4C178.7 38.2955 178.073 37.4 177.3 37.4C176.527 37.4 175.9 38.2955 175.9 39.4C175.9 40.5046 176.527 41.4 177.3 41.4Z"
        fill="white" />
    <path
        d="M83.6999 40.5C84.4731 40.5 85.0999 39.6046 85.0999 38.5C85.0999 37.3954 84.4731 36.5 83.6999 36.5C82.9267 36.5 82.2999 37.3954 82.2999 38.5C82.2999 39.6046 82.9267 40.5 83.6999 40.5Z"
        fill="white" />
    <path
        d="M161 42.1C160.5 34.8 146.8 28.9 129.8 28.9C112.6 28.9 98.5999 35 98.5999 42.5L63.2999 168H198.6L161 42.1Z"
        fill="url(#paint0_linear_148_5971)" />
    <path
        d="M112.4 38.5C112.952 38.5 113.4 38.0523 113.4 37.5C113.4 36.9477 112.952 36.5 112.4 36.5C111.848 36.5 111.4 36.9477 111.4 37.5C111.4 38.0523 111.848 38.5 112.4 38.5Z"
        fill="white" />
    <path
        d="M150.9 52.7C151.452 52.7 151.9 52.2523 151.9 51.7C151.9 51.1477 151.452 50.7 150.9 50.7C150.348 50.7 149.9 51.1477 149.9 51.7C149.9 52.2523 150.348 52.7 150.9 52.7Z"
        fill="white" />
    <path
        d="M103.6 93C104.152 93 104.6 92.5523 104.6 92C104.6 91.4477 104.152 91 103.6 91C103.048 91 102.6 91.4477 102.6 92C102.6 92.5523 103.048 93 103.6 93Z"
        fill="white" />
    <path
        d="M91.9999 148C92.5522 148 92.9999 147.552 92.9999 147C92.9999 146.448 92.5522 146 91.9999 146C91.4477 146 90.9999 146.448 90.9999 147C90.9999 147.552 91.4477 148 91.9999 148Z"
        fill="white" />
    <path
        d="M157.7 78C158.252 78 158.7 77.5523 158.7 77C158.7 76.4477 158.252 76 157.7 76C157.148 76 156.7 76.4477 156.7 77C156.7 77.5523 157.148 78 157.7 78Z"
        fill="white" />
    <path
        d="M156.7 117.4C157.252 117.4 157.7 116.952 157.7 116.4C157.7 115.848 157.252 115.4 156.7 115.4C156.148 115.4 155.7 115.848 155.7 116.4C155.7 116.952 156.148 117.4 156.7 117.4Z"
        fill="white" />
    <path
        d="M78.1999 49.1C72.6999 44.9 69.4999 40 69.4999 34.7C69.4999 28.8 73.4999 23.3 80.1999 18.8"
        stroke="#166DC2" stroke-width="2" stroke-miterlimit="10" stroke-linecap="round"
        stroke-linejoin="round" />
    <path d="M188 40.3C185.8 45.4 180.5 49.9 173.2 53.6" stroke="#166DC2" stroke-width="2"
        stroke-miterlimit="10" stroke-linecap="round" stroke-linejoin="round" />
    <path d="M103.6 50.7L98.5999 72.3" stroke="#1C8AF5" stroke-width="4" stroke-miterlimit="10"
        stroke-linecap="round" stroke-linejoin="round" />
    <path d="M76.3998 98.5L73.3998 109.3" stroke="#E1F0FF" stroke-width="4" stroke-miterlimit="10"
        stroke-linecap="round" stroke-linejoin="round" />
    <path d="M178.2 81.3L175.2 70.5" stroke="#1C8AF5" stroke-width="4" stroke-miterlimit="10"
        stroke-linecap="round" stroke-linejoin="round" />
    <path d="M162.1 91.3L161.1 87.6" stroke="white" stroke-width="4" stroke-miterlimit="10"
        stroke-linecap="round" stroke-linejoin="round" />
    <path
        d="M233 97.2143C233 95.1429 231.301 93.5 229.177 93.5C228.965 93.5 228.752 93.5 228.54 93.5714C227.903 91.5714 225.991 90.1429 223.726 90.1429C223.442 90.1429 223.159 90.1429 222.876 90.2143C221.956 88.8571 220.398 88 218.628 88C215.867 88 213.602 90.2143 213.602 92.9286C213.602 93.2143 213.602 93.4286 213.672 93.7143C213.389 93.6429 213.106 93.5714 212.823 93.5714C210.699 93.5714 209 95.2143 209 97.2857C209 99.3571 210.699 101 212.823 101C212.965 101 213.106 101 213.177 100.929H228.752C228.894 100.929 229.035 101 229.106 101C229.248 101 229.389 101 229.46 100.929H229.602C231.584 100.643 233 99.0714 233 97.2143Z"
        fill="#B8DCFF" />
    <path
        d="M46.8999 66.9C46.8999 64 44.4999 61.7 41.4999 61.7C41.1999 61.7 40.8999 61.7 40.5999 61.8C39.6999 59 36.9999 57 33.7999 57C33.3999 57 32.9999 57 32.5999 57.1C31.2999 55.2 29.0999 54 26.5999 54C22.6999 54 19.4999 57.1 19.4999 60.9C19.4999 61.3 19.4999 61.6 19.5999 62C19.1999 61.9 18.7999 61.8 18.3999 61.8C15.3999 61.8 12.9999 64.1 12.9999 67C12.9999 69.9 15.3999 72.2 18.3999 72.2C18.5999 72.2 18.7999 72.2 18.8999 72.1H40.8999C41.0999 72.1 41.2999 72.2 41.3999 72.2C41.5999 72.2 41.7999 72.2 41.8999 72.1H42.0999C44.8999 71.7 46.8999 69.5 46.8999 66.9Z"
        fill="#B8DCFF" />
    <path
        d="M114.3 257.8C130.427 257.8 143.5 255.651 143.5 253C143.5 250.349 130.427 248.2 114.3 248.2C98.1732 248.2 85.0999 250.349 85.0999 253C85.0999 255.651 98.1732 257.8 114.3 257.8Z"
        fill="#E1F0FF" />
    <defs>
        <linearGradient id="paint0_linear_148_5971" x1="130.706" y1="164.926" x2="118.96"
            y2="3.90883" gradientUnits="userSpaceOnUse">
            <stop stop-color="white" stop-opacity="0" />
            <stop offset="0.5625" stop-color="#80C0FF" stop-opacity="0.67" />
            <stop offset="0.927083" stop-color="#FFE819" stop-opacity="0.65" />
        </linearGradient>
    </defs>
</svg>
    