<svg width="451" height="142" viewBox="0 0 451 142" fill="none" xmlns="http://www.w3.org/2000/svg">
    <path
        d="M130.368 82.1978C126.771 80.1817 123.912 77.3749 121.803 73.7906C119.695 70.2064 118.641 66.1609 118.641 61.6411C118.641 57.1212 119.695 53.1285 121.803 49.5574C123.912 45.9731 126.771 43.1795 130.368 41.1502C133.966 39.134 137.919 38.1194 142.228 38.1194C146.537 38.1194 150.543 39.134 154.114 41.1502C157.685 43.1663 160.532 45.9731 162.614 49.5574C164.696 53.1416 165.75 57.1607 165.75 61.6411C165.75 66.1214 164.709 70.2196 162.614 73.7906C160.532 77.3749 157.685 80.1685 154.088 82.1978C150.49 84.214 146.537 85.2286 142.228 85.2286C137.919 85.2286 133.966 84.214 130.368 82.1978ZM149.542 75.1084C151.65 73.8565 153.297 72.0644 154.483 69.732C155.669 67.3996 156.262 64.6982 156.262 61.6279C156.262 58.5576 155.669 55.8562 154.483 53.5633C153.297 51.2573 151.65 49.4915 149.542 48.2528C147.433 47.0273 144.995 46.408 142.228 46.408C139.461 46.408 137.01 47.0273 134.875 48.2528C132.74 49.4783 131.08 51.2573 129.894 53.5633C128.708 55.8694 128.115 58.5576 128.115 61.6279C128.115 64.6982 128.708 67.3996 129.894 69.732C131.08 72.0644 132.74 73.8433 134.875 75.1084C137.01 76.3602 139.448 76.9796 142.228 76.9796C145.009 76.9796 147.433 76.3602 149.542 75.1084Z"
        fill="white"></path>
    <path
        d="M184.831 49.3465C186.913 48.2265 189.298 47.6598 191.973 47.6598C195.096 47.6598 197.916 48.4241 200.446 49.9659C202.976 51.5076 204.966 53.6951 206.442 56.5282C207.917 59.3614 208.642 62.6425 208.642 66.3717C208.642 70.101 207.904 73.4085 206.442 76.2943C204.966 79.167 202.976 81.4072 200.446 82.9885C197.916 84.5697 195.096 85.3604 191.973 85.3604C189.298 85.3604 186.939 84.8069 184.883 83.7132C182.841 82.6195 181.18 81.2359 179.915 79.5623V100.844C179.915 101.569 179.322 102.162 178.598 102.162H172.009C171.284 102.162 170.691 101.569 170.691 100.844V49.5837C170.691 48.859 171.284 48.266 172.009 48.266H178.598C179.322 48.266 179.915 48.859 179.915 49.5837V53.5369C181.101 51.8634 182.735 50.4666 184.817 49.3597L184.831 49.3465ZM197.876 60.6791C196.98 59.0715 195.794 57.8591 194.318 57.029C192.843 56.1988 191.248 55.7771 189.548 55.7771C187.848 55.7771 186.307 56.212 184.831 57.0553C183.355 57.9118 182.169 59.1505 181.273 60.7845C180.377 62.4053 179.929 64.3161 179.929 66.5167C179.929 68.7173 180.377 70.6281 181.273 72.2489C182.169 73.8697 183.355 75.1084 184.831 75.9781C186.307 76.8346 187.875 77.2563 189.548 77.2563C191.222 77.2563 192.856 76.8214 194.318 75.9385C195.794 75.0557 196.98 73.8038 197.876 72.183C198.772 70.5622 199.22 68.6251 199.22 66.3849C199.22 64.1448 198.772 62.2867 197.876 60.6791Z"
        fill="white"></path>
    <path
        d="M247.041 69.284H220.357C220.581 71.9195 221.503 73.9883 223.124 75.4774C224.745 76.9664 226.748 77.7175 229.12 77.7175C232.269 77.7175 234.575 76.4789 236.064 73.9883C236.315 73.5798 236.736 73.3031 237.224 73.3031H244.498C245.434 73.3031 246.092 74.2651 245.723 75.1348C244.577 77.8361 242.772 80.1158 240.321 81.9738C237.329 84.2404 233.666 85.3736 229.318 85.3736C225.799 85.3736 222.65 84.5961 219.869 83.028C217.076 81.4731 214.902 79.2593 213.347 76.413C211.792 73.5535 211.014 70.2591 211.014 66.5299C211.014 62.8007 211.778 59.4405 213.32 56.581C214.862 53.7215 217.01 51.534 219.777 49.9923C222.544 48.4505 225.733 47.6862 229.331 47.6862C233.376 47.6862 236.921 48.7009 239.991 50.7302C241.388 51.6526 242.64 52.8254 243.655 54.1563C246.092 57.3716 247.318 61.2194 247.318 65.7393C247.318 67.057 247.226 68.243 247.054 69.2972L247.041 69.284ZM237.751 63.0906C237.712 60.7187 236.855 58.8211 235.182 57.3848C233.508 55.9616 231.466 55.2501 229.054 55.2501C226.774 55.2501 224.85 55.9485 223.282 57.3321C221.714 58.7157 220.765 60.6396 220.423 63.1038H237.751V63.0906Z"
        fill="white"></path>
    <path
        d="M265.661 49.3861C267.176 48.5164 268.876 47.9893 270.747 47.8048C271.538 47.7258 272.223 48.3319 272.223 49.1226V56.1066C272.223 56.8314 271.63 57.4243 270.906 57.4243H269.786C266.886 57.4243 264.699 58.1096 263.236 59.4668C261.76 60.8241 261.036 63.196 261.036 66.5826V83.4497C261.036 84.1745 260.443 84.7675 259.718 84.7675H253.129C252.404 84.7675 251.811 84.1745 251.811 83.4497V49.5838C251.811 48.859 252.404 48.266 253.129 48.266H259.718C260.443 48.266 261.036 48.859 261.036 49.5838V53.9323C262.222 51.9952 263.777 50.4798 265.674 49.3861H265.661Z"
        fill="white"></path>
    <path
        d="M275.623 56.5678C277.099 53.7083 279.089 51.5208 281.619 49.9791C284.149 48.4373 286.969 47.673 290.079 47.673C292.806 47.673 295.191 48.2265 297.221 49.3202C299.263 50.4139 300.897 51.7976 302.136 53.4711V49.5838C302.136 48.859 302.729 48.266 303.454 48.266H310.108C310.833 48.266 311.426 48.859 311.426 49.5838V83.4497C311.426 84.1745 310.833 84.7674 310.108 84.7674H303.454C302.729 84.7674 302.136 84.1745 302.136 83.4497V79.4306C300.95 81.1437 299.316 82.5668 297.221 83.6737C295.139 84.7938 292.727 85.3604 290.013 85.3604C286.942 85.3604 284.136 84.5698 281.606 82.9885C279.075 81.4072 277.086 79.1802 275.61 76.2944C274.134 73.4217 273.409 70.1142 273.409 66.3718C273.409 62.6294 274.147 59.4141 275.61 56.5546L275.623 56.5678ZM300.818 60.7582C299.935 59.1506 298.749 57.9251 297.26 57.0685C295.771 56.212 294.164 55.7903 292.451 55.7903C290.737 55.7903 289.156 56.212 287.707 57.0422C286.257 57.8724 285.084 59.0979 284.188 60.6923C283.292 62.3 282.831 64.1975 282.831 66.3981C282.831 68.5988 283.279 70.5095 284.188 72.1698C285.084 73.817 286.27 75.0821 287.746 75.9649C289.222 76.8478 290.79 77.2827 292.451 77.2827C294.111 77.2827 295.771 76.8478 297.26 76.0045C298.749 75.1479 299.935 73.9224 300.818 72.3148C301.701 70.7071 302.136 68.7832 302.136 66.5431C302.136 64.3029 301.701 62.379 300.818 60.7714V60.7582Z"
        fill="white"></path>
    <path
        d="M328.847 55.843V73.5007C328.847 74.7262 329.15 75.6223 329.743 76.1626C330.336 76.716 331.337 76.9796 332.734 76.9796H335.699C336.424 76.9796 337.017 77.5726 337.017 78.2973V83.4365C337.017 84.1613 336.424 84.7542 335.699 84.7542H331.219C323.444 84.7542 319.557 80.9723 319.557 73.4217V55.8298H316.526C315.801 55.8298 315.208 55.2368 315.208 54.5121V49.5706C315.208 48.8458 315.801 48.2528 316.526 48.2528H319.557V40.544C319.557 39.8193 320.15 39.2263 320.874 39.2263H327.529C328.254 39.2263 328.847 39.8193 328.847 40.544V48.2528H347.111V55.8298H328.847V55.843Z"
        fill="white"></path>
    <path
        d="M346.004 42.3625C344.923 41.3347 344.396 40.0433 344.396 38.5147C344.396 36.9862 344.936 35.6948 346.004 34.6538C347.084 33.6259 348.428 33.112 350.062 33.112C351.696 33.112 353.041 33.6259 354.121 34.6538C355.202 35.6816 355.729 36.973 355.729 38.5147C355.729 40.0565 355.188 41.3347 354.121 42.3625C353.041 43.3904 351.696 43.9043 350.062 43.9043C348.428 43.9043 347.084 43.3904 346.004 42.3625ZM354.609 49.5706V83.4365C354.609 84.1613 354.016 84.7543 353.291 84.7543H346.702C345.977 84.7543 345.384 84.1613 345.384 83.4365V48.2528H353.291C354.016 48.2528 354.609 48.8458 354.609 49.5706Z"
        fill="white"></path>
    <path
        d="M367.892 83.0148C365.085 81.4599 362.871 79.2461 361.276 76.3998C359.669 73.5403 358.865 70.2459 358.865 66.5167C358.865 62.7875 359.682 59.4931 361.342 56.6336C363.003 53.7741 365.243 51.5735 368.089 50.0054C370.949 48.4505 374.124 47.6598 377.643 47.6598C381.161 47.6598 384.337 48.4373 387.196 50.0054C390.056 51.5603 392.309 53.7741 393.943 56.6336C395.577 59.4931 396.421 62.7875 396.421 66.5167C396.421 70.2459 395.577 73.5403 393.891 76.3998C392.204 79.2593 389.911 81.4599 387.038 83.0148C384.166 84.5697 380.95 85.3604 377.379 85.3604C373.808 85.3604 370.698 84.5829 367.892 83.0148ZM382.097 76.0967C383.573 75.2797 384.745 74.0674 385.615 72.4465C386.498 70.8257 386.933 68.8491 386.933 66.5167C386.933 63.051 386.024 60.376 384.192 58.5048C382.374 56.6336 380.133 55.7112 377.498 55.7112C374.862 55.7112 372.662 56.6468 370.883 58.5048C369.104 60.376 368.208 63.0379 368.208 66.5167C368.208 69.9955 369.077 72.6574 370.817 74.5154C372.556 76.3866 374.731 77.309 377.366 77.309C379.04 77.309 380.608 76.9005 382.084 76.0967H382.097Z"
        fill="white"></path>
    <path
        d="M431.578 51.8503C434.253 54.5912 435.597 58.4258 435.597 63.341V83.4366C435.597 84.1613 435.004 84.7543 434.279 84.7543H427.69C426.965 84.7543 426.372 84.1613 426.372 83.4366V64.5929C426.372 61.6938 425.648 59.4668 424.198 57.8987C422.749 56.3438 420.772 55.5532 418.268 55.5532C415.765 55.5532 413.709 56.3306 412.233 57.8987C410.757 59.4537 410.032 61.6938 410.032 64.5929V83.4366C410.032 84.1613 409.439 84.7543 408.715 84.7543H402.126C401.401 84.7543 400.808 84.1613 400.808 83.4366V49.5706C400.808 48.8458 401.401 48.2529 402.126 48.2529H408.715C409.439 48.2529 410.032 48.8458 410.032 49.5706V52.7991C411.258 51.2178 412.826 49.9791 414.75 49.0699C416.661 48.1738 418.756 47.7258 421.036 47.7258C425.384 47.7258 428.903 49.0962 431.578 51.8371V51.8503Z"
        fill="white"></path>
    <path
        d="M286.405 104.891C287.568 102.732 289.178 101.045 291.236 99.8562C293.293 98.6677 295.658 98.067 298.316 98.067C301.753 98.067 304.591 98.8977 306.827 100.572C309.063 102.246 310.533 104.559 311.249 107.524H306.239C305.766 105.824 304.833 104.47 303.453 103.486C302.073 102.502 300.36 102.003 298.316 102.003C295.658 102.003 293.511 102.91 291.875 104.738C290.239 106.565 289.421 109.147 289.421 112.482C289.421 115.818 290.239 118.463 291.875 120.303C293.511 122.144 295.658 123.064 298.316 123.064C300.36 123.064 302.06 122.591 303.428 121.633C304.795 120.674 305.728 119.319 306.239 117.543H311.249C310.495 120.406 308.999 122.693 306.75 124.419C304.501 126.144 301.69 127 298.316 127C295.658 127 293.293 126.399 291.236 125.211C289.178 124.022 287.568 122.335 286.405 120.15C285.242 117.965 284.667 115.409 284.667 112.482C284.667 109.556 285.242 107.051 286.405 104.891Z"
        fill="white"></path>
    <path
        d="M340.936 114.272H318.546C318.712 117.032 319.658 119.192 321.383 120.738C323.108 122.284 325.191 123.064 327.645 123.064C329.651 123.064 331.338 122.591 332.68 121.658C334.022 120.725 334.968 119.473 335.517 117.901H340.527C339.773 120.597 338.278 122.783 336.028 124.47C333.779 126.157 330.98 127 327.645 127C324.987 127 322.61 126.399 320.514 125.211C318.418 124.022 316.77 122.323 315.581 120.125C314.393 117.926 313.792 115.383 313.792 112.482C313.792 109.581 314.367 107.051 315.53 104.866C316.693 102.68 318.316 101.006 320.412 99.8306C322.508 98.6549 324.923 98.067 327.645 98.067C330.367 98.067 332.655 98.6421 334.699 99.805C336.744 100.968 338.316 102.553 339.428 104.585C340.54 106.617 341.089 108.904 341.089 111.46C341.089 112.342 341.038 113.288 340.936 114.272ZM335.108 105.914C334.329 104.636 333.255 103.664 331.913 103C330.571 102.335 329.076 102.003 327.44 102.003C325.089 102.003 323.083 102.757 321.434 104.252C319.785 105.748 318.84 107.831 318.597 110.489H336.284C336.284 108.712 335.888 107.192 335.108 105.914Z"
        fill="white"></path>
    <path
        d="M367.389 101.109C369.498 103.166 370.559 106.144 370.559 110.029V126.54H365.958V110.693C365.958 107.895 365.255 105.76 363.862 104.278C362.469 102.795 360.552 102.054 358.137 102.054C355.722 102.054 353.728 102.821 352.284 104.355C350.84 105.888 350.111 108.125 350.111 111.051V126.54H345.46V98.5271H350.111V102.514C351.031 101.083 352.284 99.9712 353.869 99.1917C355.453 98.4121 357.204 98.0159 359.108 98.0159C362.52 98.0159 365.281 99.0511 367.389 101.109Z"
        fill="white"></path>
    <path
        d="M381.485 102.361V118.872C381.485 120.24 381.779 121.198 382.354 121.76C382.929 122.323 383.939 122.604 385.37 122.604H388.795V126.54H384.603C382.009 126.54 380.067 125.939 378.776 124.751C377.485 123.562 376.833 121.594 376.833 118.872V102.361H373.204V98.527H376.833V91.4727H381.485V98.527H388.795V102.361H381.485Z"
        fill="white"></path>
    <path
        d="M416.987 114.272H394.597C394.763 117.032 395.709 119.192 397.434 120.738C399.159 122.284 401.243 123.064 403.696 123.064C405.703 123.064 407.389 122.591 408.731 121.658C410.073 120.725 411.019 119.473 411.568 117.901H416.578C415.824 120.597 414.329 122.783 412.08 124.47C409.83 126.157 407.032 127 403.696 127C401.038 127 398.661 126.399 396.565 125.211C394.469 124.022 392.821 122.323 391.632 120.125C390.444 117.926 389.843 115.383 389.843 112.482C389.843 109.581 390.418 107.051 391.581 104.866C392.744 102.68 394.367 101.006 396.463 99.8306C398.559 98.6549 400.974 98.067 403.696 98.067C406.418 98.067 408.706 98.6421 410.75 99.805C412.795 100.968 414.367 102.553 415.479 104.585C416.591 106.617 417.14 108.904 417.14 111.46C417.14 112.342 417.089 113.288 416.987 114.272ZM411.159 105.914C410.38 104.636 409.306 103.664 407.965 103C406.623 102.335 405.127 102.003 403.492 102.003C401.14 102.003 399.134 102.757 397.485 104.252C395.837 105.748 394.891 107.831 394.648 110.489H412.335C412.335 108.712 411.939 107.192 411.159 105.914Z"
        fill="white"></path>
    <path
        d="M429.664 99.345C431.185 98.4632 433.025 98.0159 435.21 98.0159V102.821H433.984C428.77 102.821 426.163 105.645 426.163 111.307V126.54H421.511V98.5271H426.163V103.077C426.98 101.479 428.143 100.227 429.664 99.345Z"
        fill="white"></path>
    <g clip-path="url(#clip0_2604_31142)">
        <path
            d="M101.411 38.3724C99.9831 35.8265 97.8765 33.6799 95.3206 32.1923L69.3524 17.2064C66.8564 15.7688 64.011 15 61.1157 15C58.2203 15 55.3749 15.7588 52.8789 17.2064L26.9307 32.1923C24.5446 33.5801 22.5278 35.5569 21.1001 37.9031C20.7407 38.5022 20.4012 39.1511 20.0917 39.86L16.4376 47.0783C13.8717 52.1302 14.8901 58.1006 18.704 62.0043V76.4211C18.704 77.709 18.8537 78.9969 19.1632 80.2549C20.2016 84.6079 23.037 88.4218 26.9307 90.6781L52.8989 105.664C55.4049 107.112 58.2503 107.87 61.1356 107.87C64.021 107.87 66.8464 107.112 69.3624 105.674L95.3306 90.6781C100.412 87.7329 103.567 82.2717 103.567 76.4111V46.4394C103.567 43.6139 102.828 40.8184 101.431 38.3524L101.411 38.3724Z"
            fill="#E1F0FF"></path>
        <path
            d="M98.5554 46.4593V76.4311C98.5554 80.5245 96.349 84.3283 92.8147 86.375L66.8565 101.361C65.0793 102.379 63.0925 102.898 61.1157 102.898V87.3834L83.5796 74.4143V48.4761L97.0678 40.8384C98.0263 42.5257 98.5554 44.4625 98.5554 46.4593Z"
            fill="#1C8AF5"></path>
        <path
            d="M97.0679 40.8384L83.5796 48.4761L61.1158 35.507L38.8117 48.3862L25.3534 40.4989C26.3418 38.8715 27.7296 37.4938 29.4168 36.5153L55.375 21.5295C58.9094 19.4828 63.3123 19.4828 66.8566 21.5295L92.8148 36.5153C94.6218 37.5637 96.0795 39.0712 97.0679 40.8384Z"
            fill="#80C0FF"></path>
        <path
            d="M61.1157 61.4452V102.898C59.1289 102.898 57.1421 102.379 55.375 101.361L29.4168 86.375C26.6612 84.7776 24.7144 82.1219 23.9955 79.0967C23.7858 78.2281 23.676 77.3396 23.676 76.431V46.4593C23.676 44.3227 24.2751 42.2661 25.3533 40.4989L38.8117 48.3862L61.1157 61.4452Z"
            fill="#80C0FF"></path>
        <path
            d="M45.9003 72.7071L23.9456 59.8478C20.3015 57.7112 18.9437 53.1086 20.8606 49.3447L25.3534 40.4989L61.1158 61.4452L57.0623 69.4323C54.9757 73.5357 49.8739 75.0333 45.9003 72.7071Z"
            fill="#1C8AF5"></path>
    </g>
    <defs>
        <clipPath id="clip0_2604_31142">
            <rect width="89" height="93" fill="white" transform="translate(15 15)"></rect>
        </clipPath>
    </defs>
</svg>