<svg xmlns="http://www.w3.org/2000/svg" viewBox="0 0 96 96">
    <path d="M17 73.5V47.5L24.5 50.5V68.5L47 76V84L17 73.5Z" fill="#E1F0FF" />
    <path d="M69.5 47L76.5 44.5V73.5L47 83.5V76L69.5 68.5V47Z" fill="#E1F0FF" />
    <path d="M27.5 35.5L18.5 32.5L17 32L47 21.5L77 32L67 35.5L47 28.5L27.5 35.5Z" fill="#FFDCB2" />
    <path
        d="M46.7878 85.3143C46.7833 85.3143 46.7811 85.3143 46.7744 85.3143C46.7721 85.3143 46.7721 85.3143 46.7699 85.3143C46.6583 85.3121 46.5466 85.2987 46.435 85.2697H46.4328C46.3993 85.2608 46.3658 85.2518 46.3345 85.2407L16.6572 75.2477C16.0856 75.0557 15.7016 74.5177 15.7039 73.9149C15.7039 73.8256 15.7485 64.7994 15.6302 53.5897C15.6079 51.5134 15.59 49.4751 15.5766 47.5328C15.5721 46.7603 16.1928 46.1285 16.9675 46.124C16.9697 46.124 16.9742 46.124 16.9764 46.124C17.7444 46.124 18.3695 46.7447 18.3762 47.5149C18.3896 49.455 18.4075 51.4889 18.4298 53.5629C18.5258 62.6204 18.5146 70.2557 18.5079 72.9214L45.3902 81.97C45.3902 77.9514 45.3924 68.6081 45.3924 62.5199L45.3946 42.9047L16.6348 33.2466C16.0119 33.106 15.5498 32.5523 15.5498 31.887V31.8758C15.5498 31.436 15.7552 31.023 16.1057 30.7596C16.4562 30.4961 16.9094 30.4113 17.3314 30.5296C17.3515 30.5363 17.3894 30.5475 17.4095 30.5542L46.7833 40.4154L76.0789 30.5497C76.8134 30.3041 77.606 30.697 77.8516 31.4293C78.0994 32.1616 77.7042 32.9564 76.9719 33.202L48.1943 42.8913C48.1943 43.7687 48.192 45.1707 48.1898 46.892V62.415C48.1943 69.001 48.1898 78.0384 48.1876 81.9633L74.9693 72.9169C74.9604 70.441 74.9492 63.6451 75.043 54.9672C75.0854 51.0937 75.1033 47.1622 75.1145 44.5434C75.1167 43.7731 75.744 43.1502 76.5143 43.1502C76.5165 43.1502 76.5187 43.1502 76.521 43.1502C77.2934 43.1525 77.9185 43.7821 77.9141 44.5545C77.9029 47.1778 77.8851 51.1138 77.8426 54.9962C77.7266 65.9045 77.7734 73.8323 77.7734 73.9104C77.7779 74.5132 77.3939 75.0513 76.8224 75.2455L47.241 85.2362C47.2253 85.2407 47.2097 85.2451 47.1941 85.2518H47.1919H47.1896C47.0579 85.2942 46.9217 85.3143 46.7878 85.3143Z"
        fill="#166DC2"
    />
    <path
        d="M37.0426 55.677C36.893 55.677 36.7434 55.6525 36.5961 55.6034L6.91197 45.6127C6.48332 45.4675 6.15067 45.126 6.01895 44.6929C5.88723 44.2597 5.9743 43.7887 6.25113 43.4315L14.9782 32.1392L3.64574 23.421C3.22155 23.0951 3.02062 22.557 3.12778 22.0324C3.23495 21.5077 3.63011 21.0925 4.14583 20.9563L35.6829 12.7516C36.0781 12.6489 36.5023 12.7248 36.8372 12.9593L46.8346 19.9494L59.1181 10.9544C59.4508 10.7111 59.8727 10.6262 60.2723 10.7222L91.8273 18.3286C92.3453 18.4536 92.7471 18.8599 92.8632 19.3801C92.9816 19.8981 92.794 20.4406 92.381 20.7755L78.6441 31.9338L87.4716 40.1451C87.8333 40.48 87.9895 40.9823 87.8868 41.4646C87.7841 41.9468 87.4336 42.3375 86.967 42.496L57.3834 52.4889C56.9012 52.6519 56.3676 52.5403 55.9903 52.1965L46.9641 43.936L38.1432 55.1435C37.8731 55.4873 37.4645 55.677 37.0426 55.677ZM9.66695 43.5855L36.5536 52.6363L44.4636 42.5875L17.4496 33.5189L9.66695 43.5855ZM49.4913 42.4558L57.2696 49.5732L83.8459 40.5961L76.1815 33.4675L49.4913 42.4558ZM21.3343 31.8713L46.7832 40.4153L72.1897 31.8601L46.8547 23.1665L21.3343 31.8713ZM7.61969 22.9433L17.2085 30.3196L43.8117 21.2465L35.7656 15.6227L7.61969 22.9433ZM49.8307 21.2264L76.2351 30.2862L88.4227 20.387L60.2523 13.5955L49.8307 21.2264Z"
        fill="#FF8A00"
    />
</svg>