<svg viewBox="0 0 50 34" width="50" height="34" fill="none" xmlns="http://www.w3.org/2000/svg">
    <path d="M3.745.62A3.745 3.745 0 000 4.366v25.27a3.745 3.745 0 003.745 3.744h12.922V.621H3.745z"
        fill="#F04B6A"></path>
    <path d="M33.334.62H16.667v32.76h16.667V.62z" fill="#fff"></path>
    <path
        d="M46.255.62H33.333v32.76h12.922A3.745 3.745 0 0050 29.634V4.365A3.745 3.745 0 0046.255.621z"
        fill="#F04B6A"></path>
    <path fill-rule="evenodd" clip-rule="evenodd"
        d="M46 1H4a3 3 0 00-3 3v26a3 3 0 003 3h42a3 3 0 003-3V4a3 3 0 00-3-3zM4 0a4 4 0 00-4 4v26a4 4 0 004 4h42a4 4 0 004-4V4a4 4 0 00-4-4H4z"
        fill="#fff"></path>
</svg>