<svg viewBox="0 0 82 82" width="82px" height="82px" fill="none" xmlns="http://www.w3.org/2000/svg">
    <path fill-rule="evenodd" clip-rule="evenodd"
        d="M65.285 7.963c.946-.63 2.129-.946 3.311-.946a6.36 6.36 0 016.387 6.387c0 1.182-.316 2.286-.868 3.311C79.083 23.496 82 31.933 82 41c0 22.629-18.371 41-41 41S0 63.629 0 41 18.371 0 41 0c9.146 0 17.504 2.996 24.285 7.963z"
        fill="#fff"></path>
    <path fill-rule="evenodd" clip-rule="evenodd"
        d="M70.883 19.396c-.71.237-1.498.395-2.208.395-3.47 0-6.308-2.839-6.308-6.308 0-.789.158-1.577.394-2.208C56.691 6.86 49.2 4.258 41.08 4.258c-20.343 0-36.9 16.479-36.9 36.9 0 20.342 16.479 36.9 36.9 36.9 20.342 0 36.9-16.479 36.9-36.9-.08-8.2-2.681-15.69-7.096-21.762z"
        fill="#87338B"></path>
    <path
        d="M65.206 13.404c0-1.893 1.577-3.47 3.47-3.47 1.891 0 3.468 1.578 3.468 3.47 0 1.892-1.577 3.469-3.469 3.469a3.45 3.45 0 01-3.47-3.47z"
        fill="#EE8F13"></path>
    <path
        d="M21.603 52.984c.237-.236.552-.394.789-.551.315-.158.63-.158.946-.158.315 0 .63.079.946.158.316.157.552.315.789.551l.315.316-.71.71-.315-.316c-.158-.158-.315-.236-.473-.315-.158-.08-.394-.08-.552-.08-.158 0-.394 0-.552.08-.158.079-.315.157-.473.315a1.648 1.648 0 00-.315.473c-.08.158-.08.394-.08.552 0 .158 0 .394.08.552.078.158.157.315.315.473.315.316.63.473 1.025.473.236 0 .394 0 .552-.079.158-.078.315-.157.473-.315l.315-.315.71.71-.315.315c-.237.236-.552.394-.789.551-.315.158-.63.158-.946.158-.315 0-.63-.079-.946-.157-.316-.08-.552-.316-.789-.552a2.83 2.83 0 01-.552-.789c-.078-.315-.157-.63-.157-.946 0-.315.079-.63.157-.946.158-.316.316-.63.552-.867zM27.28 53.694c-.315.315-.473.63-.473 1.025 0 .236.079.473.158.63l.394-.394.552-.551.552-.552c.158-.158.315-.316.473-.395-.315-.157-.552-.157-.867-.157-.316 0-.552.157-.789.394zm2.444 1.813l.71.71-.315.315a2.834 2.834 0 01-.789.552c-.315.158-.63.158-.946.158-.315 0-.63-.079-.946-.158a2.834 2.834 0 01-.789-.552c-.236-.236-.394-.552-.552-.788-.078-.316-.157-.63-.157-.946 0-.316.079-.631.157-.946.08-.316.316-.552.552-.789.237-.236.552-.394.789-.552.315-.158.63-.158.946-.158.315 0 .63.08.946.158.316.158.552.316.789.552l.315.316-2.76 2.76c.316.157.552.157.868.157.315-.079.552-.158.788-.394l.394-.395zM30.907 53.773c.158-.315.316-.552.552-.789.237-.236.473-.394.789-.551.315-.158.63-.158.946-.158.315 0 .63.079.946.158.315.157.552.315.788.551.237.237.395.474.552.789.158.315.158.63.158.946v2.444h-.946V54.72c0-.236 0-.394-.08-.552a1.648 1.648 0 00-.315-.473c-.157-.158-.315-.236-.472-.315-.158-.08-.395-.08-.553-.08-.236 0-.394 0-.551.08-.158.079-.316.157-.473.315-.158.158-.237.316-.316.473-.079.158-.079.394-.079.552v2.444h-.946V54.72c-.157-.315-.079-.63 0-.946zM36.742 52.984c.236-.236.473-.394.788-.551.316-.158.631-.158.947-.158.315 0 .63.079.946.158.315.157.552.315.788.551l.316.316-.71.71-.315-.316c-.158-.158-.316-.236-.474-.315-.157-.08-.394-.08-.551-.08-.158 0-.395 0-.552.08-.158.079-.316.157-.473.315a1.648 1.648 0 00-.316.473c-.079.158-.079.394-.079.552 0 .158 0 .394.08.552.078.158.157.315.315.473.315.316.63.473 1.025.473.236 0 .394 0 .552-.079.157-.078.315-.157.473-.315l.315-.315.71.71-.316.315c-.236.236-.552.394-.788.551-.316.158-.631.158-.946.158-.316 0-.631-.079-.947-.157-.315-.08-.552-.316-.788-.552a2.83 2.83 0 01-.552-.789c-.079-.394-.158-.71-.158-1.025 0-.315.08-.63.158-.946.158-.237.315-.552.552-.789zM41.946 54.72c0 .236.078.393.078.551.08.158.158.315.316.473.157.158.315.237.473.316.158.078.394.078.552.078.236 0 .394-.078.552-.078.157-.08.315-.158.473-.316.157-.158.236-.315.315-.473.08-.158.08-.394.08-.552 0-.236 0-.394-.08-.552a1.648 1.648 0 00-.315-.473c-.158-.158-.316-.236-.473-.315-.158-.08-.395-.08-.552-.08-.237 0-.394.08-.552.08-.158.079-.316.157-.473.315-.158.158-.237.316-.316.473-.078.158-.078.394-.078.552zm-1.025 0c0-.316.078-.632.157-.947.158-.315.316-.552.552-.789.237-.236.473-.394.789-.551.315-.158.63-.158.946-.158.315 0 .63.079.946.158.315.157.552.315.788.551.237.237.395.474.552.789.158.315.158.63.158.946 0 .316-.079.63-.158.946a2.832 2.832 0 01-.552.789 2.832 2.832 0 01-.788.552c-.315.157-.63.157-.946.157-.316 0-.63-.078-.946-.157a2.832 2.832 0 01-.789-.552 2.834 2.834 0 01-.552-.789 2.939 2.939 0 01-.157-.946zM50.698 52.275v.946h-2.996c-.158 0-.237.079-.395.158-.079.078-.157.236-.157.315 0 .158.078.236.157.394a.602.602 0 00.395.158h1.97c.237 0 .395 0 .553.079.157.078.315.157.473.315.157.158.236.315.315.473.079.158.079.394.079.552 0 .158 0 .394-.079.552a1.65 1.65 0 01-.315.473 1.65 1.65 0 01-.473.315c-.158.08-.395.08-.552.08h-2.996v-.947h2.996c.157 0 .236-.079.394-.158a.602.602 0 00.158-.394c0-.157-.08-.236-.158-.394a.602.602 0 00-.394-.158h-1.971c-.237 0-.395 0-.552-.079a1.648 1.648 0 01-.473-.315 1.65 1.65 0 01-.316-.473c-.079-.158-.079-.394-.079-.552 0-.236.08-.394.08-.552.078-.158.157-.315.315-.473.157-.158.315-.237.473-.315.157-.08.394-.08.552-.08h2.996v.08zM56.453 52.275v2.444c0 .316-.079.63-.157.946a2.834 2.834 0 01-.552.789 2.834 2.834 0 01-.789.552c-.315.157-.63.157-.946.157-.315 0-.63-.078-.946-.157a2.834 2.834 0 01-.789-.552 2.834 2.834 0 01-.552-.789c-.157-.315-.157-.63-.157-.946v-2.444h.946v2.444c0 .237.079.394.079.552.079.158.157.315.315.473.158.158.316.237.473.316.158.078.395.078.552.078.237 0 .394 0 .552-.078.158-.08.316-.158.473-.316.158-.158.237-.315.316-.473.078-.158.157-.394.157-.552v-2.444h1.025zM59.213 56.217c.236 0 .394 0 .552-.079.158-.078.315-.157.473-.315.158-.158.236-.315.315-.473.08-.158.08-.394.08-.552V53.3h-1.499c-.236 0-.394 0-.552.079-.157.079-.315.157-.473.315-.158.158-.236.316-.315.473-.08.158-.08.394-.08.552 0 .237 0 .394.08.552.079.158.157.315.315.473.158.158.316.237.473.316.237.157.394.157.631.157zm2.444-5.913v4.415c0 .316-.079.63-.157.946a2.833 2.833 0 01-.552.789 2.831 2.831 0 01-.789.552c-.315.157-.63.157-.946.157-.315 0-.63-.078-.946-.157a2.831 2.831 0 01-.789-.552 2.833 2.833 0 01-.552-.789c-.157-.315-.157-.63-.157-.946 0-.315.079-.63.157-.946.158-.315.316-.552.552-.789a2.83 2.83 0 01.789-.551c.315-.158.63-.158.946-.158h1.498v-1.971h.946zM62.525 35.008c.552-1.104 1.656-1.893 2.917-1.971h6.781v2.917h-6.544a.509.509 0 00-.473.473c0 .315.236.63.473.63h3.39c.394 0 .867 0 1.262.08 1.025.157 1.97.788 2.444 1.734.473.789.552 1.814.315 2.681-.315 1.183-1.261 2.129-2.365 2.444-.394.158-.867.158-1.34.158h-6.23v-2.917h6.624c.315 0 .552-.395.473-.71a.593.593 0 00-.552-.394h-3.233c-.552 0-1.182.079-1.734-.158-.947-.236-1.735-.867-2.13-1.735-.551-1.025-.63-2.207-.078-3.232zM11.432 34.062a5.373 5.373 0 013.312-.867c1.42.078 2.76.71 3.706 1.734.788.867 1.34 1.971 1.419 3.154.079 1.025-.079 2.129-.552 3.075a5.632 5.632 0 01-3.627 2.917c-.552.158-1.104.158-1.577.158h-2.286v4.021H8.909v-9.067c0-.552 0-1.104.08-1.656a5.494 5.494 0 012.443-3.47zm1.104 2.838a2.446 2.446 0 00-.71 1.735v2.602h2.603c.71 0 1.34-.316 1.813-.789.552-.552.789-1.34.71-2.05-.08-.552-.316-1.182-.71-1.577a2.754 2.754 0 00-1.892-.788c-.71.079-1.34.394-1.814.867zM20.342 33.667h2.918v5.835c.078.789.63 1.577 1.34 1.971.71.395 1.656.395 2.444 0 .788-.394 1.34-1.261 1.34-2.207v-5.599h2.918v5.52a5.758 5.758 0 01-.867 2.996c-.71 1.025-1.735 1.892-2.918 2.286-1.261.395-2.76.316-3.942-.236-1.892-.867-3.154-2.76-3.233-4.81v-5.756zM34.692 33.746c1.183-.63 2.602-.788 3.864-.552 1.97.473 3.705 2.13 4.1 4.1.157.71.157 1.498.157 2.208v4.494h-2.917v-5.52c0-.63-.236-1.26-.71-1.734-.551-.552-1.261-.867-2.05-.788-.63 0-1.261.315-1.734.788a2.446 2.446 0 00-.71 1.735v5.52h-2.917v-5.52c0-1.892 1.183-3.863 2.917-4.73zM55.429 33.667a5.197 5.197 0 013.075.474c1.104.473 1.971 1.34 2.523 2.365a4.88 4.88 0 01.63 3.154c-.078 1.183-.63 2.286-1.418 3.233-.868.946-1.972 1.576-3.233 1.734-1.025.158-2.129.079-3.154-.394-1.971-.867-3.312-2.917-3.233-5.046 0-1.104.316-2.13.868-2.996.946-1.42 2.444-2.366 3.942-2.524zm.236 2.918c-.788.157-1.419.71-1.734 1.34-.237.473-.316 1.104-.237 1.656.158.788.631 1.42 1.34 1.813.631.316 1.42.395 2.13.158.63-.236 1.182-.71 1.419-1.34.236-.473.315-1.025.157-1.498-.157-.789-.71-1.498-1.419-1.893a3.044 3.044 0 00-1.656-.236zM43.286 29.016h2.918v4.1h4.02v2.76h-4.02c0 .472-.08 2.995.157 3.626.316.946 1.262 1.656 2.287 1.656h1.577v2.917H48.41a5.491 5.491 0 01-3.153-1.261 5.37 5.37 0 01-1.972-3.233c-.078-.473-.078-1.025-.078-1.498v-9.067h.078z"
        fill="#fff"></path>
</svg>