<svg viewBox="0 0 82 82" width="82px" height="82px" fill="none" xmlns="http://www.w3.org/2000/svg">
    <path
        d="M65.307 8.005c.976-.586 2.148-.976 3.32-.976a6.333 6.333 0 016.344 6.345c0 1.171-.292 2.343-.878 3.319A41.122 41.122 0 0182 41c0 22.648-18.352 41-41 41S0 63.648 0 41 18.352 0 41 0c9.079 0 17.474 3.026 24.307 8.005z"
        fill="#fff"></path>
    <path
        d="M70.773 19.426c-.683.293-1.464.39-2.245.39a6.333 6.333 0 01-6.345-6.344c0-.781.097-1.562.39-2.246a36.852 36.852 0 00-21.671-7.028C20.597 4.198 4.099 20.695 4.099 41S20.597 77.802 41 77.802c20.305 0 36.9-16.497 36.9-36.802a37.552 37.552 0 00-7.126-21.574z"
        fill="#DF0F20"></path>
    <path
        d="M70.773 19.426c-.683.293-1.464.39-2.245.39a6.333 6.333 0 01-6.345-6.344c0-.781.097-1.562.39-2.246a36.852 36.852 0 00-21.671-7.028C20.597 4.198 4.099 20.695 4.099 41S20.597 77.802 41 77.802c20.305 0 36.9-16.497 36.9-36.802a37.552 37.552 0 00-7.126-21.574z"
        stroke="#DF0F20" stroke-width="0.052" stroke-miterlimit="3.864"></path>
    <path
        d="M65.113 13.375a3.5 3.5 0 013.515-3.514 3.5 3.5 0 013.514 3.514 3.5 3.5 0 01-3.514 3.514 3.5 3.5 0 01-3.515-3.514z"
        fill="#DF0F20"></path>
    <path d="M68.628 16.89a3.514 3.514 0 100-7.03 3.514 3.514 0 000 7.03z" stroke="#DF0F20"
        stroke-width="0.048" stroke-miterlimit="3.864"></path>
    <path
        d="M22.552 62.281c.195-.195.488-.39.78-.488.293-.098.586-.195.879-.195.293 0 .586.097.879.195.293.098.585.293.78.488l.293.293-.585.683-.39-.293c-.098-.097-.294-.195-.489-.292-.195-.098-.39-.098-.488-.098-.195 0-.39 0-.488.098-.195.097-.293.195-.488.292-.098.098-.195.293-.293.488-.098.196-.098.39-.098.489 0 .195 0 .39.098.488.098.195.195.293.293.488.293.293.586.39.976.39.195 0 .39 0 .488-.097.195-.098.293-.196.488-.293l.293-.293.586.683-.293.293c-.195.195-.488.39-.781.488-.293.098-.586.195-.879.195-.292 0-.585-.097-.878-.195-.293-.097-.488-.293-.781-.488a2.126 2.126 0 01-.488-.78c-.098-.294-.195-.587-.195-.88 0-.292.097-.585.195-.878.195-.293.39-.586.585-.781zM27.822 62.964c-.293.293-.39.586-.39.977 0 .195 0 .39.097.585l.39-.39.488-.488.586-.586.39-.39c-.292-.098-.585-.196-.78-.098-.293 0-.586.195-.781.39zm2.245 1.66l.683.683-.293.293c-.195.195-.488.39-.78.488-.293.098-.586.195-.879.195-.293 0-.586-.097-.879-.195-.292-.097-.488-.293-.78-.488a2.124 2.124 0 01-.489-.78c-.097-.294-.195-.587-.195-.88 0-.292.098-.585.195-.878.098-.293.293-.488.489-.781.195-.195.488-.39.78-.488.293-.098.586-.195.879-.195.293 0 .586.097.879.195.292.098.585.293.78.488l.293.293-2.538 2.538c.293.098.488.195.781.098.293 0 .586-.196.781-.39l.293-.196zM31.045 63.94c0-.292.097-.585.195-.878.098-.293.293-.488.488-.683.195-.196.488-.39.781-.488.293-.098.586-.196.879-.196.293 0 .585.098.878.196.293.097.488.292.781.488.195.195.39.488.488.683.098.293.196.586.196.879v2.342h-.88v-2.342c0-.196 0-.39-.097-.489-.097-.195-.195-.292-.293-.488-.097-.097-.292-.195-.39-.292-.195-.098-.39-.098-.586-.098-.195 0-.39 0-.585.098-.196.097-.293.195-.489.292-.097.098-.195.293-.293.489-.097.195-.097.292-.097.488v2.342h-.976v-2.342zM36.608 62.281c.195-.195.488-.39.781-.488.293-.098.586-.195.879-.195.292 0 .585.097.878.195.293.098.586.293.781.488l.293.293-.586.683-.292-.293c-.098-.097-.293-.195-.489-.292-.195-.098-.39-.098-.488-.098-.195 0-.39 0-.488.098-.195.097-.293.195-.488.292-.098.098-.195.293-.293.488-.097.196-.097.39-.097.489 0 .195 0 .39.097.488.098.195.196.293.293.488.293.293.586.39.976.39.195 0 .39 0 .488-.097.196-.098.293-.196.489-.293l.292-.293.586.683-.39.195c-.196.196-.488.39-.781.489-.293.097-.586.195-.879.195-.293 0-.586-.098-.879-.196-.292-.097-.488-.292-.78-.488a2.126 2.126 0 01-.489-.78c-.097-.196-.097-.489-.097-.781 0-.293.097-.586.195-.88 0-.292.195-.585.488-.78zM41.392 63.94c0 .196 0 .391.098.586.098.196.195.293.293.488.098.098.293.196.488.293.195.098.39.098.586.098.195 0 .39 0 .586-.098.195-.097.292-.195.39-.293.098-.097.195-.292.293-.488.098-.195.098-.39.098-.585 0-.196 0-.39-.098-.489-.098-.195-.195-.292-.293-.488-.098-.097-.293-.195-.39-.292-.196-.098-.39-.098-.586-.098-.195 0-.39 0-.586.098-.195.097-.293.195-.488.292-.098.098-.195.293-.293.489-.098.097-.098.292-.098.488zm-.878 0c0-.292.098-.585.195-.878.098-.293.293-.488.488-.683.195-.196.488-.39.781-.488.293-.098.586-.196.879-.196.293 0 .586.098.878.196.293.097.489.292.781.488.196.195.39.488.489.683.097.293.195.586.195.879 0 .292-.098.585-.196.878-.097.293-.292.488-.488.781-.195.195-.488.39-.78.488-.293.098-.586.195-.88.195-.292 0-.585-.097-.878-.195-.293-.097-.488-.293-.78-.488a2.126 2.126 0 01-.489-.78c-.195-.294-.195-.587-.195-.88zM49.492 61.598v.878h-2.83c-.098 0-.196 0-.293.098-.098.098-.098.195-.098.293 0 .097 0 .195.098.293.097.097.195.097.292.097h1.855c.196 0 .39 0 .488.098.196.097.293.195.489.293.097.097.195.292.292.39.098.195.098.293.098.488 0 .196 0 .39-.098.586-.097.195-.195.293-.292.488-.098.098-.293.195-.489.293-.195.097-.39.097-.488.097h-2.733v-.878h2.733c.098 0 .293 0 .293-.098.098-.097.098-.195.098-.292 0-.098 0-.196-.098-.293-.097-.098-.195-.098-.293-.098h-1.855c-.195 0-.39 0-.585-.098-.195-.097-.293-.195-.39-.293-.098-.097-.196-.292-.294-.488-.097-.195-.097-.39-.097-.585 0-.195 0-.39.097-.488.098-.196.196-.293.293-.39.098-.098.293-.196.39-.294.196-.097.391-.097.586-.097h2.831zM54.765 61.598v2.245c0 .293-.098.586-.195.879-.098.292-.293.488-.489.78-.195.196-.488.39-.78.489-.293.097-.586.195-.879.195-.293 0-.586-.098-.879-.196-.292-.097-.488-.292-.78-.488a2.127 2.127 0 01-.489-.78c-.097-.293-.195-.586-.195-.88v-2.244h.879v2.245c0 .195 0 .39.097.586.098.195.196.293.293.488.098.097.293.195.39.293.196.097.391.097.586.097.196 0 .39 0 .586-.097.195-.098.293-.196.488-.293.098-.098.195-.293.293-.488.098-.196.098-.39.098-.586v-2.245h.976zM57.303 65.306c.195 0 .39 0 .488-.097.196-.098.293-.195.488-.293.098-.098.196-.293.293-.488.098-.195.098-.39.098-.586v-1.367h-1.367c-.195 0-.39 0-.586.098-.195.098-.292.195-.488.293-.097.098-.195.293-.292.39-.098.196-.098.293-.098.489 0 .195 0 .39.098.585.097.195.195.293.292.488.098.098.293.196.488.293.293.195.39.195.586.195zm2.343-5.564v4.1c0 .293-.098.586-.195.879-.098.293-.293.488-.488.78-.196.196-.488.391-.684.489-.293.097-.585.195-.878.195-.293 0-.586-.098-.879-.195-.293-.098-.488-.293-.78-.488a2.124 2.124 0 01-.489-.781c-.097-.293-.195-.586-.195-.879 0-.293.098-.585.195-.878.098-.293.293-.489.488-.684.196-.195.488-.39.781-.488.293-.097.586-.195.879-.195h1.366v-1.855h.879zM13.374 37.485l-2.538 14.253h3.612l2.538-14.253h-3.612zM15.716 51.25c.78.39 2.147.781 3.612.781 3.319 0 5.271-1.464 5.662-3.417.292-1.464-.488-2.538-2.538-3.221-1.367-.488-1.758-.683-1.66-1.172.098-.488.683-.78 1.562-.78.976 0 1.952.292 2.44.585l.976-2.245c-.683-.293-1.757-.586-3.123-.586-2.929 0-4.979 1.465-5.37 3.417-.195 1.269.489 2.44 2.832 3.124 1.269.39 1.561.683 1.464 1.171-.098.488-.586.879-1.66.879-1.073 0-2.44-.39-3.026-.781l-1.171 2.245zM32.41 48.029c0 .195-.098.39-.195.585a2.38 2.38 0 01-2.05 1.172c-.781 0-1.367-.39-1.172-1.27.196-1.268 1.757-1.659 3.71-1.659l-.293 1.172zm3.905-2.44c.39-2.441-.39-4.491-4.296-4.491-2.147 0-3.807.488-4.685.976l.293 2.05c.878-.39 2.147-.781 3.319-.781 1.757 0 1.952.78 1.854 1.367v.097c-4.1 0-7.126 1.27-7.516 4.003-.293 1.66.878 3.221 3.221 3.221a5.8 5.8 0 003.612-1.27h.098v.977h3.319c0-.586.097-1.562.293-2.538l.488-3.612zM41.684 45.88c0-.195.098-.39.195-.585.39-.976 1.465-1.562 2.44-1.562 1.66 0 2.246 1.27 1.953 2.929-.293 1.855-1.464 2.928-3.026 2.928-1.074 0-1.757-.683-1.855-1.562v-.585l.293-1.562zm-4.1 2.734a32.29 32.29 0 01-.683 3.124h3.123l.391-1.464c.586 1.269 1.855 1.66 3.221 1.66 2.636 0 5.662-1.856 6.346-5.565.585-3.222-1.074-5.272-3.905-5.272-1.66 0-2.929.586-3.807 1.465l1.073-5.955h-3.611l-2.148 12.007zM54.083 45.393c.195-.879 1.074-2.148 2.636-2.148 1.66 0 1.854 1.367 1.66 2.148h-4.296zm7.126 2.245c.098-.195.293-.683.39-1.269.489-2.538-.487-5.174-4.295-5.174-4.1 0-6.443 2.929-6.833 5.565-.586 3.221 1.367 5.271 5.271 5.271 1.562 0 3.027-.195 4.393-.683l-.097-2.148c-1.074.293-2.05.488-3.32.488-1.659 0-3.123-.683-2.928-1.952h7.42v-.098zM61.596 51.738h3.612l2.733-15.033h-3.71l-2.635 15.033zM14.644 35.143c.879.488 2.538.878 4.393.878 4.393 0 6.833-2.05 7.224-4.393.39-2.05-.684-3.319-3.417-4.295-1.952-.683-2.83-1.074-2.636-2.05.098-.683.977-1.367 2.538-1.367 1.562 0 2.636.391 3.222.684l1.269-2.636c-.879-.39-2.148-.683-4.002-.683-3.808 0-6.443 1.855-6.834 4.295-.39 2.05 1.172 3.417 3.71 4.295 1.854.586 2.538 1.074 2.343 1.953-.196.976-1.172 1.561-2.831 1.561-1.562 0-3.027-.488-3.905-.878l-1.074 2.636zM33.677 32.019c0 .195-.098.39-.196.586a2.38 2.38 0 01-2.05 1.171c-.78 0-1.366-.39-1.171-1.269.195-1.27 1.757-1.66 3.71-1.66l-.293 1.172zm3.904-2.343c.39-2.44-.39-4.49-4.295-4.49-2.147 0-3.807.488-4.686.976l.293 2.05c.879-.39 2.148-.781 3.32-.781 1.757 0 1.952.78 1.854 1.366v.098c-4.1 0-7.126 1.27-7.517 4.002-.292 1.66.88 3.222 3.222 3.222a5.8 5.8 0 003.612-1.27h.097v.977h3.32c0-.586.097-1.562.292-2.538l.488-3.612zM38.267 35.826h3.612l1.074-5.955c0-.293.097-.585.293-.78.39-.586 1.073-1.172 2.05-1.172 1.269 0 1.66.878 1.464 2.245l-.976 5.76h3.612l1.073-6.15c.586-3.027-.976-4.49-3.416-4.49-1.953 0-3.32.975-3.905 1.659h-.098l.098-1.465h-3.124c-.097.977-.293 2.05-.488 3.32l-1.269 7.028zM53.79 23.526l-.293 1.953h-1.562l-.39 2.343h1.562l-.781 4.295c-.293 1.464-.098 2.44.488 3.124.488.488 1.464.878 2.636.878.976 0 1.952-.097 2.44-.292l.39-2.441c-.39.098-.585.098-1.073.098-1.074 0-1.367-.586-1.074-1.855l.683-3.807h2.636l.39-2.343h-2.635l.488-2.831-3.905.878zM65.6 32.019c0 .195-.098.39-.196.586-.292.683-1.171 1.171-2.05 1.171-.78 0-1.366-.39-1.171-1.269.195-1.27 1.757-1.66 3.71-1.66L65.6 32.02zm4.002-2.343c.39-2.44-.39-4.49-4.295-4.49-2.148 0-3.807.488-4.686.976l.293 2.05c.878-.39 2.148-.781 3.319-.781 1.757 0 1.952.78 1.855 1.366v.098c-4.1 0-7.126 1.27-7.517 4.002-.293 1.66.879 3.222 3.221 3.222a5.8 5.8 0 003.612-1.27h.098v.977h3.32c0-.586.097-1.562.292-2.538l.488-3.612z"
        fill="#fff"></path>
</svg>