<svg viewBox="0 0 82 82" width="35" height="35" fill="none" xmlns="http://www.w3.org/2000/svg">
    <ellipse cx="39.973" cy="40" rx="39.973" ry="40" fill="#fff"></ellipse>
    <path
        d="M66.906 16.79a3.743 3.743 0 0 0 0-7.484 3.748 3.748 0 0 0-3.742 3.74 3.738 3.738 0 0 0 3.742 3.743Z"
        fill="#E8308A"></path>
    <path
        d="M77.32 40.125c0 20.578-16.68 37.258-37.257 37.258-20.579 0-37.258-16.68-37.258-37.258 0-20.578 16.672-37.258 37.25-37.258 20.586 0 37.265 16.68 37.265 37.258Z"
        fill="#E8308A"></path>
    <path
        d="m72.305 16.29-.032-.024a6.222 6.222 0 0 0-5.344-9.414 6.094 6.094 0 0 0-3.257.921A39.854 39.854 0 0 0 40 0C17.906 0 0 17.906 0 40s17.906 40 40 40 40-17.906 40-40c0-8.867-2.805-17.078-7.695-23.71ZM67 9.647a3.396 3.396 0 0 1 3.398 3.399A3.4 3.4 0 0 1 67 16.445a3.396 3.396 0 0 1-3.398-3.398A3.396 3.396 0 0 1 67 9.648Zm-27.016 66.29C20.133 75.938 4.047 59.852 4.047 40c0-19.852 16.094-35.945 35.937-35.945 7.891 0 15.196 2.554 21.125 6.867a6.178 6.178 0 0 0 5.781 8.367c.743 0 1.516-.156 2.172-.39a35.81 35.81 0 0 1 6.86 21.109c0 19.836-16.086 35.93-35.938 35.93Z"
        fill="#fff"></path>
    <path
        d="M23.117 61.352c.133-.133.281-.235.453-.297.164-.063.336-.102.508-.102s.344.04.508.102c.164.07.312.172.445.297l.32.312.618-.625-.313-.305a2.156 2.156 0 0 0-.75-.492 2.108 2.108 0 0 0-.836-.172c-.289 0-.57.055-.844.172a2.17 2.17 0 0 0-.734.492 2.04 2.04 0 0 0-.484.735 2.262 2.262 0 0 0 0 1.687c.101.274.265.516.484.735.219.218.461.382.734.5.282.109.563.156.844.156s.563-.055.836-.156c.281-.118.531-.282.75-.5l.313-.305-.618-.625-.32.305a1.3 1.3 0 0 1-.437.304 1.476 1.476 0 0 1-.516.102 1.31 1.31 0 0 1-.96-.399 1.273 1.273 0 0 1-.298-.445 1.47 1.47 0 0 1-.101-.508c0-.172.03-.343.101-.508.063-.187.164-.328.297-.46ZM30.125 60.75a2.156 2.156 0 0 0-.75-.492 2.242 2.242 0 0 0-1.687 0 2.17 2.17 0 0 0-.735.492c-.218.219-.383.46-.492.734-.11.274-.156.547-.156.836 0 .29.055.57.156.852.102.273.266.516.492.734.211.211.453.375.727.485.273.117.555.171.86.171.296 0 .585-.062.859-.171.273-.11.515-.274.726-.485l.305-.312-.625-.625-.305.304c-.21.211-.46.344-.75.391-.281.04-.547 0-.797-.125l2.477-2.484-.305-.305Zm-1.398.758-.532.531-.515.516c-.156.164-.281.28-.36.36a1.295 1.295 0 0 1-.14-.587c0-.367.133-.687.398-.953.211-.21.461-.336.735-.375.289-.04.554.008.804.133-.078.078-.218.203-.39.375ZM34.531 60.734a2.142 2.142 0 0 0-.719-.476 2.181 2.181 0 0 0-1.734 0c-.273.11-.516.273-.719.476-.195.203-.36.438-.476.711-.11.266-.172.555-.172.867v2.243h.883v-2.243c0-.187.03-.359.101-.515.07-.164.172-.313.29-.43.124-.125.273-.226.429-.289a1.347 1.347 0 0 1 1.062 0c.165.063.313.164.43.29.125.116.219.257.29.429.07.164.109.336.109.516v2.242h.882v-2.243c0-.312-.062-.601-.18-.867a2.108 2.108 0 0 0-.476-.71ZM36.758 61.352c.133-.133.28-.235.453-.297.164-.063.336-.102.508-.102s.343.04.507.102c.165.07.313.172.454.297l.32.312.617-.625-.312-.305a2.201 2.201 0 0 0-.743-.492 2.108 2.108 0 0 0-.836-.172c-.289 0-.57.055-.851.172a2.17 2.17 0 0 0-.734.492 2.17 2.17 0 0 0-.493.735 2.367 2.367 0 0 0 0 1.688c.11.273.266.515.493.734.218.218.468.382.734.5.281.109.562.156.851.156.282 0 .563-.055.836-.156.282-.118.524-.282.743-.5l.312-.305L39 62.96l-.32.305a1.302 1.302 0 0 1-.438.304 1.477 1.477 0 0 1-.516.102c-.375 0-.687-.133-.96-.399a1.273 1.273 0 0 1-.297-.445 1.31 1.31 0 0 1 0-1.016c.054-.187.156-.328.289-.46ZM43.75 60.75a2.141 2.141 0 0 0-.719-.477 2.006 2.006 0 0 0-.867-.18c-.305 0-.594.063-.867.18-.274.11-.508.274-.719.477a2.33 2.33 0 0 0-.477.703 2.26 2.26 0 0 0-.171.867c0 .305.054.594.171.867.118.274.282.508.477.72.21.21.445.366.719.484.273.117.562.171.867.171.312 0 .602-.054.867-.171.274-.118.508-.282.719-.485a2.14 2.14 0 0 0 .476-.718 2.181 2.181 0 0 0 0-1.735 1.97 1.97 0 0 0-.476-.703Zm-.336 2.102a1.258 1.258 0 0 1-.29.437 1.191 1.191 0 0 1-.429.29c-.172.07-.344.1-.531.1-.188 0-.36-.03-.523-.1a1.376 1.376 0 0 1-.438-.29 1.341 1.341 0 0 1-.39-.969c0-.187.03-.36.1-.515.071-.164.173-.313.29-.43.125-.125.273-.227.438-.29.164-.077.343-.108.523-.108.187 0 .36.039.531.109.164.062.305.164.43.289.125.117.226.266.289.43.07.156.11.328.11.515 0 .188-.04.367-.11.532ZM48.758 62.25a1.366 1.366 0 0 0-.43-.281 1.27 1.27 0 0 0-.516-.11h-1.796a.414.414 0 0 1-.32-.132.467.467 0 0 1-.126-.329.443.443 0 0 1 .445-.453h2.696v-.883h-2.695a1.375 1.375 0 0 0-.954.391 1.386 1.386 0 0 0-.289.43 1.378 1.378 0 0 0-.101.515c0 .188.031.36.101.532.07.164.172.297.29.43.117.117.257.218.421.288.164.07.344.102.532.102h1.796c.133 0 .243.047.329.125a.443.443 0 0 1 .132.32.419.419 0 0 1-.133.328.441.441 0 0 1-.328.125h-2.687v.891h2.687c.188 0 .36-.031.516-.102.164-.07.313-.171.43-.289.125-.125.218-.273.289-.43.07-.163.11-.343.11-.53 0-.188-.04-.36-.11-.516a1.402 1.402 0 0 0-.29-.422ZM53.016 62.297c0 .187-.04.367-.11.531a1.158 1.158 0 0 1-.289.438 1.3 1.3 0 0 1-.43.289 1.485 1.485 0 0 1-.523.101c-.187 0-.36-.031-.531-.101a1.598 1.598 0 0 1-.43-.29 1.523 1.523 0 0 1-.289-.437 1.494 1.494 0 0 1-.101-.531V60.07h-.883v2.227c0 .305.054.594.172.867.117.273.28.508.476.711.203.21.446.375.719.484.273.118.563.172.867.172.313 0 .602-.054.867-.172.274-.117.508-.28.72-.484.202-.203.366-.445.476-.71.117-.274.18-.563.18-.868V60.07h-.883v2.227h-.008ZM57.742 60.07H56.4c-.305 0-.594.055-.868.18a2.22 2.22 0 0 0-.718.477 2.308 2.308 0 0 0-.485.703 2.26 2.26 0 0 0-.172.867 2.177 2.177 0 0 0 .657 1.578c.203.203.445.375.718.484.274.118.563.172.868.172.304 0 .593-.054.867-.172.273-.117.508-.28.703-.484.203-.203.367-.445.476-.71.118-.274.18-.563.18-.868V58.28h-.883v1.79Zm0 2.227c0 .187-.039.367-.11.531-.07.164-.163.313-.288.438a1.386 1.386 0 0 1-.43.289 1.41 1.41 0 0 1-1.047 0 1.522 1.522 0 0 1-.437-.29 1.34 1.34 0 0 1-.39-.969c0-.187.03-.359.1-.515.071-.164.165-.304.29-.422.125-.125.273-.226.437-.289.164-.07.344-.11.532-.11h1.343v1.337ZM26.664 42.195c0-3.945-2.719-5.328-6.086-5.93-1.719-.273-2.86-.57-2.836-2.109.031-1.32 1.031-1.922 2.836-1.922 1.14 0 2.25.391 2.64 1.72.22.694.555.929 1.196.663l2.586-.93c.718-.242.86-.601.61-1.476-.892-3.04-3.087-4.664-6.837-4.664-4.836 0-8.054 2.375-8.054 6.922 0 4.18 2.968 5.93 6.273 6.406 1.719.242 2.61.813 2.61 2.078 0 1.352-1.165 2.164-3.055 2.164-1.586 0-2.47-.719-2.86-1.836-.336-.843-.64-1.023-1.336-.812l-2.586.93c-.609.21-.835.601-.609 1.53.781 3.25 3.219 4.876 7.024 4.876 5.101 0 8.46-2.492 8.484-7.61ZM44.328 34.25c0-3.758-2.03-6.258-6.359-6.258H32c-.89 0-1.195.18-1.336 1.055l-3.078 18.922c-.14.875-.031 1.383.914 1.383h2.695c.805 0 1.11-.211 1.282-1.086l.914-5.625h3.055c4.804.007 7.882-3.336 7.882-8.391Zm-9.359-1.445h2.336c1.523 0 2.11.75 2.11 2.047 0 2.015-1.22 2.976-2.97 2.976h-2.28l.804-5.023ZM44.859 49.352h2.773c.665 0 1.086-.211 1.22-1.024l3.054-19.016c.164-.93-.11-1.32-.89-1.32h-2.72c-.663 0-1.109.117-1.25 1.024L43.962 48c-.133.96.093 1.352.898 1.352ZM61.516 27.992H55.68c-.75 0-1.11.18-1.282 1.086l-3.046 18.89c-.141.93.03 1.384.859 1.384h6.305c2.453 0 4.453-.688 5.953-1.97a8.301 8.301 0 0 0 1.726-2.077c.664-1.133 1.125-2.477 1.375-4.016l.782-4.906c.828-5.078-1.805-8.39-6.836-8.39Zm1.976 8.094-.804 4.812c-.415 2.618-1.586 3.641-3.891 3.641h-1.945l1.89-11.734h2.11c2.414 0 2.968 1.148 2.64 3.28Zm1.024 11.18c-.008.015-.016.03-.016.047.008-.016.008-.032.016-.047.054-.11.101-.22.156-.32-.055.1-.102.21-.156.32Z"
        fill="#fff"></path>
</svg>