<svg width="97" height="97" viewBox="0 0 97 97" fill="none" xmlns="http://www.w3.org/2000/svg">
    <circle cx="19.5" cy="72" r="7.5" fill="#FFDCB2" />
    <circle cx="76.5" cy="72" r="7.5" fill="#FFDCB2" />
    <path d="M81 47.5H89V71.5H84.5L83.5 68.5L81 65.5V47.5Z" fill="#FFDCB2" stroke="#FFDCB2" />
    <path d="M6 18.5H13V72.5H6V18.5Z" fill="#E1F0FF" stroke="#E1F0FF" />
    <path d="M55 17.5H62V71.5H55V17.5Z" fill="#E1F0FF" stroke="#E1F0FF" />
    <path
        d="M68.0721 73.2144C68.0676 73.2144 68.0632 73.2144 68.0609 73.2144L62.8836 73.1698C62.1112 73.1631 61.4883 72.5357 61.4883 71.7632V27.0808C61.4883 26.3039 62.1179 25.6743 62.8948 25.6743H77.7145C78.2168 25.6743 78.6834 25.9445 78.9335 26.3798L90.9246 47.2319C91.0473 47.4462 91.1121 47.6873 91.1121 47.9329V71.7632C91.1121 72.5357 90.4892 73.1631 89.719 73.1698L84.7672 73.2144C84.7627 73.2144 84.7582 73.2144 84.7538 73.2144C83.9835 73.2144 83.354 72.5938 83.3473 71.8213C83.3406 71.0444 83.9634 70.4081 84.7404 70.4014L88.2991 70.3701V48.3102L76.9019 28.4896H64.3013V70.3701L68.0833 70.4036C68.8602 70.4103 69.4853 71.0466 69.4786 71.8213C69.4697 72.5915 68.8423 73.2144 68.0721 73.2144Z"
        fill="#FF8A00"
    />
    <path
        d="M89.7042 49.0536H70.1917C69.4147 49.0536 68.7852 48.424 68.7852 47.6471V32.7827C68.7852 32.0058 69.4147 31.3762 70.1917 31.3762H80.9928C81.7697 31.3762 82.3993 32.0058 82.3993 32.7827C82.3993 33.5597 81.7697 34.1892 80.9928 34.1892H71.596V46.2406H89.702C90.4789 46.2406 91.1085 46.8702 91.1085 47.6471C91.1085 48.424 90.4812 49.0536 89.7042 49.0536Z"
        fill="#FF8A00"
    />
    <path
        d="M89.7078 61.0313H62.8948C62.1179 61.0313 61.4883 60.4017 61.4883 59.6248C61.4883 58.8478 62.1179 58.2183 62.8948 58.2183H89.7056C90.4825 58.2183 91.1121 58.8478 91.1121 59.6248C91.1121 60.4017 90.4847 61.0313 89.7078 61.0313Z"
        fill="#FF8A00"
    />
    <path
        d="M28.0383 73.2143C27.2614 73.2143 26.6318 72.587 26.6318 71.81C26.6318 71.0331 27.2592 70.4035 28.0361 70.4013L61.4865 70.3589V19.5503H7.69974V70.37L10.9258 70.4013C11.7027 70.408 12.3256 71.0443 12.3189 71.8212C12.3122 72.5937 11.6826 73.2143 10.9124 73.2143C10.9079 73.2143 10.9035 73.2143 10.899 73.2143L6.27984 73.1697C5.50737 73.163 4.88672 72.5356 4.88672 71.7632V18.1438C4.88672 17.3669 5.5163 16.7373 6.29323 16.7373H62.8931C63.67 16.7373 64.2996 17.3669 64.2996 18.1438V71.7632C64.2996 72.5401 63.67 73.1697 62.8953 73.1697L28.0383 73.2143C28.0406 73.2143 28.0406 73.2143 28.0383 73.2143Z"
        fill="#166DC2"
    />
    <path
        d="M61.9876 28.4851H7.06667C6.28974 28.4851 5.66016 27.8556 5.66016 27.0786C5.66016 26.3017 6.28974 25.6721 7.06667 25.6721H61.9876C62.7645 25.6721 63.3941 26.3017 63.3941 27.0786C63.3941 27.8556 62.7645 28.4851 61.9876 28.4851Z"
        fill="#166DC2"
    />
    <path
        d="M61.9876 61.0313H7.06667C6.28974 61.0313 5.66016 60.4017 5.66016 59.6248C5.66016 58.8478 6.28974 58.2183 7.06667 58.2183H61.9876C62.7645 58.2183 63.3941 58.8478 63.3941 59.6248C63.3941 60.4017 62.7645 61.0313 61.9876 61.0313Z"
        fill="#166DC2"
    />
    <path
        d="M78.1246 71.7432C78.1246 72.7501 77.3074 73.5672 76.3006 73.5672C75.2937 73.5672 74.4766 72.7501 74.4766 71.7432C74.4766 70.7363 75.2937 69.9192 76.3006 69.9192C77.3074 69.9192 78.1246 70.7363 78.1246 71.7432Z"
        fill="#FF8A00"
    />
    <path
        d="M76.3007 80.2625C71.6034 80.2625 67.7812 76.4404 67.7812 71.7431C67.7812 67.0458 71.6034 63.2236 76.3007 63.2236C80.998 63.2236 84.8201 67.0458 84.8201 71.7431C84.8201 76.4404 80.998 80.2625 76.3007 80.2625ZM76.3007 66.0367C73.155 66.0367 70.5943 68.5974 70.5943 71.7431C70.5943 74.8887 73.1528 77.4495 76.3007 77.4495C79.4486 77.4495 82.0071 74.891 82.0071 71.7431C82.0071 68.5952 79.4464 66.0367 76.3007 66.0367Z"
        fill="#FF8A00"
    />
    <path
        d="M19.3632 80.2625C14.6659 80.2625 10.8438 76.4404 10.8438 71.7431C10.8438 67.0458 14.6659 63.2236 19.3632 63.2236C24.0605 63.2236 27.8826 67.0458 27.8826 71.7431C27.8826 76.4404 24.0605 80.2625 19.3632 80.2625ZM19.3632 66.0367C16.2175 66.0367 13.6568 68.5974 13.6568 71.7431C13.6568 74.8887 16.2175 77.4495 19.3632 77.4495C22.5089 77.4495 25.0696 74.891 25.0696 71.7431C25.0696 68.5952 22.5089 66.0367 19.3632 66.0367Z"
        fill="#FF8A00"
    />
    <path
        d="M21.1871 71.7432C21.1871 72.7501 20.3699 73.5672 19.3631 73.5672C18.3562 73.5672 17.5391 72.7501 17.5391 71.7432C17.5391 70.7363 18.3562 69.9192 19.3631 69.9192C20.3699 69.9192 21.1871 70.7363 21.1871 71.7432Z"
        fill="#FF8A00"
    />
</svg>