<svg xmlns="http://www.w3.org/2000/svg" viewBox="0 0 278.04 278.05">
    <defs>
        <style>.cls-1{fill:#fff}.cls-3{fill:red}</style>
    </defs>
    <g id="Capa_2" data-name="Capa 2">
        <g id="Capa_1-2" data-name="Capa 1">
            <path class="cls-1"
                d="M267.12 84.9a138.33 138.33 0 00-24.43-38.48A23.41 23.41 0 00207.49 18a138.7 138.7 0 1059.63 66.9z" />
            <path d="M13.3 139a125.51 125.51 0 11125.51 125.53A125.51 125.51 0 0113.3 139z"
                fill="#fffa00" />
            <path class="cls-3"
                d="M120.82 195.66a7.48 7.48 0 00-10.25 0 6.52 6.52 0 00-2.12 4.88v8.64h3.13v-8.64a3.65 3.65 0 011.21-2.75 4.26 4.26 0 015.82 0 3.68 3.68 0 011.2 2.75v8.64h3.13v-8.64a6.52 6.52 0 00-2.12-4.88zm59.96 6.34a3.61 3.61 0 01-1.14 2.71 3.91 3.91 0 01-5.52 0A3.61 3.61 0 01173 202v-7.84h-3.35V202a7.2 7.2 0 007.25 7.21 7.19 7.19 0 007.25-7.21v-7.84h-3.35zM146 193.66a7.9 7.9 0 105.59 13.48 7.9 7.9 0 00-5.59-13.48zm0 12.78a4.8 4.8 0 01-3.48-1.42 4.9 4.9 0 010-6.92 4.94 4.94 0 016.95 0 4.88 4.88 0 010 6.92 4.8 4.8 0 01-3.47 1.42zm-55.78-2.82a4.55 4.55 0 01-.82 1.14 4.72 4.72 0 01-3.47 1.43 4.81 4.81 0 01-3.48-1.46 4.89 4.89 0 016.91-6.92 4.81 4.81 0 01.84 1.19l2.19-2.2a8 8 0 00-.92-1.11 7.89 7.89 0 100 11.2 8.79 8.79 0 00.92-1.1l-2.2-2.2z" />
            <path class="cls-3"
                d="M135.89 203.62a4.81 4.81 0 01-.82 1.14 4.92 4.92 0 110-6.95 4.84 4.84 0 01.85 1.14l2.19-2.2a8.74 8.74 0 00-.92-1.11 7.89 7.89 0 100 11.2 8.79 8.79 0 00.92-1.1l-2.2-2.2zm-28.2-6a8.55 8.55 0 00-.69-1.07 7.89 7.89 0 10-7.44 12.54 8.31 8.31 0 001.21.09 7.56 7.56 0 004.64-1.59 8.23 8.23 0 001.86-1.92l-.4-.4-1.39-1.38-.4-.41a4.71 4.71 0 01-1.46 1.7 4.88 4.88 0 01-5.75.1l9.94-7.44zm-10-.25a4.72 4.72 0 012.88-1 4.62 4.62 0 01.74.06 5 5 0 012.14.83L96 202.85a4.72 4.72 0 01-.22-2.28 4.78 4.78 0 011.96-3.2zm70.52 4.69a3.48 3.48 0 00-.52-.57 4.92 4.92 0 00-3.51-1.38h-4.86a1.87 1.87 0 01-1.34-.53 1.19 1.19 0 01-.35-.93 1.18 1.18 0 01.35-.93 1.83 1.83 0 011.34-.53h8.07v-3.08h-8.07a4.93 4.93 0 00-3.51 1.38 4.06 4.06 0 00-1.29 2.79v.72a4.38 4.38 0 00.76 2.19 4.22 4.22 0 00.53.59 5 5 0 003.51 1.36h4.86a1.87 1.87 0 011.34.53 1.16 1.16 0 01.35.91 1.2 1.2 0 01-.35 1 1.86 1.86 0 01-1.34.52h-8.44v3.08h8.44a5 5 0 003.51-1.36A4.13 4.13 0 00169 205v-.76a4.32 4.32 0 00-.79-2.18zm28.71-13.98v4.41a4.57 4.57 0 000 .79v.88h-6.08a5.09 5.09 0 00-3.76 1.59 8 8 0 000 11.12 7.37 7.37 0 0010.72 0 7.78 7.78 0 002.23-5.56v-13.23zm0 13.31a4.58 4.58 0 01-1.31 3.17 4.37 4.37 0 01-6.34 0 4.77 4.77 0 010-6.57c.6-.63 2.29-.84 3.54-.84h4.11z" />
            <path class="cls-1"
                d="M221.26 60.41A23.44 23.44 0 11244.7 37a23.47 23.47 0 01-23.44 23.41zm0-23.71a.28.28 0 00-.26.3.28.28 0 10.55 0 .28.28 0 00-.29-.3z" />
            <path class="cls-3"
                d="M233.11 37a11.86 11.86 0 11-11.85-11.86A11.86 11.86 0 01233.11 37zm-94.65 98.87c16.57 0 28.06-8.29 28.06-20.83 0-8.05-6.28-15.27-19.89-15.27-19.65 0-33.49 14-33.49 38.11 0 14.92 8.28 23.91 25.09 23.91 15 0 21.3-7.79 21.74-12.79a9.28 9.28 0 00-3.75-7.8c-4.38 4.14-9 6.51-13.73 6.51-8.17 0-13.14-3.44-13.14-11.72v-1a62.65 62.65 0 009.11.88zm5.92-23.2c3.55 0 5.45 1.66 5.45 4.14 0 4.86-6.51 9.24-19.06 9.36 2.72-8.53 8.64-13.5 13.61-13.5z" />
            <path class="cls-3"
                d="M138.23 162.69c-16.77 0-26-8.81-26-24.81 0-23.7 13.5-39 34.4-39 15.34 0 20.79 8.71 20.79 16.17 0 13-11.64 21.73-29 21.73a60.28 60.28 0 01-8.21-.69c0 7.22 4 10.72 12.24 10.72 4.3 0 8.71-2.1 13.11-6.26a.91.91 0 011.13-.09 10.17 10.17 0 014.14 8.63c-.42 5.25-6.98 13.6-22.6 13.6zm8.4-62c-19.8 0-32.59 14.61-32.59 37.21 0 15.05 8.36 23 24.19 23 14.42 0 20.44-7.34 20.84-12a8.42 8.42 0 00-2.8-6.55c-4.56 4.14-9.19 6.24-13.78 6.24-9.19 0-14-4.37-14-12.62v-1a.89.89 0 01.31-.68.9.9 0 01.72-.21 63.93 63.93 0 009 .82c16.24 0 27.15-8 27.15-19.93-.06-6.56-5.03-14.3-19.04-14.3zm-15.86 26.4a.89.89 0 01-.72-.37.87.87 0 01-.14-.81c2.66-8.31 8.61-14.12 14.47-14.12 3.92 0 6.35 1.93 6.35 5 0 5-6.17 10.13-19.95 10.26zm13.61-13.5c-4.08 0-9.5 4-12.33 11.67 11.58-.4 16.87-4.58 16.87-8.43 0-2.07-1.65-3.26-4.54-3.26zm77.08 44.18V160a44.15 44.15 0 01-9.83 1.3c-4.5 0-6.86-2.61-6.86-6.75a42.81 42.81 0 011.54-9.11H205c-3.67 9.11-9.23 16.33-20 16.33-10.3 0-15.62-8.52-15.62-21.78 0-23.67 13.37-40.24 32.55-40.24 7.57 0 12.54 1.18 16.8 3.2a12.57 12.57 0 017.1-2 18.53 18.53 0 014 .48c-6.48 34.2-8.37 43.91-8.37 56.34zm-17.88-44.86c-7.57 0-15.86 11.36-15.86 25.8 0 3.91 1.9 6.27 5.21 6.27 8 0 13.14-8.76 16.69-30.41-1.07-.95-2.96-1.66-6.04-1.66z" />
            <path class="cls-3"
                d="M185 162.69c-10.5 0-16.53-8.26-16.53-22.68 0-24.22 13.76-41.14 33.46-41.14 6.85 0 12 .95 16.72 3.07a13.92 13.92 0 017.18-1.89 19.77 19.77 0 014.28.51.91.91 0 01.63 1l-.35 1.88c-6.17 32.4-8 42.18-8 54.29V160a.91.91 0 01-.7.88 44.93 44.93 0 01-10 1.32c-4.86 0-7.77-2.86-7.77-7.65a30.87 30.87 0 01.82-6.08c-3.21 6.76-8.67 14.22-19.74 14.22zm16.93-62c-18.64 0-31.65 16.18-31.65 39.34 0 13.27 5.36 20.88 14.72 20.88 8.86 0 14.78-4.86 19.17-15.77a.89.89 0 01.83-.56h1.31a.89.89 0 01.87 1.12 40.5 40.5 0 00-1.51 8.89c0 3.77 2.12 5.85 6 5.85a41 41 0 008.92-1.13v-1.52c0-12.28 1.87-22.1 8.06-54.63l.2-1a19.31 19.31 0 00-3-.27 11.73 11.73 0 00-6.57 1.84.9.9 0 01-.91.08c-4.57-2.18-9.64-3.14-16.44-3.14zM221.46 160zm-28.53-14.13c-3.77 0-6.11-2.75-6.11-7.18 0-15.28 8.85-26.7 16.76-26.7 3 0 5.23.63 6.64 1.88a.91.91 0 01.29.82c-3.58 21.87-8.84 31.2-17.58 31.2zm10.65-32.08c-6.92 0-15 10.88-15 24.9 0 2 .56 5.37 4.31 5.37 7.6 0 12.31-8.72 15.71-29.13a8.94 8.94 0 00-5.02-1.12zM91.35 155.77s29.32-67.6 29.51-68.26a2 2 0 00-1.86-2.6h-13.5c-2.14.06-3 .89-4.14 3.27l-18.57 46.73h-.31l-10.71-46.8c-.45-2.28-1.26-3.21-3.25-3.15l-15.43-.06a2.57 2.57 0 00-2.53 3c.43 1.71 17.89 68.6 17.89 68.6.57 1.71 2.24 4.49 5.06 4.28l12.95-1.09c2.61-.24 3.99-2 4.89-3.92z" />
            <path class="cls-3"
                d="M73.22 161.69c-2.93 0-4.85-2.6-5.63-4.9-.73-2.79-17.48-67-17.9-68.67a3 3 0 01.53-2.63A3.84 3.84 0 0153.06 84l15.46.06c2.94-.1 3.74 1.92 4.14 3.88l10.16 44.45 17.7-44.51c1.13-2.45 2.25-3.76 5-3.84L119 84a3 3 0 012.31 1.15 2.86 2.86 0 01.43 2.6c-.19.67-22.66 52.5-29.55 68.37-1.3 2.75-3.14 4.2-5.63 4.43l-13 1.09zM53.08 85.8a2 2 0 00-1.41.77 1.23 1.23 0 00-.24 1.1c.43 1.69 17.72 67.94 17.89 68.6.47 1.38 1.88 3.77 4.12 3.61l12.94-1.09c1.84-.17 3.12-1.22 4.15-3.39 10-23.09 29.06-67.05 29.48-68.18a1.06 1.06 0 00-.14-1 1.08 1.08 0 00-.85-.45H105.5c-1.55 0-2.26.45-3.32 2.75l-18.55 46.72a.9.9 0 01-.84.57h-.31a.89.89 0 01-.88-.7l-10.71-46.8c-.43-2.16-1-2.49-2.35-2.45zm38.28 70z" />
        </g>
    </g>
</svg>