<svg viewBox="0 0 82 82" width="35" height="35" fill="none" xmlns="http://www.w3.org/2000/svg">
    <path fill-rule="evenodd" clip-rule="evenodd"
        d="M74.153 16.868c5.197 7.092 7.975 15.898 7.842 24.686-.107 7.11-2.057 14.184-5.677 20.309-3.414 5.775-8.27 10.675-13.996 14.166-6.668 4.065-14.51 6.162-22.317 5.957A41.465 41.465 0 0125.7 79.05c-7.132-2.856-13.4-7.768-17.905-13.989a41.22 41.22 0 01-5.985-11.963C-.007 47.227-.45 40.95.457 34.874c1.22-8.17 4.972-15.915 10.632-21.932a41.412 41.412 0 0117.974-11.18C39.489-1.425 51.152-.259 60.7 5.021a38.66 38.66 0 013.234 1.972 7.271 7.271 0 013.621-1.782c1.776-.318 3.616.101 5.12 1.084 1.59 1.04 2.723 2.72 3.052 4.594.142.806.14 1.628.033 2.438a6.783 6.783 0 01-1.607 3.54z"
        fill="#fff"></path>
    <path
        d="M30.13 5.252c9.48-2.917 20.114-1.82 28.804 2.964 1.14.633 2.265 1.302 3.326 2.064-.462 1.633-.334 3.443.448 4.959a6.705 6.705 0 003.423 3.207c1.503.643 3.23.684 4.78.182 4.918 6.517 7.6 14.702 7.433 22.87a37.235 37.235 0 01-5.17 18.507A37.44 37.44 0 0160.42 72.911c-6.065 3.71-13.212 5.634-20.322 5.425a37.3 37.3 0 01-13.041-2.677c-6.496-2.587-12.213-7.074-16.305-12.74a37.363 37.363 0 01-5.455-10.902c-1.66-5.348-2.07-11.07-1.23-16.604 1.093-7.437 4.52-14.504 9.68-19.97A37.484 37.484 0 0130.13 5.254z"
        fill="#C01717"></path>
    <path
        d="M68.198 8.806c.857-.163 1.757.072 2.48.546.75.489 1.252 1.306 1.453 2.17.052.44.043.89.009 1.332-.243 1.32-1.32 2.438-2.635 2.722-.286.035-.576.019-.864.023-1.216.088-2.374-.715-2.933-1.763-.692-1.262-.468-2.938.52-3.981a3.539 3.539 0 011.97-1.05z"
        fill="#C01717"></path>
    <path
        d="M22.877 65.085c-.178.826.152 1.72.8 2.256.994.901 2.763.678 3.47-.471a8.35 8.35 0 00-.633-.64c-.277.338-.611.686-1.072.732-.858.165-1.748-.616-1.685-1.489.01-.761.726-1.424 1.487-1.38.52-.011.962.332 1.234.75.239-.202.461-.42.663-.66-.426-.66-1.218-1.05-2-1.015-1.081-.003-2.082.857-2.264 1.917zm6.39-1.902v.944a1.278 1.278 0 00-.608.31c-.446.355-.59.961-.478 1.504.296-.109.517-.34.771-.52.103-.081.209-.16.316-.24v1.175c-.162.125-.321.254-.476.387.147.083.308.146.476.184v.948c-.634-.091-1.233-.434-1.596-.969-.489-.658-.57-1.573-.251-2.32a2.38 2.38 0 011.847-1.403zm2.635 2.089c0 .869.007 1.737-.002 2.607.315.042.633.043.948-.004 0-.867-.016-1.734.004-2.6.017-.617.601-1.124 1.207-1.113.64-.02 1.26.554 1.215 1.21 0 .835 0 1.669-.006 2.503.32.05.643.032.967.018-.003-.94.038-1.882-.018-2.819-.103-1.165-1.329-2-2.456-1.817-.988.107-1.892.99-1.859 2.015zm-2.634 1.084c.545-.424 1.116-.813 1.66-1.238.252-.214.58-.364.764-.642-.341-.807-1.225-1.323-2.093-1.31a2.065 2.065 0 00-.331.017v.944a1.64 1.64 0 011.122.18c-.347.325-.74.593-1.122.875v1.174zm0 1.52v-.95c.298.069.614.054.897-.074.317-.13.54-.401.75-.661.23.21.45.43.652.668-.308.421-.739.762-1.24.923-.34.117-.705.145-1.06.093zm11.459-1.007c-.2-.22-.407-.431-.63-.626-.258.277-.524.586-.907.681-.85.277-1.86-.446-1.837-1.349-.065-.825.733-1.577 1.554-1.479.504.013.887.376 1.188.743.203-.214.477-.384.6-.657-.376-.681-1.216-1.049-1.982-1.014-.993.01-1.917.734-2.195 1.682-.206.74-.076 1.594.44 2.181a2.35 2.35 0 002.156.846 2.29 2.29 0 001.613-.99v-.018zm0-1.5v.47a2.164 2.164 0 01-.005-.266c-.002-.068 0-.136.005-.205zm0 1.518l.007-.01-.007-.008v.018zm2.351-3.646v.925a1.263 1.263 0 00-.371.053c-.63.165-1.128.792-1.073 1.456.005.751.703 1.392 1.444 1.38v.925c-.584 0-1.17-.205-1.595-.615a2.28 2.28 0 01-.756-1.527v-.47c.072-.97.84-1.835 1.785-2.055.186-.05.377-.074.566-.072zm3.051.43c.396-.321.927-.288 1.406-.28.64.005 1.283-.006 1.924.007.013.309.013.62 0 .931-.831.027-1.665-.01-2.496.016-.296-.005-.511.318-.375.588.21.309.624.232.944.244.612.026 1.294-.123 1.833.252.73.45.766 1.65.073 2.151-.311.25-.72.33-1.11.326-.792-.005-1.583.01-2.375-.012a13.71 13.71 0 010-.927c.884-.035 1.772.029 2.654-.031.403-.014.514-.656.114-.77-.837-.176-1.789.178-2.556-.312-.742-.466-.766-1.695-.036-2.182zm-3.05 4.309v-.925c.029 0 .058-.002.087-.004.785-.027 1.451-.795 1.351-1.576-.044-.728-.73-1.303-1.439-1.309v-.925c.87.003 1.723.515 2.117 1.301.446.896.277 2.092-.477 2.774-.427.442-1.034.663-1.64.664zm12.034-3.914v2.942a2.258 2.258 0 01-.459-1.037 2.457 2.457 0 01.46-1.905zm-5.022-.665c-.007.824-.021 1.65.003 2.475.037.916.74 1.752 1.633 1.956.745.192 1.59-.037 2.116-.605.38-.384.583-.917.595-1.453.016-.79.002-1.58.007-2.369a9.614 9.614 0 00-1.04 0c-.001.79.011 1.58.002 2.37.001.587-.537 1.1-1.12 1.086-.594.04-1.171-.484-1.159-1.084-.008-.793.012-1.585-.007-2.376a12.652 12.652 0 00-1.03 0zm6.806-.016v.948c-.258.014-.514.05-.761.129-.736.422-.729 1.604-.094 2.12.232.223.543.328.855.324v.997c-.698.01-1.358-.351-1.784-.895v-2.942a1.75 1.75 0 01.88-.613c.299-.054.6-.068.904-.068zm0 4.518v-.997a1.27 1.27 0 00.999-.483c.501-.57.254-1.375.317-2.06-.433-.012-.879-.054-1.316-.03v-.948c.438 0 .878.026 1.314-.002 0-.597-.01-1.195.006-1.791.309-.01.62-.01.931.002.018 1.36.006 2.72.008 4.083-.016 1.124-.973 2.164-2.107 2.217a2.1 2.1 0 01-.152.009zM28.398 33.568a2.869 2.869 0 11-5.738 0 2.869 2.869 0 015.738 0z"
        fill="#fff"></path>
    <path d="M28.398 33.568a2.869 2.869 0 11-5.737 0 2.869 2.869 0 015.737 0z" stroke="#fff"
        stroke-width="0.164" stroke-miterlimit="10"></path>
    <path
        d="M31.012 31.438l-4.849 10.207c-.728 1.075-1.317.002-1.317.002l-4.761-10.304h-5.473l3.963 8.719-.711 1.453c-.751 1.318-1.333.08-1.333.08l-4.894-10.182-5.385.024 7.135 14.623.001-.002c.436.955 1.452 1.521 2.584 1.521 1.096 0 2.05-.58 2.539-1.435l.001-.002 1.667-2.929 1.688 2.93v.002c.49.854 1.443 1.434 2.54 1.434 1.19 0 2.213-.685 2.655-1.663v.001l7.12-14.48"
        fill="#fff"></path>
    <path
        d="M31.012 31.438l-4.849 10.207c-.728 1.076-1.317.002-1.317.002l-4.761-10.303h-5.473l3.963 8.718-.711 1.453c-.751 1.319-1.333.08-1.333.08l-4.894-10.181-5.385.024 7.135 14.622.001-.002c.436.956 1.452 1.522 2.584 1.522 1.096 0 2.05-.58 2.539-1.435v0h0l.001-.002 1.667-2.93 1.688 2.93v.002c.49.855 1.443 1.435 2.54 1.435 1.19 0 2.213-.685 2.655-1.663v0l7.12-14.48h-3.17z"
        stroke="#fff" stroke-width="0.164" stroke-miterlimit="10"></path>
    <path
        d="M38.542 45.25c-1.369 0-2.218-1.766-2.218-3.944 0-2.179.888-3.945 2.218-3.945 1.225 0 2.194 1.332 2.217 3.945.024 2.68-.992 3.944-2.217 3.944zm.038-9.927c-3.85-.13-7.124 2.133-6.973 6.02.128 3.322 1.83 6.02 6.973 6.02 3.851 0 6.973-1.812 6.973-6.02 0-3.324-2-5.85-6.973-6.02z"
        fill="#fff"></path>
    <path
        d="M38.542 45.25c-1.369 0-2.218-1.767-2.218-3.945s.888-3.944 2.218-3.944c1.225 0 2.194 1.332 2.217 3.944.024 2.68-.992 3.944-2.217 3.944zm.038-9.927c-3.85-.131-7.124 2.133-6.973 6.02.128 3.322 1.83 6.02 6.973 6.02 3.851 0 6.973-1.812 6.973-6.02 0-3.325-2-5.85-6.973-6.02z"
        stroke="#fff" stroke-width="0.164" stroke-miterlimit="10"></path>
    <path
        d="M59.913 39.792c-.145-3.308-3.283-4.475-6.668-4.475-3.379 0-6.262 1.243-6.608 4.475l-.037 7.307h4.6v-7.623c.116-1.43 1.259-1.907 2.06-1.907.823 0 2.07.343 2.062 1.887V47.1h4.599M69.483 40.767h4.416v5.576s-3.914 1.92-8.097.755c-6.058-1.689-4.487-7.172-4.302-7.775.312-1.015 2.321-5.86 11.352-3.312l-.992 2.123s-5.18-2.01-5.916 2.803c-.68 4.444 3.567 4.387 3.567 4.387"
        fill="#fff"></path>
    <path
        d="M69.483 40.767h4.416v5.577s-3.914 1.92-8.097.755c-6.058-1.69-4.487-7.173-4.302-7.775.312-1.015 2.321-5.86 11.352-3.312l-.992 2.123s-5.18-2.01-5.916 2.802c-.68 4.444 3.567 4.387 3.567 4.387l-.028-4.557z"
        stroke="#fff" stroke-width="0.164" stroke-miterlimit="10"></path>
</svg>